<?xml version="1.0" standalone="no"?>
<!DOCTYPE svg PUBLIC "-//W3C//DTD SVG 1.1//EN" "http://www.w3.org/Graphics/SVG/1.1/DTD/svg11.dtd" >
<svg>
<metadata>
Created by FontForge 20090914 at Thu Feb 23 18:36:48 2012
 By ffonts
&#194;&#169; 1998 Digital Graphic Labs - All Rights Reserved
</metadata>
<defs>
<font id="ILSScript" horiz-adv-x="225" >
  <font-face 
    font-family="ILS Script"
    font-weight="400"
    font-stretch="normal"
    units-per-em="1024"
    panose-1="2 11 6 0 5 3 2 2 2 4"
    ascent="819"
    descent="-205"
    x-height="289"
    cap-height="730"
    bbox="-286.167 -323.08 1635 786.25"
    underline-thickness="0"
    underline-position="0"
    unicode-range="U+0020-U+2022"
  />
<missing-glyph horiz-adv-x="536" 
d="M0 743h491v-743h-491v743zM69 668v-593h351v593h-351z" />
    <glyph glyph-name=".notdef" horiz-adv-x="536" 
d="M0 743h491v-743h-491v743zM69 668v-593h351v593h-351z" />
    <glyph glyph-name="glyph1" horiz-adv-x="0" 
 />
    <glyph glyph-name="glyph2" horiz-adv-x="1024" 
 />
    <glyph glyph-name="space" unicode=" " horiz-adv-x="400" 
 />
    <glyph glyph-name="a" unicode="a" horiz-adv-x="405" 
d="M218 289q11 0 23.5 -2.5t21.5 -10.5t13 -21.5t-3 -34.5l46 69h66l-21.5 -35.5l-24 -37.5l-25 -38l-24.5 -37l-22.5 -35t-18.5 -31.5t-12.5 -26.5t-4.5 -21q0 -5 1.5 -8t3.5 -4t4 -1.5t4 -0.5q6 0 13.5 3t17 9t19.5 14.5l21 18t22 20.5l21.5 22l20 21.5t17.5 20.5
q2 2 5 2.5t6 -0.5l1 -1.5t1.5 -3t0.5 -2.5t-1 -2q-2 -3 -8 -10.5t-15 -17.5l-20.5 -22.5t-24.5 -24.5l-26.5 -24t-27.5 -20.5t-27.5 -13.5t-25.5 -5q-10 0 -17.5 3t-13 9.5t-8 16t-2.5 20.5q1 10 2.5 19.5t2.5 19.5q-12 -15 -26.5 -31t-30.5 -29t-34.5 -21t-37.5 -8
q-16 0 -27 8.5t-18 23t-10 32.5t-4 36q0 13 3 25.5t5 24.5q-3 -3 -5.5 -7t-6.5 -6q-2 -2 -5 -4t-6 -2q-2 1 -2 4.5t1 5.5q5 7 13.5 17.5t19.5 22.5t24 24.5t28 24.5t31.5 23t34 19.5t35.5 14t37 6.5zM227 276q-17 -3 -34 -12t-32.5 -22t-29 -29.5t-25.5 -34.5t-21.5 -37
t-16 -36t-10.5 -32t-5 -25q0 -5 1.5 -11.5t5 -12t8.5 -9t11 -2.5q17 3 33.5 13t32.5 24t31 31t28 35.5t23.5 37t18.5 35t12 29.5t4 22q0 5 -3 11.5t-8 12.5t-11.5 9t-12.5 3z" />
    <glyph glyph-name="b" unicode="b" horiz-adv-x="352" 
d="M-6 132q45 54 85.5 111.5t79 119l76 127l76.5 136.5h66l-46.5 -81l-53.5 -90.5l-56 -94.5l-54.5 -92.5l-49.5 -84.5l-40 -71.5t-26.5 -52t-8.5 -26.5q0 -6 3 -10t7 -6.5t9 -4t9 -0.5q26 1 46 8.5t36 19.5t28.5 27.5t21.5 33.5t15.5 38t11 40.5t7 41t5.5 38.5q0 5 3 10.5
t6.5 9.5t8.5 6.5t10 2.5q10 -1 15.5 -4.5t8.5 -9.5t4 -12.5t1 -12.5q-1 -21 -6.5 -42t-13.5 -41t-19 -38.5t-24 -34.5q5 -1 10 -2.5t9 -0.5q14 1 26.5 6t24 13t22 18.5t20.5 22.5q2 2 5 3.5t5 0.5q3 -1 4 -4.5t-1 -5.5q-11 -16 -25.5 -28.5t-29.5 -20.5t-29.5 -12.5
t-25.5 -4.5q-7 -1 -13.5 0t-13.5 1q-19 -17 -37 -31.5t-37 -25t-39.5 -17t-43.5 -7.5q-11 -1 -22.5 2t-20.5 11t-15 19.5t-5 27.5q0 15 4.5 29.5t11 29l13 28.5t11.5 29l-21 -24t-22 -23h-2t-3 1q-1 0 -1.5 1.5t0.5 2.5z" />
    <glyph glyph-name="c" unicode="c" horiz-adv-x="291" 
d="M14 104l2 21t4 22l-5.5 -7.5t-6.5 -6.5l-6 -4t-7 -2q-1 0 -2 3t0 4q4 7 11.5 17t19 22.5t25.5 25.5t29.5 26t33 24.5t35 20.5t35.5 14t36 5q11 0 22.5 -3t21.5 -9.5t15.5 -16.5t5.5 -25q-1 -8 -3.5 -16.5t-7.5 -15t-11.5 -10.5t-14.5 -4q-5 -1 -11 1t-10.5 5t-7 8.5
t-2.5 11.5t4.5 11t8.5 10q2 3 5 5t6 4.5t5.5 5.5t2.5 6q0 4 -2 7.5t-5.5 5.5t-7.5 3.5t-8 1.5q-11 0 -24.5 -5.5t-27 -15.5t-26.5 -24t-25.5 -30t-23 -33.5t-18 -36t-11.5 -37t-4 -34.5q0 -13 3.5 -22.5t9.5 -15.5t13.5 -9t15.5 -3q11 0 22.5 3.5t23.5 10t24 15.5t24 19
t23.5 21l22 22l19.5 21l17 19q2 2 4.5 3.5t5.5 1.5q2 0 4 -1.5t1 -3.5q-4 -6 -11 -15t-17 -20.5t-22 -24t-25.5 -24.5t-28.5 -23t-31 -19.5t-32 -13t-31 -4.5q-18 0 -33.5 7t-27 21.5t-18 34.5t-6.5 45z" />
    <glyph glyph-name="d" unicode="d" horiz-adv-x="402" 
d="M566 625l-45 -80l-52 -89.5l-55 -93.5l-53.5 -91l-48 -84l-39.5 -71.5t-26.5 -53t-8.5 -29.5q0 -4 1.5 -7.5t3.5 -6t4.5 -4t5.5 -1.5q7 2 15.5 6.5t17.5 11.5l19 15.5t20 18t19.5 19.5l18.5 20l16.5 18.5l13.5 15.5q3 3 6.5 5t6.5 2q2 0 4 -2.5t1 -4.5q-8 -11 -18 -23.5
t-21.5 -25l-23.5 -24.5t-24.5 -23t-25 -20t-24 -15.5t-21.5 -9.5t-18 -3q-8 1 -15 3t-12.5 8t-9 15.5t-5.5 24.5q0 2 0.5 6t1.5 10l2 12t2 11l-27.5 -30.5t-30.5 -28.5t-33.5 -20.5t-37.5 -7.5q-17 1 -28 10.5t-17.5 24t-9 31t-2.5 31.5q1 12 3 25t3 25q-3 -3 -5.5 -7
t-5.5 -6t-5.5 -3t-5.5 0q-2 1 -3 3.5t0 3.5q24 34 54 62.5t60.5 49t60 32t53.5 11.5q9 0 18.5 -3t17.5 -8.5t13.5 -13.5t6.5 -18q0 -5 -1 -11l-2 -12l227 400h64zM226 274q-16 -1 -31.5 -8.5t-31 -20.5t-29.5 -29.5t-26.5 -35.5t-22.5 -38.5t-17 -37.5t-10.5 -33.5
t-2.5 -26.5q1 -5 1.5 -10.5t3 -9.5t6.5 -7t10 -3q13 -1 27.5 6t30 18.5t31 27.5t29.5 34t26.5 37.5t21 38t14 35t4.5 28.5q0 7 -1.5 13t-6 11t-11 8t-15.5 3z" />
    <glyph glyph-name="e" unicode="e" horiz-adv-x="289" 
d="M218 289q14 0 25 -4t18 -10.5t10.5 -15.5t3.5 -18q0 -14 -5.5 -26.5t-15 -24t-22 -22t-28 -19.5t-32 -16.5t-34 -14t-35 -11.5t-33.5 -8q-2 -12 -4 -22t-1 -20q0 -13 3.5 -21.5t9.5 -14.5t13.5 -8.5t14.5 -2.5q10 0 21 3t22 9t23 14t23.5 17.5t23 20t22 21.5l21 22
t19.5 22l4.5 4.5t6.5 2.5q1 0 3 -2t1 -4q-1 -3 -6.5 -11t-15 -18.5l-21.5 -23.5t-26.5 -26t-30 -25t-32 -21t-32.5 -14t-32 -5q-18 0 -34 8t-27.5 22.5t-18 34t-6.5 43.5q0 11 2 22.5t5 22.5q-4 -4 -7.5 -9t-7.5 -8q-2 -2 -4 -3t-4 -1q-2 1 -3.5 3.5t-0.5 3.5l11 16t17.5 22
t24 25.5t28.5 26.5t32.5 25t35.5 21t37 14t38 4zM222 277q-11 0 -22.5 -5t-23 -13.5t-22.5 -19.5t-21.5 -23.5t-19.5 -26.5t-16.5 -27t-13 -25.5t-8.5 -22.5q15 3 29.5 8t29 12t28 16t25.5 19t22 21t17 22t11 21.5t4 20.5q0 5 -1.5 9t-4 7t-6.5 5t-7 2z" />
    <glyph glyph-name="f" unicode="f" 
d="M433 641q9 -1 18 -5t16 -11t11 -15.5t4 -17.5q-1 -19 -10 -39.5t-24 -42t-34.5 -44t-42.5 -45t-48 -44.5l-51 -43t-51.5 -39.5l-48.5 -35.5l-31 -60.5l-31.5 -63l-30 -62.5l-26.5 -59q21 2 43 14t43 29t41 38.5t36 42.5q2 3 5 6t6 3q1 0 2.5 -1t2.5 -2.5t1.5 -3t0.5 -2.5
l-22.5 -28.5t-24 -27.5t-26 -25.5t-26.5 -23t-26 -19t-25.5 -13.5t-24 -8t-21.5 -2l-144 -295h-70l298 554q-15 -10 -28.5 -23l-27 -27l-27.5 -29.5l-27 -30.5l-15 -15l-4 15l77.5 85.5t81.5 77.5l25.5 46.5l29 53l32.5 56t35.5 55.5t38 50t39.5 40t40.5 27t40.5 10z
M188 294q20 11 42 27t44.5 35.5l45 41t43 43.5t38 44t30 42.5t20.5 38t8 31.5q1 7 -1.5 12.5t-6.5 9.5t-9 6.5t-10 2.5q-14 0 -29.5 -9t-32 -25.5t-34 -38.5t-34 -47.5l-33 -53.5t-31 -56l-27.5 -54.5t-23 -49.5z" />
    <glyph glyph-name="g" unicode="g" horiz-adv-x="379" 
d="M218 289q9 0 19 -2.5t18.5 -7.5t14 -13.5t6.5 -19.5q0 -6 -0.5 -11.5t-0.5 -11.5l46 66h57l-41.5 -72.5l-42 -73l-40.5 -72.5t-37 -71l38.5 29t41 34.5l40.5 38t36 39.5q2 1 4.5 2.5t4.5 1.5q2 -1 3.5 -3.5t0.5 -3.5q-13 -20 -33 -42t-44.5 -43.5t-52.5 -41t-58 -35.5
q-3 -7 -11 -23t-21 -38.5l-29 -49t-35 -53t-39.5 -51t-41.5 -43.5t-43 -30.5t-43 -10.5q-16 0 -26.5 5t-16 12.5t-7.5 17t-2 17.5q0 15 7 31.5t19 33t29 33.5t37.5 34t42.5 33.5t45.5 32l47.5 30.5t46 27l25 54.5l25 54.5l-28 -31t-32 -32t-36 -24t-40 -9q-14 0 -25 7
t-19 20t-12 31.5t-4 39.5q-1 13 2 26t5 25l-6 -6l-6 -6q-1 -2 -3 -5t-4 -3q-1 1 -3 1.5t-3 2t-1.5 3t0.5 2.5l18 22.5t22.5 25l26.5 25.5t29.5 25t31.5 22t32.5 18t33 12t32.5 4zM227 274q-14 -1 -29 -8t-30 -18.5t-29 -27.5t-26.5 -34t-23 -37t-18.5 -37.5t-12.5 -35.5
t-4.5 -31q0 -5 1.5 -10.5t4.5 -10.5t8 -8t11 -3q12 0 26 7.5t29.5 19.5t31 28.5t30 35t27 38t21.5 37.5t13.5 34t3.5 28q0 7 -3.5 13t-8.5 10.5t-11 7t-11 2.5zM144 -40q-12 -8 -29 -18t-35.5 -22.5l-38 -26.5t-37.5 -29.5t-34.5 -32t-29 -34t-20.5 -35.5t-9 -36q0 -6 2 -12
t5.5 -11t9.5 -8.5t13 -3.5q12 0 25.5 7t27 20t28 31t28.5 39t27.5 43.5t25.5 45l22.5 44t18.5 39.5z" />
    <glyph glyph-name="h" unicode="h" horiz-adv-x="385" 
d="M390 628l-288 -492q11 10 22 22l23 25l24 26t24.5 25l24.5 22.5t23.5 18t22.5 12t21 4.5q8 0 15 -4.5t12.5 -12t9 -16t3.5 -16.5q0 -13 -4 -25t-9.5 -23.5t-12.5 -22.5l-14 -21q-8 -12 -19 -25.5t-21.5 -28.5t-19 -31.5t-12.5 -33.5q0 -3 1 -7t3.5 -7t6 -5t6.5 -1
q9 2 18.5 7t19.5 12t20 16t20 19t19 20l17.5 20l16 19l13.5 16q3 3 6.5 5t7.5 2q3 0 4.5 -3.5t0.5 -5.5q-3 -3 -9.5 -11t-16 -18.5l-21.5 -23l-25 -25.5t-26.5 -24.5t-26 -20.5t-23 -14t-18.5 -5q-13 1 -22 7.5t-14.5 16.5t-8 22.5t-3.5 23.5q0 17 6 34t14 31q10 18 23.5 35
l26.5 33t24.5 32t17.5 31q1 2 0 4t-3 4t-4.5 3.5t-3.5 0.5q-12 -2 -28.5 -13.5t-36.5 -29t-41.5 -40l-42.5 -46.5l-41 -47.5l-35.5 -43l-26.5 -34t-15 -20.5h-56l71.5 117.5l71.5 116.5l-46 -50l-47 -50q-2 -2 -5 -4.5t-5 -2.5t-4 3t0 4l49.5 56.5l45.5 55.5t42 56.5l39 58
l38 60.5l38 64l39 68.5l42 74.5h62z" />
    <glyph glyph-name="i" unicode="i" horiz-adv-x="229" 
d="M258 491q5 0 9.5 -1.5t8.5 -5t6.5 -9t2.5 -13.5q1 -8 -2.5 -16.5t-9.5 -15t-13 -11t-15 -4.5q-8 1 -13.5 3.5t-9 7t-5 10t-1.5 10.5q0 6 3.5 14t9 15t13 11.5t16.5 4.5zM91 225q-24 -23 -43 -45.5t-41 -44.5l-4.5 -4.5t-4.5 -2.5t-4.5 1.5t-1.5 2.5q15 22 32 42l35 39.5
l36.5 38.5l36.5 38h68q-9 -16 -21.5 -35l-25.5 -39.5l-26.5 -41.5l-26 -40l-23.5 -36.5t-18.5 -31.5t-11.5 -23.5t-3 -12.5q1 -4 2.5 -8t3.5 -7t5 -5t8 -1q26 6 46.5 20.5t38.5 33t35 38.5t35 37q2 3 5 5t6 2q2 0 4 -2t1 -4l-19 -23.5t-21 -24.5l-23 -24t-24 -22.5
t-24 -19.5t-23 -15.5t-21 -10t-18 -3.5q-10 0 -20 4t-17 12t-12 20t-5 27q0 19 9 40t22 42l27 42.5z" />
    <glyph glyph-name="j" unicode="j" horiz-adv-x="210" 
d="M225 492q5 0 10 -2t8.5 -6t6 -9.5t2.5 -12.5q0 -8 -3.5 -16t-9 -14.5t-13 -11t-16.5 -4.5q-5 -1 -9.5 1t-8.5 5.5t-6 9.5t-3 14q0 7 3.5 15.5t9 15t13 11t16.5 4.5zM187 289q0 -3 -4 -13.5t-11 -26t-17 -35l-21 -41.5l-23 -45.5l-23.5 -46l-22.5 -44l-20 -38.5
q21 14 40.5 30.5l38.5 34l37.5 35.5l36.5 36q2 3 4.5 5.5t6.5 2.5q2 1 4.5 -1t0.5 -4q-14 -23 -36 -45.5t-47 -43.5t-51.5 -39.5t-51.5 -33.5q-8 -19 -19 -42t-26 -48t-32.5 -50.5t-36.5 -49.5t-38.5 -44.5t-38.5 -35t-37.5 -22t-34.5 -6.5q-8 1 -17.5 3.5t-17 7.5t-12.5 14
t-4 25q0 17 7.5 34.5t20 35t29.5 34t37 33t42.5 32l45.5 30l46 28l44 25.5l123 268l-99 -111q-2 -2 -4 -5.5t-6 -4.5l-2 1t-3.5 2t-2 2t0.5 2q14 21 32.5 43l36.5 43l34 39t24 30h67zM-259 -272q1 -6 1.5 -12t3 -11t8.5 -8.5t16 -4.5q12 0 25.5 6.5t27 19t27.5 29.5t28 37.5
t27.5 43l26 45t23.5 45l21 42.5q-20 -10 -40.5 -23t-40.5 -27.5l-39.5 -30t-36.5 -31.5t-31.5 -32t-25 -31.5t-16 -30t-5.5 -26.5z" />
    <glyph glyph-name="k" unicode="k" horiz-adv-x="365" 
d="M389 626l-373 -626h-59l146 235l-91 -98q-3 -3 -6 -5.5t-6 -3.5l-1.5 0.5l-3 1t-2 1.5t0.5 2q54 58 99 117.5t84 121.5l76 125.5l76 128.5h60zM310 291q9 0 16.5 -3t13 -8.5t8.5 -12.5t2 -13q0 -8 -2.5 -14t-6 -10.5t-9 -7t-11.5 -2.5q-4 0 -7 1.5t-6 4t-5.5 5.5t-4.5 6
q-3 3 -4.5 7t-3.5 8t-4 7t-6 3t-10 -7.5t-12.5 -18.5t-14 -22.5t-14.5 -18.5q-6 -6 -13 -11t-14 -9.5t-14 -7.5t-14 -5q7 -4 14.5 -10t13.5 -14t10 -17t3 -20q0 -10 -3 -20t-6.5 -19.5t-6 -19.5t-2.5 -20q-1 -2 0.5 -4.5t4 -4t5 -2.5t4.5 -1q6 1 13.5 5t16.5 10.5t19 15.5
l20 18.5t20 20l20 21l19 20.5t17 18l4 4t5 2q2 0 4.5 -2t1.5 -4q-3 -5 -10 -14.5t-17 -20.5t-22.5 -23.5l-25.5 -24.5l-26 -23t-25.5 -19.5t-23 -13t-18.5 -4.5q-12 0 -22.5 7.5t-18.5 19t-13 24.5t-5 24q0 9 1.5 17.5t4 17.5t5.5 18t5 18q1 3 0.5 6.5t-1.5 7t-2.5 6.5
t-2.5 7q12 5 22 13.5t19.5 18t18 19.5l17.5 20l17.5 19t18.5 16t20.5 11t22.5 5z" />
    <glyph glyph-name="l" unicode="l" horiz-adv-x="230" 
d="M42 28q0 -3 2 -6.5t5.5 -6t7.5 -4t7 -1.5q5 0 12 3.5t16 9.5t19.5 14t21.5 18l23 20.5t23 21.5l21.5 22l19.5 20q2 3 5 4t6 1q1 0 2 -0.5t2.5 -1.5t2 -2t-0.5 -2q-11 -9 -22 -20.5l-22 -23l-22.5 -23.5l-23 -23t-22.5 -20.5t-21.5 -17t-20.5 -11t-19 -3.5
q-16 0 -26.5 5.5t-17 14.5t-9 20.5t-2.5 21.5q0 17 8.5 37.5t21 42.5l26 44t23.5 42q-20 -22 -38.5 -45t-39.5 -45q-2 -2 -4.5 -5t-5.5 -3q-1 0 -2 2t-2 5t-1.5 5.5t0.5 2.5q53 55 98 111.5t86.5 116.5t81.5 124l82 133h61l-50.5 -82l-57.5 -91l-61 -94l-59.5 -91.5
l-53 -84.5l-43 -71.5t-28.5 -53.5t-9 -30z" />
    <glyph glyph-name="m" unicode="m" horiz-adv-x="627" 
d="M-6 133q6 10 15 22.5t20 25.5l23 26t24.5 25t25.5 22.5t25 18t22.5 12t19.5 5.5q12 0 19.5 -4.5t12 -12t6.5 -16.5t2 -16q0 -15 -3.5 -29t-9.5 -27.5t-13 -26.5l-13 -25l16 19l19.5 23.5l21.5 26t23 26.5t24 24t24.5 19.5t24.5 13.5t24 5q15 -1 23.5 -6.5t12.5 -15
t3.5 -21.5t-3.5 -25.5t-8 -26.5t-10.5 -24.5l-10.5 -21t-8 -13.5q4 5 12 14l18.5 21t23 25l25.5 26t26.5 25t26 21.5t24.5 15t21 5.5q8 0 15.5 -3.5t13 -10t8 -15.5t2.5 -20q0 -14 -5 -28.5t-13 -29t-18 -29.5l-20 -29l-20 -27.5t-18 -26t-12.5 -23.5t-5.5 -20q0 -3 1.5 -6
t4 -5.5t5.5 -4t5 -1.5q7 1 15.5 5t18 10.5t19.5 15.5l20.5 19l21 21l21 21.5l20.5 21l19 19.5q1 1 3.5 1.5t3.5 -0.5q2 0 3.5 -1t0.5 -3l-9.5 -12.5t-16.5 -19.5l-22.5 -24t-26 -25.5l-26.5 -24t-25 -20.5t-22 -13.5t-17 -4.5q-11 0 -20 6.5t-16 17.5t-10.5 23.5t-3.5 23.5
q1 14 5 27.5t10 26t14 24.5t16.5 23.5t17.5 22.5l18 22.5t17 23.5t14 24q1 2 0 4t-3 4t-4.5 3.5t-4.5 1.5q-8 0 -22.5 -10t-32.5 -27t-38 -38.5l-41 -45.5l-40.5 -47.5l-36 -44.5l-28.5 -37l-18 -24h-68l23 35.5l26.5 40l27.5 41l27 40l24.5 37t19.5 31.5t12.5 23.5
t4.5 12.5q-1 5 -5 9.5t-9 4.5q-8 0 -22 -10t-32 -26.5t-38 -38l-40.5 -44.5l-40.5 -47l-37 -45l-30 -38l-20 -26h-70l23.5 35.5l26.5 38.5l28 40.5l27 39.5l24 36.5l19.5 31.5t13.5 24.5t5 15.5t-4.5 8.5t-10.5 3.5q-8 0 -17 -4.5t-19.5 -12t-21 -17t-21.5 -21l-22 -23
l-21.5 -23.5l-19.5 -22.5t-18 -18.5q-1 -2 -3 -3t-4 -1q-1 1 -3 2.5t-1 2.5z" />
    <glyph glyph-name="n" unicode="n" horiz-adv-x="455" 
d="M169 289q8 0 14.5 -2.5t12 -8.5t9 -15t3.5 -22q1 -14 -3 -28.5t-9.5 -28.5t-13 -27t-13.5 -25l21 23.5l23 25.5l25 26l25.5 25t25 22.5t24 18t22 12t19.5 4.5t16 -4.5t12 -11.5t7.5 -15.5t2.5 -17.5q0 -15 -5 -29.5t-12.5 -29.5t-17.5 -29l-20 -27.5l-19.5 -26.5
l-17.5 -25t-13 -23t-5 -21q0 -3 1.5 -6.5t3.5 -6.5t5 -4.5t6 -1.5q18 5 37 18.5t38 32t37 38.5l35 38q2 2 4.5 5t6.5 3q2 0 4 -2t1 -4q-1 -3 -7 -10.5l-15 -18t-21 -23l-25.5 -25.5l-27 -25t-26 -21.5t-24 -14.5t-19.5 -5q-10 0 -19.5 6t-16 16.5t-9.5 23t-3 24.5q1 14 6 29
t13 29.5t18 29l20 28l20 26t17.5 23t12 18.5t4.5 13q0 4 -3.5 7.5t-7.5 3.5q-10 -1 -24.5 -10.5t-33 -26t-38.5 -37l-40.5 -43.5l-40.5 -46.5l-37 -44.5l-31 -38l-22 -27h-67l23.5 35l26 39l27.5 40.5l27 40l24 37l19.5 31.5t13 23.5t4.5 13.5q0 3 -0.5 5t-2 3.5t-4.5 2.5
t-8 1q-7 0 -16 -4t-18.5 -11t-20 -16.5t-21.5 -20.5l-22 -23l-21.5 -23.5l-20.5 -22l-18 -18.5l-4 -4t-5 -2q-2 0 -3.5 2t-0.5 3q2 4 8 12.5t15.5 20.5t21.5 25.5l25 27.5t27.5 26.5t28 22.5t26.5 16t24 6z" />
    <glyph glyph-name="o" unicode="o" horiz-adv-x="348" 
d="M214 291q12 0 24.5 -3.5t23 -12.5t16.5 -23t6 -35q0 -17 -5.5 -34t-13.5 -32.5t-18 -30.5l-19 -28q4 0 8.5 -2t8.5 -1q11 1 23 5t24.5 11t24 17t21.5 24q2 3 5 5t7 2q2 0 4 -2t1 -4q-9 -17 -23 -30.5t-30 -22.5t-33 -13.5t-31 -4.5q-6 0 -11 1t-11 1l-26.5 -25.5
t-33 -27.5t-36.5 -21.5t-39 -7.5q-15 0 -27.5 5t-22 17.5t-14.5 31.5t-5 47q0 13 3 25.5t5 25.5q-4 -4 -7 -8.5t-7 -7.5q-2 -1 -4 -2.5t-3 -1.5q-2 1 -3.5 2t-1.5 3q1 2 6 10.5t15 20t23.5 25.5t29.5 28.5t34 27.5t36.5 23.5t37.5 16.5t38 6zM217 274q-13 0 -26.5 -7
t-27 -18.5t-27 -27.5t-25.5 -33.5t-22 -36.5t-17 -37.5t-11 -35t-4 -30.5q0 -6 1.5 -12.5t5 -12t9.5 -8.5t15 -3q13 1 28 8t29.5 18t28.5 25.5t27 31t23.5 34t18 34.5t11.5 32.5t3 28.5q0 8 -2.5 16.5t-7 16t-12 12.5t-18.5 5z" />
    <glyph glyph-name="p" unicode="p" horiz-adv-x="389" 
d="M319 489l-108 -176.5l-108 -177.5l23 23.5l24.5 26l25 26.5t25.5 24.5l25 22t23 18t21 12t18 4.5q7 0 14 -4.5t12.5 -12t8.5 -16t3 -15.5q0 -13 -5 -27.5t-12.5 -30t-18 -31.5l-21 -31l-20.5 -29.5t-17.5 -26.5t-12.5 -22t-5 -17q0 -3 1.5 -6.5t4 -7t5.5 -5t6 -0.5
q18 5 37 19t38 32.5t37.5 39.5t35.5 38q2 2 5 4.5t6 2.5q2 0 4.5 -2.5t1.5 -4.5l-8.5 -11l-13.5 -16.5l-18 -20.5t-21.5 -22.5t-24.5 -22.5l-26 -21t-26.5 -17.5t-26.5 -11.5q-10 -3 -19.5 3.5t-16 18t-10.5 25.5t-3 25q1 14 6.5 29t13.5 30t18 30t20 28.5t20 25.5t17 22
t11.5 17.5t3.5 11.5q0 2 -1 4t-2.5 4t-4 3t-4.5 1q-19 -6 -43.5 -24.5t-51.5 -47t-56 -65t-58 -77t-57 -84l-54 -86.5l-49 -84t-40 -76h-64l149 253.5l149 252.5l-47.5 -50.5l-47.5 -50.5l-2.5 -2.5t-3.5 -3t-3.5 -2.5t-2.5 -1q-2 1 -5 1.5t-1 2.5l35.5 41l34 39.5l33 39
t32.5 40.5l32 43l32.5 46.5l33.5 52l35 57.5h59z" />
    <glyph glyph-name="q" unicode="q" horiz-adv-x="375" 
d="M200 87q-4 -6 -10 -13l-13 -14.5l-14.5 -15.5t-16 -15t-17.5 -13t-18.5 -10.5t-19.5 -6.5t-19 -2q-30 2 -44.5 27t-15.5 73q0 12 3 25t5 26l-6 -8t-7 -7q-1 -1 -3.5 -2.5t-3.5 -2.5q-2 0 -5 1.5t-2 2.5q6 11 15 23.5t22 25.5t28 26t31.5 25.5t34 23t34.5 18.5t33.5 12.5
t31.5 4.5q9 0 18.5 -4t17.5 -10.5t13 -15.5t5 -20q0 -6 -1 -12t-1 -12l46 72h50l-31 -55.5l-32 -57.5l-32.5 -58l-33 -57.5l-32 -55.5l-29.5 -53l-27 -50l-24 -45l33 42.5l37 46.5l39 47l38.5 45l35.5 41l29.5 33l20.5 22.5t9 9.5q2 1 3.5 2t3.5 0q1 0 2 -1.5t0 -2.5
l-16.5 -20.5l-31.5 -38.5l-43 -51.5l-50 -60l-53 -65.5l-52.5 -68l-48 -66.5t-38.5 -60.5h-58l104.5 188zM226 273q-16 0 -32 -8t-31 -20.5t-29 -29.5t-26 -35.5t-22 -37.5t-17 -37t-10.5 -34t-3.5 -27q-1 -5 0.5 -10.5t4.5 -10t8 -7.5t11 -3q12 0 26 6.5t28.5 18.5t30 27.5
t29.5 33.5t26.5 37t21.5 37.5t14.5 35.5t5.5 31q0 8 -3 14t-8 10.5t-11 7t-13 1.5z" />
    <glyph glyph-name="r" unicode="r" horiz-adv-x="342" 
d="M170 291q7 0 14.5 -3.5t13 -9t9 -13.5t3.5 -18q-1 -17 -5 -33t-10.5 -31t-15 -31t-18.5 -33l43.5 41.5t43.5 39.5q6 18 13.5 34t17.5 28.5t23 20t30 8.5q4 0 8 -1.5t8 -4t6 -6t2 -7.5q0 -2 -3 -7.5t-8.5 -11.5t-13.5 -13t-18 -14q-15 -10 -28 -20t-23 -22t-16.5 -26
t-6.5 -32q0 -5 1.5 -10.5t5.5 -10t8.5 -7t9.5 -2.5q11 1 20 5t17.5 9.5t17 13.5l18.5 18q1 1 3 2.5t4 1.5t3 -2t1 -4q0 -3 -2.5 -6.5t-6 -8t-9 -9.5t-11.5 -9.5t-13 -8.5l-13.5 -7.5t-13 -5.5t-12.5 -2q-9 -1 -17 2t-14.5 8.5t-9.5 13t-2 16.5q1 13 4.5 25t8.5 24
q-21 -17 -41.5 -37.5t-40 -43l-38 -46l-35.5 -45.5h-68l23.5 35l26 39l27.5 40.5l27 39.5l24 36.5l19.5 31.5t13.5 24t5 14q0 3 -1 5.5t-3 4.5t-4.5 3.5t-5.5 0.5q-9 -1 -19 -5.5t-20 -11.5t-20.5 -16.5t-20.5 -20.5l-20.5 -22.5l-20 -22.5l-19 -21.5t-18.5 -18.5l-4.5 -4.5
t-4.5 -3.5q-2 0 -4 3t0 4q8 13 18.5 26l22 26.5t23.5 26l24 24t24 21.5t23 17t21 11t19 5zM272 216q4 1 13.5 7t19.5 13.5t18 17t10 17.5q0 2 -2 3.5t-4 2.5q-7 0 -16 -7.5t-17 -17.5t-14 -20.5t-8 -15.5z" />
    <glyph glyph-name="s" unicode="s" horiz-adv-x="226" 
d="M167 327q4 0 7.5 -2t6.5 -5t4 -7t1 -7q-1 -9 -7 -15.5t-15 -8.5q-11 -3 -18 -11.5t-7 -26.5q1 -16 3.5 -31.5t6 -31t6 -31t3.5 -31.5q0 -7 -1 -13.5t-3 -13.5t-4.5 -14t-3.5 -13l36.5 37.5l37.5 37.5l3 3t4 2t4 -2.5t1 -3.5l-17.5 -21.5t-20 -23l-22.5 -24t-24.5 -23.5
t-26 -20.5t-27 -17t-27.5 -11t-28 -3.5q-17 0 -29.5 3.5t-21 10.5t-13 16.5t-5.5 20.5q-1 5 1.5 11.5t7 12t10 9t9.5 3.5q3 0 7.5 -1.5t8 -4t5.5 -6.5t2 -10q-1 -5 -3 -9.5t-4 -9.5t-4 -9.5t-1 -9.5q0 -3 1.5 -5t4 -4t5 -2.5t5.5 -0.5q10 2 20.5 8.5t19.5 17t17 23.5t15 28
t12.5 32t9.5 34t6 34.5t3 33.5q0 9 -1.5 21t-2.5 22q-16 -15 -31 -32l-29.5 -34l-29.5 -34t-31 -33q-1 -1 -2.5 -3t-3.5 -2t-4 1.5t-1 2.5q15 22 31.5 42t33.5 38.5l33.5 37l33.5 37.5l7 13.5t9 13.5t12 10.5t15 4.5z" />
    <glyph glyph-name="t" unicode="t" 
d="M244 369q-12 -21 -27.5 -45l-31.5 -49.5l-33 -51.5l-32.5 -51l-29.5 -47.5t-24 -41t-16 -32.5t-6 -22q-1 -3 1 -6.5t4.5 -6.5t6 -5t7.5 -2q7 0 16 4t19 10.5t20 15t20 18.5l20.5 21l20.5 21.5l19 20.5l17 19q3 2 6 4.5t7 2.5q2 0 4.5 -2.5t0.5 -4.5q-5 -7 -13.5 -17
l-18 -21.5t-21 -23.5l-23.5 -23.5t-24.5 -21.5t-24.5 -18t-24 -12.5t-22 -4.5q-13 -1 -24 5t-18.5 16t-11 21t-2.5 20q4 23 13.5 43.5t21.5 41l24.5 40.5t22.5 41l-41 -44l-42 -44l-3.5 -3.5t-4.5 -3.5q-1 2 -2 3.5t-2 3.5l30.5 34l28 31l25 28l22.5 26l21 26l20.5 26.5
t20.5 28.5l21 32h-56l15 15h50l32 52l32 52h64l-33 -52l-32 -53h117l-14 -14h-113z" />
    <glyph glyph-name="u" unicode="u" horiz-adv-x="397" 
d="M195 289l-21 -34.5t-23.5 -37.5l-25 -38.5l-24.5 -38t-22 -35.5l-18 -31.5t-13 -26t-6 -17.5q0 -3 2 -6t4.5 -6t6 -5t6.5 -2q15 0 32.5 9.5t36 26t38 38t38.5 45t35.5 47.5l30.5 45.5t23.5 39t13.5 27.5h69l-21 -34l-23 -36.5l-24 -37.5l-23.5 -37l-22 -35t-18.5 -31.5
t-13.5 -26.5t-7.5 -21q-1 -3 0 -6t3.5 -6t6 -5t6.5 -2q4 -1 11 2t15.5 9t19 14.5t21 18.5l21.5 20.5t21.5 22l20 22t17.5 20.5q2 3 5 4t6 1q2 0 4 -1.5t2 -3.5l-7.5 -11t-14.5 -19t-20.5 -23.5t-24.5 -25l-26.5 -24.5t-26.5 -21t-25 -14t-22 -5q-11 0 -19.5 6t-14.5 16
t-9 22t-2 22q0 7 1 15l2 16q-15 -17 -32.5 -34t-35 -31t-34.5 -22.5t-32 -9.5q-13 0 -24 5t-18.5 14.5t-11 20.5t-2.5 21q2 23 11.5 44t21.5 41l25 40t23 41l-41 -45l-41 -44q-2 -2 -4 -3.5t-5 -2.5q-1 0 -3 1.5t-1 2.5l68 78.5l70 77.5h65z" />
    <glyph glyph-name="v" unicode="v" horiz-adv-x="422" 
d="M170 292q9 -1 17.5 -5t15 -10.5t10 -16t3.5 -23.5q-1 -13 -5 -26t-9.5 -25.5t-13 -25t-15.5 -24.5l-16 -24.5l-15.5 -25t-13.5 -25t-10 -26.5q-2 -4 0 -9t6 -8.5t9.5 -6t10.5 -1.5q19 2 37 9t35 18t32.5 25.5t28.5 31.5t23.5 37t18 41t11.5 43.5t3 45.5q0 5 2.5 10.5
t7 9.5t9.5 7t10 2q6 0 11.5 -2t10 -6t6.5 -10t1 -15q-3 -23 -12 -45t-21 -43t-26 -40t-28 -36q5 -2 9.5 -3t8.5 -1q12 2 24.5 7t24.5 12.5t23 17.5t21 23q2 2 4.5 3.5t5.5 0.5q1 0 3 -2.5t1 -3.5l-16.5 -21t-23 -23t-32.5 -18.5t-44 -8.5q-6 0 -12 0.5t-11 1.5
q-17 -15 -35 -29t-37 -25.5t-39.5 -18t-42.5 -7.5q-10 -1 -20 3t-17.5 13t-11.5 22t-4 29q0 13 4 27.5t11.5 29t16 29t18 28l18 26t15 23t10 19.5t2.5 15q-1 2 -1.5 4.5t-2 4t-3.5 3t-6 0.5q-8 0 -17.5 -5t-20 -12t-21 -17l-21 -21l-21 -22.5l-20.5 -23l-19.5 -21.5
l-17.5 -19q-2 -2 -4.5 -3.5t-4.5 -1.5q-1 0 -3 1t-2 2q2 4 8 13t16 21.5t23 27l27 29t28.5 28t28.5 23t26 15t20 4.5z" />
    <glyph glyph-name="w" unicode="w" horiz-adv-x="532" 
d="M196 289q-9 -16 -20.5 -34l-23.5 -37l-24.5 -38l-24 -37.5l-22 -35.5t-18.5 -32t-13 -27t-7 -20q0 -3 1.5 -6t4 -6t5.5 -4.5t6 -1.5q16 0 33 9t35.5 25t37.5 36.5t37 43.5t34.5 46.5l31 45.5l26 41l19.5 32h65q-9 -16 -20.5 -34.5l-24.5 -38l-25.5 -40l-24.5 -39.5
l-22.5 -36t-18 -30.5t-11.5 -23t-3 -13.5q3 -14 10.5 -19.5t16.5 -4.5q22 2 41 10t35.5 19t31 25.5t26 30.5t20.5 33t15.5 33.5t10 32t3.5 27.5q0 7 1 13.5t2.5 12l3 10.5t1.5 8q2 5 5 10t7 8.5t9 5.5t9 2q5 0 10 -2t8.5 -6.5t5.5 -11t1 -15.5q-3 -24 -12 -45.5t-21.5 -41.5
t-26.5 -39l-27 -38q5 0 9.5 -1.5t8.5 -1.5q16 2 29 7.5t24 13.5t20.5 18l18.5 20q2 2 4.5 4t5.5 2q2 -1 4.5 -3.5t1.5 -4.5q-7 -10 -16.5 -22t-23.5 -22.5t-32.5 -18t-44.5 -8.5q-6 0 -11.5 1l-11.5 2l-33.5 -28.5t-37 -26t-40 -18.5t-42.5 -7q-15 0 -25.5 5.5t-17 15.5
t-9.5 21.5t-3 22.5q0 6 1 14.5t2 15.5l-11 -13l-13.5 -15l-15.5 -16t-17 -15.5t-18.5 -14.5t-19 -12t-19.5 -7.5t-20 -2.5q-13 0 -23.5 5t-18 14t-11 20t-2.5 21q3 23 11.5 43.5t19.5 40.5t24 39.5t24 39.5l-38.5 -42.5l-39.5 -42.5q-3 -3 -5.5 -5t-5.5 -3q-1 0 -3 1t-1 3
q8 14 24 33.5t35.5 41t41 43l40.5 40.5h62z" />
    <glyph glyph-name="x" unicode="x" horiz-adv-x="344" 
d="M168 291q7 2 13 0t11.5 -6t9.5 -11t7.5 -15t5.5 -17t3 -18t0.5 -18t-1.5 -17q12 17 26.5 35t30 33t32.5 24.5t35 9.5q7 0 15 -2t14.5 -6t10.5 -11t4 -16q0 -5 -1.5 -10t-5 -9t-9 -6.5t-11.5 -3.5q-9 0 -16 6.5t-11 16.5q-2 5 -6.5 9.5t-10.5 4.5q-7 1 -17.5 -5.5t-22 -18
t-23.5 -27t-23.5 -33.5t-21.5 -38t-17.5 -39.5t-12 -37.5t-4.5 -34q0 -9 4.5 -15t11.5 -6q6 1 14 4.5t17 10t19 14.5t20.5 18l21 20.5l20.5 21l19.5 21l18.5 20.5q2 2 4 3.5t5 1.5q2 0 4.5 -1.5t1.5 -3.5q-1 -4 -7.5 -12.5t-16.5 -19.5l-22.5 -24t-26 -25.5l-27 -24
t-26.5 -20.5t-23 -13.5t-17 -4.5q-14 0 -24.5 7.5t-18 20.5t-11 30t-3.5 35q-14 -16 -30.5 -33t-33.5 -30.5t-34.5 -21.5t-32.5 -8q-7 0 -15.5 2t-15.5 7t-11.5 11.5t-4.5 15.5q-1 5 2 11t7 10.5t10 7.5t12 3q8 0 13.5 -5t10.5 -15q2 -3 3 -8.5t2.5 -10t3.5 -7.5t6 -2
q16 6 31 15.5t29 22t26 27.5t22 31.5t18.5 34.5t14.5 36t10 36t6 35q0 3 -0.5 7t-2 7.5t-5 5.5t-8.5 1q-11 -2 -20.5 -7t-19.5 -12.5t-19.5 -16.5t-19 -19.5l-19 -21.5l-18.5 -21.5l-18 -20.5t-18 -19q-3 -2 -6 -5.5t-6 -4.5q-2 0 -3.5 2.5t-0.5 4.5t5.5 9t12 17.5
t18.5 23.5t23.5 26t26.5 26t28.5 24t29.5 19.5t29 11.5z" />
    <glyph glyph-name="y" unicode="y" horiz-adv-x="438" 
d="M170 292q11 0 19.5 -4.5t14 -12.5t8.5 -17.5t3 -17.5q0 -13 -3 -25t-8.5 -24.5t-12.5 -25t-15 -25l-16.5 -25t-16 -25.5l-14.5 -26t-11 -26q-1 -3 0 -7t4 -7t6.5 -5t6.5 -1q13 2 28.5 11.5t32.5 23.5t34.5 32.5t34.5 39t33.5 42.5l31.5 43.5t27.5 41.5t21.5 37h60
q-20 -32 -40 -67.5l-40.5 -72.5l-41 -75l-40.5 -74q21 13 41 29t39.5 33.5t37.5 36.5l36 38q3 2 5 5t5 3t4.5 -3t0.5 -5q-17 -23 -37.5 -45t-44 -42.5t-49.5 -39t-54 -33.5l-20.5 -38.5t-26 -45.5l-30.5 -49t-33.5 -48.5t-36.5 -44.5t-38 -37t-38.5 -25.5t-37.5 -10.5
q-9 -1 -18.5 1t-17.5 7.5t-13.5 15.5t-6.5 25q-1 17 6 34.5t20.5 35t31.5 35.5t39.5 35t44.5 33.5t46.5 31l45.5 27.5t41 23l38 76.5l39 76.5l-19.5 -21l-21.5 -22.5t-23 -22.5t-23.5 -20.5t-23 -18t-22 -14.5t-20.5 -9.5t-18 -3.5q-10 0 -18.5 7t-15 16.5t-9 21t-0.5 21.5
q5 26 17 49.5t26.5 46.5l29 46t23.5 48q2 2 1 5t-3 5.5t-5 4.5t-6 2q-7 0 -16 -4.5t-18.5 -11.5t-20 -16.5t-21 -20t-21 -22.5l-21 -23.5l-20 -22.5t-18.5 -20q-2 -2 -5 -4t-5 -2t-4.5 2.5t-1.5 3.5q8 12 19 25l22.5 26l23.5 25.5l24 24.5t24 22t23 17.5t21.5 11.5t19.5 5z
M205 -39q-24 -14 -47 -29l-44 -30t-40 -30.5t-35 -31t-28 -30.5t-21 -29.5t-14 -28t-5 -26.5q-1 -6 2 -12t7 -11.5t9.5 -8.5t10.5 -3q15 2 29.5 10.5t29 22t28 31.5t26.5 38.5t25 42.5l23.5 44l22.5 42.5z" />
    <glyph glyph-name="z" unicode="z" horiz-adv-x="338" 
d="M108 293q4 1 8.5 0t8.5 -3.5t7 -7t3 -11.5q1 -4 -0.5 -7.5t-3.5 -7.5t-3.5 -8t-0.5 -8q2 -6 6 -9t9 -4.5t10 -1.5t9 -1q14 0 26 2.5t23 6.5t20.5 9.5t18 11.5t15.5 12l12 10.5t9 7t6 2.5q5 0 9 -4t4 -9q0 -4 -4.5 -10t-12 -12t-16 -11t-16.5 -7l-44.5 -35l-45 -34
l-44 -34t-41.5 -35q20 8 32 14t20.5 9.5t15.5 5t18 1.5q6 0 13 -2.5t12.5 -7.5t9 -11.5t3.5 -15.5t-2.5 -17.5t-6.5 -17l-7.5 -16.5t-4.5 -17q0 -2 0.5 -4t1.5 -3.5t3 -2t3 -0.5q5 2 12.5 6.5t16 11t18 15l19.5 18l20 19.5l19.5 20l18.5 20t16 20q2 2 4.5 4t5.5 2
q1 0 3.5 -1.5t1.5 -2.5q-2 -4 -8 -12.5t-15 -19.5t-21 -24l-25 -26t-26.5 -24.5t-26.5 -20.5t-24.5 -14t-20.5 -4q-10 0 -18 4.5t-13.5 12.5t-7.5 17.5t-2 18.5q0 6 1.5 11.5l3 11.5l3 11.5t1.5 11.5q0 3 -3.5 4.5t-5.5 0.5q-16 -3 -34 -9t-35.5 -16t-35 -25t-32.5 -37
q-4 -6 -11 -10.5t-14 -5.5q-3 0 -5 1t-4 2.5t-3 4t-1 4.5q0 5 2.5 11t8.5 12t14.5 12.5t19.5 11.5l46.5 40.5l50 41l52 41l52.5 40.5q-13 -3 -22 -5.5t-16 -3.5t-13.5 -1.5t-14.5 -0.5q-14 0 -26 3.5t-21.5 10.5t-15 17t-5.5 22q0 9 3 14.5t8 9t10.5 5.5t11.5 2z" />
    <glyph glyph-name="A" unicode="A" horiz-adv-x="1244" 
d="M1260 738q4 0 9 -2.5t9.5 -6t7 -7.5t0.5 -7q-25 -51 -53.5 -100l-58.5 -98l-60.5 -97t-58.5 -98h8h8q17 1 31.5 -2t27.5 -8.5t23 -13.5t18.5 -18t14.5 -21t10 -22.5t5.5 -23.5t1.5 -23q0 -13 -3.5 -28t-10 -31t-15.5 -32t-21 -30.5t-26.5 -27t-31.5 -22t-36 -14.5t-40 -5
q-20 0 -38.5 9.5t-32.5 26t-22 38.5t-7 47q1 22 6 44t12.5 44t15.5 43t16 40q-23 -7 -42 -19.5t-34.5 -28t-27 -32.5t-17.5 -33l-8 -18t-9 -17t-11.5 -15t-14.5 -11q-4 -2 -8.5 0t-8.5 6.5t-6 9.5t0 9q1 3 6 11t14 19l21 24.5t26 27.5t30 27.5t32.5 25.5t34 20.5t34.5 12.5
l66 99l69.5 97.5l70 97.5l67.5 99q1 2 0.5 4.5t-1.5 5t-3 4t-3 0.5q-53 -39 -104 -87.5l-101.5 -100.5l-100.5 -106.5l-101 -106.5l-62.5 -64l-60.5 -59.5t-60.5 -54.5t-62 -48t-65 -39.5t-69 -30t-74 -18.5t-80.5 -6q-35 0 -66 5t-57 15.5t-48 24.5t-39.5 31.5t-31 37
t-22 41.5t-13 45t-3.5 46q0 25 5.5 49t16.5 47.5t26 45t34 40.5t41.5 34.5t48.5 27t54 17.5t58 6q18 0 38 -2.5t40 -7.5t39 -13.5t36.5 -19.5t32 -25.5t25.5 -32t18 -38.5t8 -45q0 -7 -3 -14t-8 -13.5t-11.5 -10t-13.5 -4.5q-6 0 -11.5 4t-10 10t-7.5 13t-5 13q-1 7 0 15
t3.5 15.5l5 15t2.5 15.5q0 13 -4 24.5t-11 21t-16 17.5t-20.5 14.5t-23.5 11t-24.5 7.5t-24.5 4.5t-23 1.5q-32 0 -60 -6.5t-51.5 -18t-43.5 -28t-36 -36t-28 -42t-20.5 -45.5t-13.5 -47t-7 -48q-1 -19 2 -37.5t10.5 -37t19 -35t26.5 -31t33.5 -26.5t39.5 -20.5t44.5 -12.5
t49.5 -4q69 1 132.5 22.5t123 58.5t117 87.5t113.5 109.5l77 81.5l74.5 80l71.5 76l66 68.5t59 58t51 45t41 29t29 10zM1049 301l-23 -49.5t-22.5 -55t-17.5 -58.5t-9 -59q-2 -19 2.5 -31t12 -19.5t17.5 -11t20 -4.5q11 -1 22 2t22 9t21 15t19 21t16.5 26t13 30t8.5 33.5
t4 36.5q0 19 -5 40t-17.5 38t-33 27.5t-50.5 9.5z" />
    <glyph glyph-name="B" unicode="B" horiz-adv-x="1014" 
d="M1016 568q0 -21 -5 -39.5t-13 -35t-19 -30.5t-24.5 -25.5t-28.5 -21t-31 -16t-32 -10.5t-31 -5q36 -9 64 -26t47 -40t28 -49.5t9 -54.5q-1 -23 -6.5 -45t-15.5 -42t-23.5 -37.5t-30 -32.5t-35 -27t-38.5 -20t-40 -11.5t-40 -2.5q-40 2 -67 12t-44 27t-24.5 38.5
t-8.5 45.5q-2 24 7 46.5t26.5 41.5t41.5 35t53 29l14 6t15 3q2 0 5 -1t5.5 -2t4 -2t-0.5 -2q-33 -18 -60 -35.5t-46.5 -37t-30.5 -42.5t-13 -54q-1 -14 6.5 -28.5t20 -25.5t29.5 -17t35 -4q19 2 37 8.5t35 16.5t32.5 23t28.5 28.5t24 32.5t19 35t12.5 36.5t4.5 36.5
q1 27 -6.5 48.5t-21.5 37t-33 25.5t-41 14q-7 2 -14.5 0t-15.5 -4.5t-15.5 -4.5t-15.5 -1q-4 0 -8.5 1.5t-8.5 4t-7 6t-2 7.5q0 5 3 8.5t7.5 6.5t10 4.5l9.5 2.5q7 1 13 -0.5l12.5 -3l13 -3t13.5 -0.5q16 1 30.5 6.5t27.5 13.5t23.5 19t19 23.5t15 26t11 28t7 29t2.5 27.5
q0 23 -6.5 42t-17 34t-25 27.5t-32 21.5t-36.5 15.5t-38.5 11t-38.5 6.5t-37 2q-53 1 -107.5 -9.5t-107 -30.5t-101.5 -48.5t-92 -64.5t-78.5 -78.5t-61 -89.5t-38.5 -98.5t-12 -105.5q1 -15 3 -31t5.5 -31.5t10 -31t14.5 -29.5t19 -26t25 -20.5t31 -13.5t37 -5q38 -1 74 16
t70.5 46.5t67 70t64.5 86.5l64 95.5l63.5 97.5t64 92.5t66.5 81.5q4 4 9.5 8.5t11.5 5.5q2 0 5 -1t5.5 -2.5t4 -3.5t-0.5 -4q-36 -39 -69.5 -85.5t-66 -97l-64.5 -102t-66 -99t-69.5 -89t-75 -72t-84 -47.5t-94.5 -16q-27 0 -50.5 5t-42.5 14t-35 21t-28 27t-20.5 32
t-14.5 35t-9 36.5t-4 36.5q-1 37 11 79.5t36 87t59 89.5t80.5 86t100.5 77t118.5 62.5t134.5 42.5t150 17q21 0 44.5 -1.5t48 -6t49 -12t46.5 -17.5t41.5 -23.5t33.5 -31t22 -39t8 -46.5z" />
    <glyph glyph-name="C" unicode="C" horiz-adv-x="934" 
d="M532 413q38 3 76 11t75 20.5t71.5 29t65.5 35t57 39t45.5 40.5t31.5 40t15 37q2 11 -6 20t-19.5 15t-25.5 9t-24 2q-67 -9 -126.5 -30t-111.5 -50t-96 -64.5t-79.5 -73.5t-62.5 -76.5t-44.5 -74.5t-25 -67t-4.5 -54q2 -9 2.5 -18.5l1 -19t2 -18.5t4.5 -17q33 5 67.5 12
l68 13.5t66.5 10.5t63 3q18 0 39 -2t43 -5.5t43.5 -9.5t41 -14t36.5 -19.5t28.5 -26t17.5 -32t4 -39.5q-2 -21 -8.5 -37t-16.5 -29t-23.5 -23t-28.5 -17t-32 -12t-34 -7.5t-33.5 -3.5t-31.5 -1q-35 0 -66 4.5t-58 13t-51 20t-45 25.5t-39.5 30t-35 34t-31 37t-27.5 39
l-33 -12t-31.5 -13l-31 -14.5t-31.5 -16.5q-4 -2 -9 -5.5t-10 -4.5q-2 0 -4 1t-4 2.5t-3 2.5t1 2q18 15 35.5 25.5t36 19t37 16l37.5 15.5q-4 12 -8 25.5t-7.5 28t-5.5 29.5t-3 30q-1 44 14.5 88.5t44 86.5t68.5 81.5t87.5 73.5t100.5 62.5t107.5 48.5t109.5 31.5t106 11.5
q14 0 30.5 -3t30.5 -10t23 -18.5t9 -30.5q0 -20 -13.5 -42t-37.5 -44t-56.5 -44t-69 -42.5t-76 -37.5t-78 -29.5t-74.5 -20t-65 -8.5q-4 0 -8.5 0.5t-5.5 3.5q0 2 0.5 4t1.5 4t2.5 3t3.5 1zM359 126q8 -28 20 -51.5t26.5 -42.5t31.5 -33t36 -24.5t39 -18t41.5 -12.5
t43.5 -7.5t44 -3.5q11 -1 26 0.5t32.5 5.5t35.5 9.5t35.5 13.5t33 17.5t27.5 21t18.5 26t6.5 30.5q0 15 -8 27.5t-22.5 22.5t-33.5 17.5t-40.5 13.5t-44 10t-44 6t-41 3t-33.5 1q-29 -1 -60 -3.5t-61 -6.5t-58 -9.5t-51 -12.5z" />
    <glyph glyph-name="D" unicode="D" horiz-adv-x="924" 
d="M903 368q0 -35 -7.5 -70t-22.5 -68t-37 -63.5t-49.5 -56.5t-61 -47.5t-71.5 -36.5t-80.5 -22t-88.5 -6q-31 1 -61 5t-59.5 10.5t-59.5 14t-59 13.5l-36.5 -17.5t-37.5 -15t-39 -9t-40 -1.5q-13 1 -29.5 4.5t-30.5 10.5t-23.5 17.5t-8.5 23.5q0 15 8.5 26t22 18t31 11
t36.5 3q23 -1 47.5 -3.5t49 -5.5t49 -6.5t48.5 -6.5q34 28 62.5 59t52.5 68q-48 13 -87 37t-67 57t-43.5 75t-14.5 91q1 35 8 65t19.5 55.5t30 47t38.5 38t44 29t48 21t50.5 13t50.5 4.5q39 1 78 -7.5t75.5 -24t70.5 -37.5t63.5 -49.5t53.5 -58.5t41.5 -65t26.5 -69.5
t9 -70.5zM213 44l-37 12t-38.5 11t-38.5 8.5t-39 3.5q-6 1 -12 -0.5t-11.5 -5t-9.5 -9t-4 -13.5q-1 -12 7 -20t20 -12.5t25.5 -6.5t24.5 -2q15 -1 30.5 2.5t30 8.5t28 11.5zM653 566l-46 -79.5l-47 -81.5l-48.5 -82l-48.5 -80l13.5 -2t13 -2.5t13.5 -2t13 0.5q34 4 65 12
t57.5 24.5t47 42.5t34.5 66q1 2 2 5t2.5 6t4 4.5t5.5 1.5q2 0 3.5 -2t2 -4.5t0.5 -5.5v-5q-11 -35 -29 -65.5t-47.5 -54t-71.5 -38t-99 -17.5q-14 -1 -28 0.5t-28 1.5l-61 -61.5l-61 -61.5q31 -4 62.5 -9.5l62.5 -10.5t62.5 -9t63.5 -5q36 0 68.5 5.5t60.5 16.5t52 27
t43.5 35.5t34.5 41.5t26 46.5t17 50t8 51.5q2 36 -8 71.5t-29 69t-46.5 65t-60.5 58.5t-70 49t-76 37.5t-77.5 23.5t-75.5 7q-49 -2 -87 -17.5t-64.5 -40.5t-40 -59t-11.5 -72q1 -41 16 -82t41.5 -76.5t64 -62.5t83.5 -42l100.5 161l101.5 160q2 3 6 5.5t8 0.5
q3 -2 3.5 -7.5t-1.5 -8.5z" />
    <glyph glyph-name="E" unicode="E" horiz-adv-x="836" 
d="M356 786q27 -1 53.5 -7t51.5 -15t50.5 -22l50.5 -27q4 -3 7 -7.5t3 -8.5q-1 -2 -2 -2.5t-3 -1t-4 0t-3 1.5q-27 16 -52.5 28t-50.5 19.5t-50.5 12t-52.5 5.5q-29 2 -57 -4t-50.5 -18.5t-37 -31t-17.5 -41.5q-1 -14 3.5 -27.5t14 -25.5t23 -22.5t30.5 -20t37 -16.5t42 -12
t45 -8t46 -3h22h22q1 25 7.5 46.5t18 40t26 34.5t32 29t36.5 23t39 17t39.5 12t38.5 6q12 2 26.5 -2t26.5 -12t19.5 -18.5t6.5 -22.5q-2 -30 -22.5 -56t-54.5 -47t-78 -37t-94 -27q-1 -4 -0.5 -9t2 -10t2.5 -10l2 -10q11 -1 23.5 -2t26.5 -3t27.5 -5t26.5 -7.5t24.5 -10.5
t19.5 -13.5t13 -17t5 -21.5q0 -14 -7 -24t-18 -16t-23.5 -8.5t-22.5 -0.5q-25 3 -50.5 10t-47.5 20.5t-39 34t-23 50.5q-47 -7 -87 -21t-69 -35.5t-45 -51t-15 -67.5q1 -9 1.5 -18.5t0.5 -18.5q25 4 49 9t48.5 9.5t49 8.5t49.5 4q23 1 50 -1.5t55.5 -8t57 -14t54 -20
t48 -26.5t38 -32.5t24 -38.5t7.5 -45q-2 -23 -8 -42.5t-16 -35t-23 -27.5t-28 -21t-32 -15.5t-34 -10.5t-34.5 -5.5t-34.5 -2.5q-29 0 -59.5 4t-61 12t-60 21t-56 29.5t-49.5 38.5t-41.5 48t-30.5 57t-17 67q-44 -19 -84.5 -39.5t-79.5 -47.5q-3 -3 -7 -5.5t-9 -2.5
q-1 0 -2.5 1t-2.5 2t-1.5 2.5t0.5 2.5q5 5 12.5 11.5t17.5 13l21.5 14t24.5 15t26.5 14l27.5 13t27.5 11.5t26.5 9q0 4 -1 8t-1 8q-1 28 4.5 52.5t17 46t27.5 39t35.5 31.5t42 24.5t46.5 18t48 11.5t48 5q-2 8 -3.5 16.5t-2.5 16.5l-44.5 -2l-44.5 -2q-51 0 -89.5 8.5
t-66 26t-43 42.5t-18.5 56q-2 15 1 29.5t10.5 28.5t18 26t24 23t29 19.5t32.5 14t35.5 8.5t36.5 2zM544 540q14 3 31 7l35 8.5t36 11t34.5 14t31 16.5t25 20.5t16 24.5t4.5 29q0 18 -6 28t-14.5 15.5t-18.5 7t-20 1.5q-29 0 -56.5 -12.5t-49 -35.5t-34.5 -57t-14 -78z
M273 233q12 -36 29.5 -67t38 -57t43.5 -48t47.5 -39t49 -29t48 -20t45 -11.5t39.5 -3.5q12 1 24.5 2.5t25.5 4.5t26 7.5t24.5 11t21.5 14t17 17t11 21.5t4 26q0 24 -9.5 45.5t-26 40t-38.5 33.5t-48 27.5t-53.5 21.5t-55 15t-53.5 8.5t-48 1.5q-20 -1 -40 -2.5t-40 -4
t-40 -6t-42 -9.5zM555 462q9 -21 22 -38.5t28 -30.5t31.5 -19.5t32.5 -6.5q8 1 14 3.5t10 6.5t6 9.5t2 10.5q-1 10 -5.5 18t-12 14.5t-17.5 11.5t-21.5 8.5t-24 5.5t-24 3.5t-22 2.5t-19.5 1z" />
    <glyph glyph-name="F" unicode="F" horiz-adv-x="898" 
d="M604 742q25 0 49.5 -3t48 -8t47.5 -12l47.5 -14l48 -14.5t49.5 -13.5t51 -11t54 -7q10 7 21.5 16t24.5 16.5t28 13t32 4.5q5 0 11 -1t11 -3.5t8 -7t3 -12.5q-1 -7 -4.5 -13t-10 -10t-15 -7t-17.5 -5.5t-19.5 -3.5t-20.5 -2.5t-19.5 -2.5t-17.5 -2q-16 -3 -31 -9.5
t-28.5 -16t-26 -21t-24 -25t-21.5 -27.5t-19 -28t-16.5 -27.5l-13.5 -24.5q4 -1 11.5 -2t17.5 -3t21.5 -5t23.5 -7.5t22.5 -10.5t19 -13.5t13.5 -17.5t5 -22q0 -7 -4 -14.5t-10 -13.5t-13 -9.5t-14 -2.5q-9 1 -18 6t-16.5 12t-11.5 15t-2 15q3 14 1 25t-9 18t-19 9.5
t-28 -0.5l-45.5 -76t-49.5 -77t-54.5 -74.5t-60 -69.5t-66.5 -60.5t-73.5 -48.5t-81 -32.5t-89.5 -13.5q-22 -1 -44.5 3.5t-44 12.5t-41.5 21.5t-37.5 30.5t-31.5 37.5t-24 44t-15.5 49t-4.5 53.5q1 11 2 23.5t3 25.5t5 26t7.5 24.5t10 22t13 17.5t16.5 11t21 3q7 0 14 -3.5
t12.5 -9t9.5 -12t3 -13.5q0 -8 -5 -17t-11.5 -16t-15 -10.5t-16.5 -0.5q-9 3 -16 3.5t-12 -1.5t-9 -5.5t-6.5 -8.5t-3.5 -10.5l-2 -11.5t-1 -11.5v-9.5q1 -24 8.5 -46.5t20 -43t29.5 -38.5t36.5 -33t42 -27t45.5 -20t46 -12.5t45 -3.5q41 0 77 11t68 29.5t59.5 43.5
t52.5 54.5t48 62.5l44.5 66.5l42 67t41.5 64.5q-12 1 -27.5 -5t-31.5 -15.5t-30 -21.5t-23 -23q-3 -5 -9 -8.5t-12.5 -5t-13.5 -1t-13 2.5q-4 1 -6.5 5.5t-3.5 9.5t-0.5 10t3.5 7q15 14 34.5 27.5t42.5 23.5t48.5 16t51.5 6l12.5 21.5l14 24.5t17 27t20 27t22.5 25
t25.5 21.5t29 17t33.5 10.5q-24 -2 -49 -1t-51 3.5t-52 6t-52 7.5t-52 8.5t-50.5 8t-48 6.5t-45.5 4q-27 1 -52 -5.5t-43.5 -23t-29.5 -42t-9 -60.5q0 -12 1.5 -25t1.5 -25q0 -2 0.5 -5t0 -5.5t-1 -4.5t-2.5 -2q-3 -1 -4.5 0.5l-3.5 3.5t-3 4.5t-1 5.5q-3 11 -3.5 23.5
t-0.5 24.5q1 18 3 36.5t6.5 36t11 34t16.5 31t24 26.5t32 20.5t40.5 13.5t50.5 5z" />
    <glyph glyph-name="G" unicode="G" horiz-adv-x="913" 
d="M996 609q0 -2 -0.5 -5.5t-2 -6.5t-3 -4.5t-3.5 -1.5q-3 1 -4.5 3.5t-1.5 6t-0.5 7t-0.5 6.5q-5 28 -20 47t-35.5 30t-44 15.5t-45.5 3.5q-34 0 -67.5 -7.5t-64.5 -20.5t-60 -32t-54 -43t-45 -52t-34.5 -60t-22.5 -67t-8 -72q0 -31 11 -58.5t30 -47.5t44.5 -30.5
t55.5 -6.5l19.5 2t19 2.5t19.5 4t20 6.5q8 12 16 26t17.5 29t20.5 30t22.5 28.5t24.5 25.5t26.5 21t28 14.5t30.5 5.5q6 0 11 -4t9 -9.5t6.5 -12t2.5 -12.5q0 -16 -11 -34t-29 -35.5t-41.5 -32.5t-48.5 -24q-16 -35 -36.5 -70t-45.5 -68t-53.5 -63.5t-59.5 -56t-65 -47
t-70 -36.5t-73 -23t-75 -7q-23 0 -47 3.5t-47 10.5t-45 18t-41.5 25.5t-35 33t-27 41.5t-17 50.5t-4.5 60.5q1 21 4.5 43.5t9.5 45t15 44.5t21 41.5t27.5 36.5t34.5 30t42 21.5t50 11.5q11 1 24 -3t24 -11.5t18 -17.5t5 -22q-1 -8 -5 -15.5t-10 -14t-14 -10.5t-15 -5
q-8 -1 -13.5 1t-10.5 5.5t-9.5 8.5t-8.5 10l-8 10t-8.5 9.5t-9.5 7t-11 2.5q-15 0 -27.5 -4.5t-23 -13t-19 -20t-15 -25t-11 -29t-7.5 -30.5t-4.5 -29.5t-1.5 -28.5q0 -31 6.5 -60t18 -54.5t28 -47t36 -39t41.5 -31t46 -22.5t48.5 -13t48.5 -3q28 1 54.5 9t51 21t47.5 30.5
t44 38.5t40 45.5t35.5 51.5t30.5 55.5t25 57.5q-13 -4 -26 -7.5l-25 -6.5t-24.5 -4t-25.5 0q-25 2 -46 7.5t-37.5 14t-29.5 19.5t-23 24t-16.5 27.5t-11 30t-7 31.5t-3.5 32q-2 35 7.5 69.5t28 66.5t45 61t58 54t67 45.5t73 34.5t74.5 22t72 8q32 0 62 -9.5t52 -26
t34.5 -39.5t12.5 -49zM797 263q16 8 32.5 20t31 26t24.5 29.5t12 30.5q0 3 -1 6t-2.5 6.5t-4 5.5t-5.5 2q-7 0 -13.5 -4.5t-13 -11.5t-13 -16t-12 -19.5l-11 -21.5t-10 -21l-8 -18t-6.5 -14z" />
    <glyph glyph-name="H" unicode="H" horiz-adv-x="1260" 
d="M977 749q3 1 6.5 -0.5t6 -4.5t4 -6.5t0.5 -6.5q-2 -10 -8.5 -17.5t-15.5 -13.5t-19.5 -9.5t-20.5 -4.5q-33 -33 -61.5 -70t-54.5 -76.5t-50 -81.5l-48 -86l84.5 21.5l84.5 21.5q17 32 40 63.5t49.5 61t56 56t59.5 49.5t59.5 41.5t57 31t52 19.5t42.5 7q12 -1 25 -6.5
t23 -14.5t16.5 -21.5t5.5 -26.5q-1 -30 -18 -57t-44 -50t-61 -42.5t-70.5 -35.5t-72 -28.5t-66 -21t-52 -13.5l-30.5 -7q-17 -33 -31.5 -64.5t-24.5 -63t-15.5 -63.5t-6.5 -66q0 -10 0.5 -20.5t2 -22t4 -22.5t6.5 -21.5t9.5 -19.5t13.5 -16.5t18 -12.5t22 -7q-1 14 -3 28
t-2 28q-1 62 13 111t38 81.5t55 48.5t65 14q20 -2 39 -9.5t34 -21.5t24 -36t8 -51q-1 -21 -6.5 -41t-16 -39t-24.5 -36.5t-31 -33t-36.5 -28t-40.5 -21t-43.5 -12.5t-44.5 -3q0 -8 0.5 -15.5t1.5 -15l2 -15t1 -17.5q1 -2 0 -4.5t-3 -4.5q-2 -1 -6 -1.5t-5 1.5q-6 17 -8.5 35
t-6.5 35q-22 2 -40 8t-32.5 15.5t-25.5 22t-19 26t-13.5 28t-8.5 29.5t-4 29t0 26q1 28 5.5 55.5t12 54.5t18 53t24.5 49l-85.5 -20l-85.5 -20l-19 -36.5t-29.5 -50t-41 -57.5t-51.5 -60t-61.5 -57t-72.5 -47.5t-83 -32.5t-93 -12q-25 0 -48 4.5t-43.5 13t-38 20t-31.5 26
t-24.5 30.5t-17 33.5t-9 35.5t0.5 36q3 23 7.5 45t12 42.5t18.5 39t26 35.5t34.5 31t45 25t57 18.5t69.5 11.5q14 1 29.5 -1t30.5 -8t29 -14t27 -19t24 -23.5t18.5 -26t12 -28.5t4.5 -30q0 -17 -4 -33.5t-10.5 -32.5t-14.5 -32l-15 -31q-1 -2 -4 -3t-6.5 -0.5t-6 2t-3.5 3.5
q-2 3 -1 6.5t2.5 7l3 7t2.5 7.5l4 16.5l4 17t3 17.5t0 17q-5 31 -19.5 59.5t-35.5 50t-46.5 34t-53.5 11.5q-23 0 -43.5 -5t-38 -13.5t-32.5 -20t-27 -25.5t-21 -29t-15 -31.5t-8.5 -33.5t-1.5 -33q0 -18 3.5 -35.5t9.5 -34t15.5 -32t21.5 -29t28 -25t35 -19.5t41.5 -12.5
t49.5 -5.5t53.5 5.5t52.5 19t50.5 30t48 39t45.5 47t42 54t38.5 59t34.5 62.5q30 58 61.5 109t62 92.5t58.5 70.5t49 44q-18 -7 -36 -15t-36.5 -15t-37 -13t-37.5 -7q-14 -1 -27.5 0t-26.5 4.5t-26 7.5t-26 9l-25.5 10t-25.5 9t-26 7t-27 4q-14 2 -23.5 -5.5t-15.5 -19
t-8.5 -24.5t-2.5 -24q1 -22 6 -44t13 -43t17.5 -40.5t19.5 -35.5q2 -3 3 -7.5t-1 -7.5q-2 -2 -6 -1t-6 3l-11.5 16t-12.5 19t-12 21.5t-11 24t-9 25.5t-6.5 25.5t-3 25t1.5 24.5l4 22t5 22t7.5 21.5t10.5 20t14 17.5t18 13.5t23 8.5t28 3q15 -1 28.5 -4t27 -8t26.5 -11.5
l26 -13l26.5 -13l26.5 -12.5t27 -10t28 -6t28 1.5t28 9.5t27.5 13t26.5 13q12 19 29.5 34t36.5 25zM976 18q26 -1 48 3.5t41 13t34 20t27 26t20.5 30t14.5 31.5t9 31.5t3 29.5q0 22 -5 42t-15 35t-23.5 23.5t-30.5 7.5q-19 0 -35 -9t-28 -24.5t-21 -36t-15.5 -43.5
t-11 -47.5t-7 -48.5t-3.5 -45.5t-2 -38.5zM970 436q29 7 59.5 17t60.5 22.5t58.5 27.5t54 31.5t47.5 34.5t38 37t26 38.5t11 40.5q1 10 -3 17.5t-10 12t-13.5 6.5t-14.5 2q-24 -2 -49 -11.5t-49 -25.5t-47.5 -36.5t-44.5 -43t-40 -46.5t-35 -46.5t-28.5 -42.5t-20.5 -35z
" />
    <glyph glyph-name="I" unicode="I" horiz-adv-x="836" 
d="M728 730q26 -2 48 -16t38 -37t24 -55t7 -70q-1 -31 -7 -62.5t-17 -63t-26.5 -63t-34.5 -61.5q1 -1 3.5 -4.5t6.5 -8t9.5 -10l10.5 -11l10 -10.5t9 -8.5t6.5 -6l2.5 -2.5q4 -5 3 -7.5t-2 -3.5t-4.5 -1.5t-6.5 1.5q-5 4 -13.5 11.5l-17.5 15.5t-16.5 16t-10.5 13
q-20 -30 -43.5 -58.5t-50 -54t-55 -49t-58.5 -43t-62 -35t-64.5 -26.5t-65 -17t-65.5 -6q-20 0 -40.5 2.5t-40 8.5t-38.5 15.5t-35.5 23t-30.5 31t-24 38.5t-15.5 46t-5.5 55q0 21 4 42t12.5 41.5t20.5 39.5t28 35.5t35 30.5t41 23.5t46.5 15t51.5 5.5q13 -1 27 -3
t28.5 -6.5t28 -11t26 -15.5t22.5 -19.5t17 -23.5t11 -28t3 -32q0 -11 -3 -22t-7.5 -22t-10 -21t-9.5 -21q-3 -4 -7 -7.5t-9 -4.5q-1 0 -1.5 1t0 3t1 3.5t0.5 3.5q1 6 2.5 12.5l3 13t2.5 12.5t1 13q-1 16 -5 31.5t-11.5 29t-17 26t-21 22.5t-24 18.5t-26.5 14t-28 9t-28 3.5
q-16 0 -32 -4t-30.5 -11.5t-27.5 -18.5t-24 -23.5t-19.5 -27t-14.5 -29.5t-8.5 -30.5t-1.5 -30.5q2 -29 8.5 -54.5t17.5 -46.5t25 -38t31 -30.5t36 -23.5t39 -16.5t40.5 -9.5t40.5 -3q30 0 59.5 6t58 17.5t56 27.5t52.5 36t47.5 43.5t42 49t34.5 53.5t26 56
q-20 28 -37.5 58.5t-30 62t-19 64t-5.5 65.5q0 12 2 25.5t5.5 27t9 27t12 26t15 22.5t17.5 17.5t20 11t23 2.5zM726 343l21.5 63t18.5 65t12.5 67t3.5 67q0 8 -1 17.5t-3 19.5t-5 19.5t-7 18.5t-8.5 16.5t-10.5 13t-13 7.5t-15 1q-21 -3 -34.5 -17t-20 -35.5t-7.5 -49
t2.5 -57.5t10.5 -61t16 -59.5t19.5 -53t20.5 -42.5z" />
    <glyph glyph-name="J" unicode="J" horiz-adv-x="819" 
d="M1109 738q3 1 7 -0.5t7.5 -4t5.5 -6t2 -7.5q-2 -9 -13 -18.5t-28 -18t-39 -14.5t-45 -8q-35 -30 -65.5 -69t-58.5 -83.5t-53.5 -92l-50.5 -94.5l-53.5 -94.5t-57.5 -90t-62.5 -82.5t-69.5 -70q3 -4 8 -9.5t12 -12.5l15 -14.5l16 -15l15 -14t13 -11.5l9.5 -8t3.5 -4
q2 -2 1 -3l-2 -2q-1 0 -2 -1t-2 -1q-4 0 -9.5 3.5t-12.5 9t-14.5 12.5l-15.5 14.5l-15.5 15l-13.5 14l-10.5 11.5t-6.5 7q-28 -24 -58.5 -43t-64 -32t-70 -20.5t-76.5 -7.5q-19 0 -39 3t-39.5 9t-37 15.5t-33.5 23.5t-28.5 31.5t-21.5 39t-14 48.5t-4 59q0 10 1 21l2 22.5
t3.5 23t6 22t8 20t10.5 16t14 10.5t18 4q7 0 14 -4t12.5 -10t8.5 -13.5t1 -14.5q-2 -9 -8 -17.5t-13.5 -15t-17 -11.5t-18.5 -7q-8 -3 -13.5 -6.5t-8.5 -8t-3.5 -9.5t-0.5 -10q2 -26 9.5 -49t19.5 -41.5t27 -33.5t33 -27.5t38 -21.5t40.5 -15t41.5 -9t42 -4q30 -1 58.5 5.5
t55 17.5t50 25t43.5 29q-15 13 -29 30.5t-26.5 37t-23.5 40.5t-20.5 44t-16.5 46.5t-12 47.5t-7.5 47.5t-2.5 46.5q0 36 4.5 66t13 56t20 47t26.5 39t32 32t36.5 25t41.5 19.5t45 15t47.5 11t49.5 8t51 6t52 4t52 3.5l51 4t49 4.5t47 6.5q15 8 31 18l31.5 19.5t30 16.5
t24.5 7zM980 663q-44 -12 -92.5 -21t-97 -19t-96 -22.5t-90 -30t-79 -41.5t-63.5 -58.5t-43 -81t-17 -107.5q-1 -35 8.5 -73t26.5 -75t38.5 -70.5t44.5 -60.5q29 22 58.5 58t58 80.5t57.5 95.5l57.5 102.5l57.5 102t57.5 93.5t57 76.5t56.5 51.5z" />
    <glyph glyph-name="K" unicode="K" horiz-adv-x="1251" 
d="M1326 727q15 1 32.5 -3.5t32.5 -13.5t25.5 -21.5t11.5 -27.5q0 -10 -5 -19.5t-12.5 -17t-17 -12t-18.5 -4.5q-5 0 -10 3t-9 8t-6.5 11t-3.5 11q-1 6 2 12t7 12t6.5 11.5t0.5 11.5q-3 6 -7.5 10t-10.5 6.5t-12.5 4t-12.5 1.5q-22 0 -46 -13.5t-50 -36t-54.5 -52
l-58.5 -61.5l-63 -64t-67.5 -60t-71 -49t-74.5 -32q25 -19 41 -37t25 -35.5t12 -35.5t3 -39q1 -24 -0.5 -48t-5.5 -46q-5 -24 1 -41.5t19 -29t30.5 -16.5t35.5 -2q37 4 67.5 20.5t53 42t36 57.5t17.5 67q1 16 -4 34t-15 33.5t-24 26t-30 12.5q-12 1 -23.5 -4t-22.5 -12.5
t-22 -16t-22 -15.5q-2 -1 -3 -2.5t-2.5 -3t-3 -2.5t-3.5 -1q-1 0 -2.5 2t-2.5 5t-1 5.5t1 3.5q15 11 30 24t30.5 24t32 17t34.5 3q19 -3 38 -14t33.5 -27t23.5 -35.5t8 -38.5q0 -19 -5.5 -38.5t-15.5 -38.5t-23.5 -37.5t-30.5 -34.5t-37 -29.5t-42.5 -23t-46.5 -14.5t-50 -4
q-24 1 -48 9t-43 25.5t-30 44t-9 63.5q0 12 1 24t2.5 24.5t2 24.5t0.5 23q0 14 -2 28.5t-7 28.5t-12.5 26.5t-18.5 21.5q43 22 79 50t68.5 58.5t61 62.5l57 62.5t57 57.5t59.5 47.5t65.5 33.5t74.5 15zM645 722q11 0 20 -5t16.5 -14t13 -20.5l11.5 -24l12 -24.5t13 -22.5
t15.5 -17.5t19.5 -9q7 -2 15 -0.5t17.5 5.5l20.5 9t22.5 11.5l23 13.5t23.5 13.5l23.5 12.5l21.5 11q20 21 44 40t51 32q3 1 6.5 -0.5t6 -5t4 -7t1.5 -7.5q0 -5 -3.5 -10t-9 -9t-13 -8t-16 -7.5l-17 -7l-17.5 -7.5l-17 -7.5t-15 -7.5q-11 -8 -23.5 -21.5t-26.5 -30.5
t-28.5 -37l-29.5 -42.5l-29.5 -46l-28.5 -47.5t-26 -47l-23 -45q-9 -18 -22.5 -42.5t-31.5 -51.5t-40.5 -55t-50 -55t-59.5 -50.5t-69 -41t-79 -27.5t-89 -10q-32 0 -59 4.5t-49 13.5t-39.5 21.5t-31 28t-23 33t-16 36.5t-10 38.5t-4.5 39.5q-1 22 3.5 42t13.5 35.5t20.5 25
t24.5 10.5q7 0 14 -2.5t13 -7.5t9.5 -11t2.5 -12q-3 -10 -8.5 -18.5t-13 -15.5t-17 -12.5t-19.5 -7.5q-5 -1 -11 -3.5t-10.5 -6t-7 -8t-0.5 -8.5q7 -23 18.5 -43.5t26 -38t32 -32.5t36.5 -27t40 -20.5t42.5 -14t43 -7.5t42.5 0q34 3 64.5 11.5t56.5 21.5t49 30t43 37t38 42
t33.5 46t29.5 48.5l28 49.5l41.5 78l44.5 79t49.5 75t56.5 67q-14 -11 -33 -21.5t-41 -18.5t-44.5 -13t-44.5 -5q-16 0 -28 5.5t-20 14t-13.5 19.5t-9.5 23t-7 23t-7.5 20.5t-10 15.5t-13.5 7q-10 1 -22 -5t-24.5 -17t-26 -26.5t-26.5 -34t-25.5 -39.5t-23 -43t-19 -44
t-14.5 -42q0 -3 -3 -5.5t-5 -1.5q-3 1 -4.5 4.5t-0.5 5.5q1 13 7 31.5t16 41t23 46.5t29 47.5t34 44.5t38 37t41.5 26t43.5 10z" />
    <glyph glyph-name="L" unicode="L" horiz-adv-x="906" 
d="M625 740q8 0 16 0.5t16 -0.5q3 -1 7 -3t5 -5q0 -3 -3 -5.5t-5 -2.5q-5 -1 -10 -1t-9.5 0.5t-9.5 0.5h-9q-24 -3 -43 -10t-35 -16t-28.5 -21t-22 -25.5t-16 -28t-11 -30t-6.5 -31t-2 -29.5q-1 -19 3 -39.5t11 -39.5t17.5 -36.5t22.5 -31.5l25.5 48t30 52.5l35 54
t40.5 52.5t46.5 47t53 38.5t61 27t68.5 12.5q26 1 52.5 -6t48.5 -23.5t37 -43t18 -64.5q2 -27 -4.5 -53t-20 -51t-33.5 -47.5t-44.5 -41.5t-52 -35t-57.5 -26.5t-60.5 -16t-59.5 -4.5q-24 1 -44 3t-39.5 6.5t-39.5 11t-43 15.5l-27.5 -43l-27.5 -45l-29 -45.5t-32 -44
t-36 -41t-41.5 -36t-48 -29.5t-55.5 -21l96.5 -27.5t98 -27.5t99.5 -22t101 -11q25 0 49 3t45.5 9.5t41 17t34.5 23.5t26 30t16.5 37t5 43t-7.5 49q-1 4 -0.5 8.5t4.5 5.5q3 1 7 -1.5t5 -6.5q3 -9 3.5 -19.5t2.5 -20.5q2 -12 1.5 -29t-5.5 -36.5t-14 -40t-23.5 -39
t-34.5 -36t-46.5 -30t-59 -20t-72.5 -7.5q-27 0 -53.5 4.5t-53 11.5t-52.5 16.5t-52 20t-51 22.5l-49.5 23l-49 21l-47.5 19l-34 -11.5t-34 -9.5t-34 -5t-35 0q-10 1 -21 4t-20.5 8.5t-16.5 13.5t-11 18q-2 6 2.5 11.5t11.5 9.5t16 6.5t16 2.5q20 0 39 -3t38.5 -7.5
t39.5 -10t41 -9.5q25 1 49 9t46.5 22t43 33t39.5 42t36 48.5t32.5 52.5t29.5 55t26 55q-13 11 -29 28t-30 39.5t-24 50t-11 59.5q-1 18 2 36.5t10 36t18 34t25.5 30.5t32 25.5t38 20t44 13t50.5 5.5zM865 699q-31 0 -58.5 -9t-52 -25.5t-46.5 -38.5t-41.5 -48t-37 -53.5
t-32.5 -55.5l-28 -54l-24 -49q15 -9 33 -18t37 -16t38.5 -11t37.5 -3q45 3 81 12t64 22.5t48 30t34.5 35.5t24 39.5t15.5 41t9.5 40.5t5.5 38q4 32 -5 55t-25 38t-37 22t-41 7z" />
    <glyph glyph-name="M" unicode="M" horiz-adv-x="1312" 
d="M713 730q17 0 33 -2.5t31 -7.5t28.5 -13t25.5 -19.5t21.5 -27.5t16.5 -36.5t11 -46t5 -57.5q1 -43 -4.5 -87t-14.5 -87.5t-21 -85l-24 -80.5l56 99.5t61 96t66 89t71 80t77 68t83 53t89.5 35.5t97.5 15q20 1 40 -1.5t39 -7.5t36 -13t32 -17.5t27.5 -20.5t21 -23t13 -24.5
t4.5 -25.5v-5t-0.5 -5.5t-1.5 -4t-3 -1.5q-2 -1 -3.5 0.5t-2.5 3.5t-2 4.5t-1 4.5q-3 18 -9 31t-14 23t-17 17.5t-20 12t-22 7.5t-23 4.5t-23.5 2.5t-22.5 1q-52 2 -103 -12t-100 -41t-96 -63.5t-90.5 -79t-82.5 -89t-73 -92t-62 -89t-49 -79.5q-6 -15 -11 -30.5l-10 -30.5
t-11 -30t-14 -29q-3 -5 -7 -9.5t-9.5 -8.5t-11 -6t-11.5 -2q-4 0 -8 2.5t-7 6t-4.5 8.5t-1.5 9q3 20 11.5 37t20.5 32t25.5 28l25.5 25q20 45 33 92.5t22 95.5t14.5 94l10.5 89q-18 -59 -45 -112.5t-60 -101t-71 -88t-79.5 -73.5t-84.5 -59t-86.5 -43t-85.5 -25.5t-82 -7.5
q-31 0 -58.5 5.5t-51 15.5t-42.5 23.5t-34.5 30t-26.5 35.5t-18.5 39.5t-11.5 41.5t-4 43q-1 32 6 61t19.5 54.5t30 47t38 39t43 30.5t45 21.5t44.5 12.5t42 3q15 -1 30 -4t30 -8t29.5 -12t26.5 -16.5t22.5 -22t17.5 -27.5t10.5 -33.5t3.5 -40.5q-1 -25 -9.5 -50.5
t-23.5 -48t-36.5 -40.5t-50.5 -29q-4 -1 -10 -1.5t-10 1.5q-1 1 -1 2.5t1 3t2 2.5l2 2q22 8 38 21.5t27 30.5t17 36.5t6 39.5q0 17 -4.5 33t-12 30t-17.5 26.5t-22 23t-26 19t-29 14.5t-30 9.5t-29 3.5q-35 1 -67 -12.5t-57 -38.5t-40.5 -59t-16.5 -74q-1 -21 3.5 -43.5
t14 -44.5t24 -42.5t32.5 -39t40 -33.5t46.5 -25.5t52.5 -16.5t57 -6q45 1 88.5 14t84.5 36.5t78.5 55.5t70 70.5t59.5 82t47 89t32 92.5t15 92q1 12 -0.5 25t-4 26t-7.5 26t-11.5 24.5t-15.5 21t-19.5 16.5t-23.5 10.5t-28 2.5q-16 -1 -32 -4t-31 -8t-29 -13t-26.5 -18.5
t-23 -24.5t-18 -32t-12 -39.5t-5.5 -47.5q0 -16 5 -34t15 -33.5t24.5 -25.5t33.5 -10q16 0 30.5 6.5t27.5 16.5t24.5 23.5t20.5 26.5q2 2 2.5 4.5t1.5 4.5t2.5 3.5t3.5 1.5t4.5 -1.5t4 -3.5t2.5 -4t0 -5q-9 -18 -24.5 -37t-34.5 -33.5t-40 -23t-43 -7.5q-20 2 -40.5 9.5
t-36.5 21.5t-25.5 35.5t-9.5 51.5q0 19 4.5 38t13.5 38t22 37t29 33.5t35 28.5t40.5 22t45 14t48.5 5zM1335 571q6 1 12.5 -2t12 -8t9 -11.5t3.5 -13.5q-1 -7 -4.5 -14t-9.5 -12.5t-13 -9.5t-15 -5q-10 -1 -19.5 3t-19 9.5t-19 9.5t-19.5 4q-15 -1 -33 -11.5t-36.5 -28.5
t-37 -42t-35.5 -52t-31.5 -59.5t-25.5 -64t-18 -64.5t-7 -62q0 -9 1 -18.5t3 -19.5t5 -19.5t7 -18t9.5 -16.5t12 -13.5t14 -8.5t15.5 -3q13 1 25 4.5t23.5 9.5t22 14.5l21 17.5t20 19.5l19 20.5l19 19.5t19.5 18.5q1 1 3.5 1t3.5 -1q1 -2 1 -5t-1 -5q-9 -11 -19 -22
t-21.5 -22.5t-24.5 -23t-26.5 -21.5t-28.5 -19t-30.5 -15.5t-31 -10.5t-31.5 -4q-13 -1 -24.5 1.5t-21 8.5t-17 14.5t-13.5 18t-10 20.5t-6.5 22.5t-3.5 22.5t-1 21q0 30 9 63.5t24 68.5t36.5 70t47.5 68t55.5 62t62.5 52.5t67.5 39.5t70.5 22z" />
    <glyph glyph-name="N" unicode="N" horiz-adv-x="1216" 
d="M686 734q13 1 27 0t29 -3.5t30 -7t29.5 -10t28.5 -12.5t26 -14.5t22.5 -16.5t18.5 -18q3 17 5.5 34.5t8.5 33.5q1 5 6 9t10 3q2 0 5 -1t5.5 -3t4 -4.5t0.5 -5.5q-1 -11 -4 -21.5t-6.5 -21.5t-7.5 -21.5t-7 -21.5q24 -32 38.5 -66t23 -69t12.5 -70t7 -68q2 -23 0.5 -45.5
t-5 -45l-7 -45t-6.5 -44.5q26 69 61 131.5t77.5 118.5t90.5 104.5t100 88.5q15 12 33.5 24.5t38.5 24t40 21.5l37 18q3 1 4.5 1t3.5 -2q3 -2 2 -4.5t-3 -4t-3 -2t2 0.5q-79 -49 -149 -104.5t-131 -122t-111.5 -146.5t-90.5 -177l-4 -32l-4 -32.5t-5 -32.5t-9 -31
q-1 -5 -4.5 -10.5t-8 -9.5t-10 -7t-10.5 -4q-4 0 -8 2t-7 5.5t-4.5 7.5t-0.5 8q4 19 11 37t15.5 36l17 35.5t15.5 35.5q1 11 2.5 21.5l3 21.5t2.5 21.5t0 21.5q-1 39 -6 78t-15 77.5t-24.5 77t-35.5 77.5q-21 -53 -46.5 -104.5t-55 -100t-63 -93.5t-71 -83.5t-78 -70
t-84.5 -54t-91 -35t-97 -12.5q-21 0 -43.5 2t-44 8t-42 16t-38.5 24t-32.5 33t-24.5 43.5t-15.5 54.5t-3.5 66q0 10 1 20.5t2.5 22t4 22.5t6.5 21.5t9 19.5t11.5 16t14.5 11t18 5q6 0 12 -3t10.5 -8.5t7 -12t2.5 -12.5q0 -10 -2 -17t-6 -11.5t-9.5 -7.5t-11 -5.5t-11.5 -4
t-12 -4t-11 -5.5t-9 -7q-7 -9 -10.5 -21.5t-3.5 -24.5q0 -22 7.5 -42.5t20 -39.5t29.5 -36t37.5 -31.5t43 -26t46 -19.5t47 -12t44.5 -3q47 2 90.5 15.5t83.5 37t76.5 56t69.5 71.5t62 83t55 90.5t48 95.5t41 97q-24 27 -52 51t-58.5 41.5t-63.5 27t-67 7.5q-32 -1 -58 -7
t-47 -15.5t-38 -23t-29.5 -29.5t-21.5 -34.5t-15.5 -38t-10 -39.5t-5.5 -40q-1 -15 1 -31t8 -32.5t14.5 -32t19.5 -29t23.5 -25t27 -19t30 -10.5t31.5 -1q23 3 42.5 13.5t36.5 26.5t31.5 37t27.5 45q1 3 2.5 7t5.5 5q1 0 2.5 -0.5t3 -2t2 -3t0.5 -2.5q-13 -36 -34.5 -65
t-48 -49.5t-57.5 -32t-63 -11.5q-20 0 -37 4t-32 12t-28 18.5t-23 23t-17.5 26.5t-13 29t-7.5 30.5t-2 30.5q1 38 10 70.5t23.5 59.5t34.5 49.5t43.5 40t50 30.5t54.5 22.5t56.5 15t56.5 7.5z" />
    <glyph glyph-name="O" unicode="O" horiz-adv-x="740" 
d="M682 447q13 22 21.5 47t8.5 50q0 22 -4 41.5t-11 37t-17 32t-22.5 26.5t-26 21.5t-28.5 15.5t-31 9t-32 3q-44 0 -86.5 -14.5t-81.5 -39.5t-73.5 -59t-64 -73.5t-52.5 -83t-39 -87.5t-24 -87t-7 -81q1 -15 2.5 -30.5t4.5 -31t8 -30.5t12 -29t17 -26t23.5 -21t30.5 -15
t38 -7q26 -2 54.5 5t56.5 20.5t56 33t53.5 44t48.5 52.5t42 58t32.5 61t20.5 62q-19 -8 -41 -15.5t-46.5 -12.5t-50.5 -6t-53 4q-2 0 -4 1t-3.5 3t-2.5 4t0 4q1 4 6.5 5t9.5 1q25 -2 50.5 -1.5t50.5 4.5t48 13t44 26q2 14 5 29.5t5.5 31t4.5 30.5t1 29q-2 26 -10 50
t-21.5 42.5t-31.5 29t-39 9.5q-10 0 -22.5 -4t-24.5 -10t-23 -14.5t-20 -19t-15 -22t-8 -23.5t1 -24.5t13 -24.5q2 -2 2 -6t-2 -5q-2 -2 -5 1l-5 5q-8 7 -12.5 15t-6 17t-1.5 18.5t2 19.5q1 7 5.5 15.5t11 16.5t15 16t18.5 14.5t20.5 12.5t21.5 9.5t22 5.5t21 1
q31 -2 56.5 -13.5t44 -35t29 -60.5t10.5 -90zM542 748q17 0 34 -3t34 -9.5t33 -16t30.5 -22t26 -27t20 -31t12.5 -35t3 -38.5q0 -20 -5 -43t-13.5 -45.5t-19.5 -42.5t-23 -34q-8 -33 -22.5 -68t-35 -69.5t-46.5 -68t-55.5 -63.5t-63 -55t-69 -43t-72.5 -27.5t-74 -8.5
q-30 1 -55 6.5t-44.5 16t-34.5 24.5t-26 30.5t-18.5 35t-12 38t-6.5 39.5t-2 39q-1 39 10 82.5t31.5 87.5t49.5 87t64.5 81.5t76.5 72t85.5 58t92 38.5t95.5 14z" />
    <glyph glyph-name="P" unicode="P" horiz-adv-x="1119" 
d="M626 598q-2 1 -3.5 3.5t-2 5t-0.5 4.5t2 4l62.5 46t69 42t78 31t89.5 12q20 1 41.5 -2.5t42.5 -10t41 -16.5t38.5 -23t34 -29t27.5 -35.5t19.5 -41.5t9.5 -47q2 -18 -1 -37t-10.5 -37.5t-19 -35.5t-25.5 -32.5t-31 -28t-35.5 -21t-39 -12.5t-41.5 -2q-19 1 -39 4.5
t-37.5 12.5t-31.5 25.5t-21 45.5q-2 8 1 16t9.5 15.5t15 12.5t16.5 8q6 1 12 -1t11.5 -6t10 -9.5t6.5 -11.5q2 -7 -1 -14.5t-6.5 -14.5t-6 -14.5t-0.5 -14.5q2 -9 8.5 -16t15.5 -12.5t19.5 -8.5t19.5 -3q34 0 58.5 13t41 35t24.5 50.5t8 59.5q0 19 -3.5 38t-11 37t-18 35
t-24.5 31.5t-31 26.5t-37.5 21t-44 13.5t-49.5 4.5q-34 0 -66.5 -8t-63.5 -22.5t-59.5 -35t-53.5 -44.5q-4 -3 -9 -5.5t-9 -0.5zM954 646l-19 -16.5t-20 -18t-18.5 -19.5t-15.5 -21q-21 -33 -39 -66.5l-35.5 -68l-35 -68.5t-36.5 -67q-14 -26 -31 -50t-35.5 -47t-38.5 -45
l-40 -44q-23 -25 -55.5 -47t-69 -39t-76.5 -26.5t-78 -10.5q-17 0 -36.5 2t-39.5 7t-39.5 14t-38 23.5t-34.5 35t-28 47.5t-20 61t-10 77q-1 10 -0.5 21.5t2.5 24t5.5 24.5t8 23t10 20.5t13 17t16 11.5t18.5 4q8 0 16.5 -5t14.5 -12.5t9.5 -16t1.5 -16.5q-2 -10 -7.5 -19
t-14 -15.5t-19 -10t-23.5 -1.5q-11 1 -18 -4t-11 -13t-5.5 -17.5t-1.5 -17.5q1 -22 8.5 -43.5t20.5 -42t30.5 -39t38.5 -34t44 -28t47 -21t48 -12t46 -2.5q25 2 50 7.5t49 15t46.5 21.5t43.5 26q19 13 35.5 28.5t30.5 33t27 36.5t24.5 39l22.5 40l21.5 40.5l21 40l20.5 38.5
l40.5 69.5t43 70.5t47 63.5t52.5 49.5q5 3 10.5 5t9.5 -1q2 0 2 -1.5t-1 -3.5l-2 -4t-3 -3z" />
    <glyph glyph-name="Q" unicode="Q" horiz-adv-x="850" 
d="M625 289q2 -1 2 -3t-1 -5t-3.5 -5.5t-4.5 -3.5q-14 -10 -30.5 -19.5t-34 -16t-35.5 -10.5t-36 -3q-24 1 -44 6.5t-36.5 13.5t-30 19t-24.5 24t-18.5 28t-13 30.5t-8.5 32t-4 32.5q-1 25 4.5 51.5t17.5 53t29 52.5t38.5 49t47.5 42t55 32.5t60.5 20.5t65.5 6
q19 -1 38.5 -4t37.5 -9.5t35.5 -16t32.5 -23t27.5 -30.5t22 -38t15 -46.5t6.5 -55.5q2 -34 -5 -67t-21 -64.5t-33.5 -62t-43 -58.5t-51 -53t-57 -46.5t-59.5 -39t-60 -29.5l50.5 -53l49 -51l48.5 -48.5t49 -43.5t51 -37t53.5 -30t57 -20.5t62.5 -9.5q20 -2 41 4.5t41 18.5
t39 27.5t35 33.5q3 2 5.5 5.5t5.5 3.5q2 -1 2.5 -2t1 -3t0 -3.5t-1.5 -2.5q-19 -30 -47.5 -51.5t-61.5 -35.5t-68 -20.5t-69 -5.5q-30 0 -58 7t-55.5 19t-53.5 29.5t-51 38t-48.5 44.5t-45.5 50.5l-43 53.5t-40 55q-57 -23 -118 -34t-122 -13q-43 -3 -75 7t-54.5 29.5
t-34.5 45.5t-14 54q-1 13 1 26t7.5 25.5t13.5 24t18.5 21.5t23.5 18t27 13.5t30 8.5t33 2q45 -2 84.5 -18t76 -42t71 -59.5t68.5 -70.5q29 11 58.5 28t57.5 37.5t53.5 45t47.5 52t39.5 57t29.5 60.5t18 63t4 64q-3 58 -19.5 99t-41.5 66t-57 36t-67 11q-33 -1 -61 -7.5
t-51.5 -17.5t-42.5 -26.5t-34 -34t-26 -39t-18.5 -42t-11 -43t-4.5 -42.5q0 -16 2 -33t6.5 -34t11.5 -34t16.5 -32t21 -27.5t25.5 -22t30 -15t35 -6.5q23 0 45.5 8t44.5 23q2 2 5 4.5l5.5 4.5t5.5 3t6 -1zM440 59q-24 39 -54 74.5t-64 62t-70 43t-74 17.5q-20 1 -39.5 -5.5
t-34.5 -18.5t-23.5 -29t-7.5 -37q1 -19 7 -35.5t16 -30t23.5 -24t28.5 -18.5t32 -13.5t34 -9t34 -5.5t33 -2q19 0 39 2t40.5 6t40.5 10t39 13z" />
    <glyph glyph-name="R" unicode="R" horiz-adv-x="1047" 
d="M711 733q22 0 41.5 -2t39.5 -5.5t41.5 -10t46.5 -15.5l35 15.5t35 12.5q3 1 7 1t7 -3q2 -2 1.5 -5.5t-3.5 -4.5q-7 -5 -15.5 -9.5t-17 -8t-16 -7l-13.5 -6.5q21 -19 33 -33.5t18.5 -27.5t8.5 -25.5t4 -29.5q2 -13 -0.5 -27t-8 -27t-13 -25t-15.5 -23q-14 -17 -32.5 -31.5
t-39 -27t-41.5 -24t-41 -24t-37.5 -27t-31 -33t-21 -41t-7.5 -51.5q0 -23 4 -43t12 -37t18.5 -31t23 -25t26.5 -19.5t29 -13.5t29.5 -7.5t28.5 -1.5q33 1 56.5 12t38.5 28.5t22.5 39t8.5 43.5q1 20 -6 40.5t-19.5 37.5t-30 27.5t-38.5 10.5q-11 0 -22 -4t-20.5 -10.5
t-18 -14.5t-14.5 -16q-3 -4 -8 -7t-10 -3q-1 0 -2 1t-1.5 3t-0.5 3.5v2.5q9 13 22.5 25.5t30 22t35 15.5t35.5 7q10 0 20.5 -2.5t20 -7.5t19 -11.5t17.5 -15t15 -18.5t12 -20t7.5 -20.5t2.5 -20.5q0 -22 -5.5 -41.5t-15.5 -36.5t-24 -31t-30.5 -25.5t-35 -20t-38 -14.5
t-38.5 -9t-37 -3q-16 -1 -32 2.5t-31.5 10.5t-30 17t-28 22.5t-24 26.5t-18.5 29t-12 31t-4 31q1 37 13 66t32 52t45 42.5t51 37.5l50.5 36.5t44 40t31.5 47.5t13 59q0 18 -4 34t-10.5 29.5t-15 25t-17.5 22.5q-39 -26 -71 -60.5t-60 -73.5t-53 -80.5t-51 -80.5l-46.5 -74.5
t-47.5 -73.5t-53 -69.5t-63 -63.5q22 -15 46.5 -25t49.5 -17t50.5 -12.5t49.5 -11.5l10.5 -2t7.5 -5q1 -1 0 -2.5t-2.5 -2.5t-3.5 -2t-3 -2q-4 -1 -9.5 -1.5t-10.5 0.5q-52 11 -104 27t-106 40q-28 -17 -60.5 -30t-65.5 -22t-64.5 -12.5t-56.5 -3.5q-23 0 -46 4.5t-45 11.5
q-2 1 -4 3t-3.5 4t-2 4t0.5 4q2 2 4.5 2t5 -0.5t5.5 -1.5t5 -2l19 -6.5t20.5 -6.5t21.5 -4t21 1q30 4 59.5 9.5t59 12.5t58 17t54.5 25q-46 24 -77.5 53.5t-50.5 62.5t-27.5 69.5t-8.5 75.5q0 36 10.5 73t29.5 72t46 67.5t61.5 61t75.5 51.5t87 39t96.5 25t104.5 7zM384 99
q19 17 36 36t32 39.5t29 42.5t27 44.5l25.5 45l25.5 45l26.5 44t27.5 41.5l47.5 65.5t48 62t56.5 56t73 46.5q-21 16 -41 25t-40.5 14t-41 7t-41.5 3q-44 1 -84.5 -7t-77.5 -23.5t-69.5 -38t-60 -50t-49 -59t-36.5 -65.5t-23 -69t-8 -71q1 -32 6 -63.5t18 -61t35.5 -57
t58.5 -52.5z" />
    <glyph glyph-name="S" unicode="S" horiz-adv-x="1030" 
d="M971 726q13 1 27.5 -0.5t29.5 -5.5t29 -10t26.5 -14.5t23 -19.5t17.5 -24t10.5 -28.5t2.5 -32.5q-1 -14 -3.5 -27.5t-6.5 -26t-10.5 -24.5t-15 -23t-20 -20t-26 -15.5t-32.5 -10.5t-39 -5q-15 -1 -30 2.5t-28 11t-24 18.5t-18 27q-2 4 -3 10t3 9q1 2 2 1t2.5 -3t2.5 -4.5
t2 -3.5q7 -10 15 -19t18 -16.5t22 -12.5t28 -6q12 0 23 2.5t20.5 7.5t18.5 12.5t16 16.5t12.5 19t9.5 20.5t6 21t1 20.5q0 12 -2.5 24.5t-7.5 24.5t-11.5 23t-15.5 21.5t-19.5 18.5t-23 14t-27 9t-30.5 2q-35 -1 -63 -11t-50.5 -27t-40 -40t-31.5 -50t-24.5 -56.5t-20 -59
t-17.5 -59l-16 -56.5q-28 -87 -66.5 -154.5t-87.5 -113.5t-107.5 -68.5t-124.5 -19.5q-22 1 -43.5 4.5t-42.5 10.5t-41 17.5t-37.5 25t-32 32.5t-24.5 40t-15.5 48.5t-4.5 58.5q1 12 2.5 26t5 28.5t8 29t10 27.5t12.5 24.5t15.5 20t18.5 13.5t21 6q7 0 14 -3.5t12.5 -9
t8.5 -12t2 -13.5q-1 -8 -4.5 -16t-9.5 -14.5t-15 -10t-21 -3.5q-10 0 -19 3l-22 7q-8 -13 -10.5 -27.5t-3.5 -29.5q0 -25 6 -50.5t17.5 -49t27.5 -45t36 -40t42 -33t45.5 -24t47.5 -14t47 -1.5q26 3 49.5 8.5t45 15t40.5 23t36 32t31.5 42t27 52.5t22 65t17.5 78l12.5 68
t16.5 66.5t23 63t31.5 58t43.5 50t57.5 40t74 29t93.5 14.5z" />
    <glyph glyph-name="T" unicode="T" horiz-adv-x="887" 
d="M496 741q25 0 48.5 -3t47.5 -8t49 -12l52.5 -14.5l57.5 -15t64.5 -14.5t73.5 -12.5t84 -8.5q21 2 39.5 9t36 15l34.5 15.5t36 10.5q4 1 8 -0.5t7.5 -4t5.5 -6t2 -7.5q-1 -6 -5 -11.5t-10.5 -10t-15 -8t-18.5 -6t-20 -4t-20.5 -2.5t-20.5 -1.5t-18 -0.5q-21 -15 -40.5 -34
t-38 -40.5t-36.5 -45.5l-35.5 -49.5l-35 -53l-35 -55l-35 -55l-36 -54l-37.5 -52.5t-39 -49.5t-41 -44.5t-43.5 -39t-47 -32t-50.5 -24t-54 -14.5t-58 -3.5q-23 1 -46 4t-45.5 9.5t-43 17.5t-39 26t-33.5 34.5t-25.5 45t-16.5 56.5t-6 69q0 9 0.5 19.5l1 21.5t2.5 21.5
t5.5 20t8.5 18.5t13 16t18.5 12t23.5 8q6 1 13 -1.5t13 -7.5t9.5 -11t2.5 -12q-2 -12 -7.5 -21t-13 -14.5t-16.5 -9t-19 -5.5q-12 -2 -19 -7t-11.5 -11.5t-6.5 -14t-3 -15.5q-3 -16 0.5 -34t12 -37t21.5 -38t31 -36.5t40.5 -33t49 -27t57 -18.5t63.5 -8q27 -1 51 3.5
t47 13.5t43.5 22t40.5 29.5t38.5 36t36 41.5t34 45.5l33 48.5l32.5 50.5l32 51.5l32 51.5l32.5 49.5l33.5 47t35 43.5t37 38.5t39 33q-15 -1 -29 -3l-28.5 -4t-28.5 -3.5t-28 -1.5q-28 0 -55 2t-54 6t-54 8.5t-53.5 10l-53 10.5t-53 9t-53 7t-53.5 4q-23 0 -42.5 -3.5
t-35.5 -11t-29 -18t-22.5 -23t-16.5 -27t-11 -29.5t-5 -30t0 -30q2 -31 9 -57t18 -48.5t25 -40.5t30.5 -32t35.5 -24.5t39 -17.5t41 -11t42 -4q12 -1 25 0.5t27 6t28 12.5t27 20q2 2 4 4.5t3.5 5t3.5 4t5 0.5q2 -1 2.5 -3.5t-0.5 -5.5t-2.5 -6t-3.5 -5q-16 -16 -34.5 -31
t-39 -26t-42.5 -17t-44 -4q-33 2 -59.5 10.5t-48 20.5t-37.5 28t-28 34.5t-20 39t-13.5 42t-8 43t-4.5 43.5q-1 20 1.5 41.5t9 43t17 41.5t25.5 38.5t33.5 34t41.5 26.5t50.5 17.5t58.5 7.5z" />
    <glyph glyph-name="U" unicode="U" horiz-adv-x="974" 
d="M997 715q-23 -7 -47.5 -25t-49 -45t-49 -60t-48 -70t-45.5 -76t-40.5 -76.5t-34 -73t-26.5 -64.5q23 20 50 46l55.5 56l57.5 63.5l55.5 67t50.5 67t42.5 64.5t30 58t15.5 48q0 3 -1.5 7t-4 7.5t-5.5 5t-6 0.5zM409 741q31 0 56 -9.5t42 -26t26.5 -38.5t9.5 -47
q1 -40 -10.5 -78t-31.5 -75t-46 -72.5t-54 -70l-55 -68.5t-48.5 -67t-36 -66t-17.5 -65q0 -12 3.5 -21.5t10.5 -16t15.5 -10t16.5 -2.5q20 4 39 10t37.5 14t36 18l35 21t34 22.5l33.5 23l33.5 22.5t33.5 21q6 41 22.5 86.5t39.5 92t52.5 93t62 88.5t66.5 79t67 65t63 45
t55 20q6 1 12 -3t10.5 -10t7 -13.5t2.5 -14.5q1 -20 -8.5 -46.5t-27 -57.5t-41.5 -65t-52.5 -69t-60.5 -70.5t-64.5 -68l-65 -62t-62.5 -53.5l-4 -23.5l-4 -23t-3.5 -23.5t-1.5 -24q0 -16 2.5 -31t8.5 -27t15 -19t21 -6q27 1 49 11t42 26t39.5 37.5l41.5 46.5q1 2 4 4t6 1
q2 -1 3.5 -4.5t-0.5 -5.5q-20 -25 -43 -49.5t-48.5 -44.5t-53.5 -32t-59 -11q-21 0 -39.5 9.5t-31.5 28t-19 44.5t-3 60l-34.5 -23.5l-35.5 -23.5t-36.5 -23l-36.5 -21.5t-36.5 -19t-37 -15.5t-37 -10.5t-36.5 -4.5q-16 -1 -31.5 3.5t-28 16t-19.5 29.5t-6 44q2 42 17 81
t38.5 75t52 70t57.5 65l25 29l26 30.5t25 32t23 33.5t20.5 33.5t16.5 33t11.5 33t6.5 31.5q2 17 -5 33t-21.5 28.5t-34.5 19.5t-44 7q-3 0 -6.5 1.5t-3.5 4.5q-1 3 2 5.5t6 2.5z" />
    <glyph glyph-name="V" unicode="V" horiz-adv-x="1129" 
d="M543 733q63 0 109 -21t76 -57.5t45 -86.5t16 -110q1 -36 -5 -72.5t-18.5 -72t-31 -69t-43 -64t-54.5 -56.5t-65.5 -46.5t-75.5 -35t-85 -20.5q123 -8 225.5 18.5t184 87t142 157t100.5 228.5q-4 16 -9 31.5t-9.5 31.5t-7.5 32t-1 33q1 12 3.5 27t7.5 28t13.5 22.5
t20.5 10.5q11 1 19.5 -6.5t14 -19.5t8 -26t1.5 -25q-2 -20 -4.5 -40l-5 -40t-6.5 -40.5t-10 -40.5q10 -23 21 -39t25 -28t32.5 -21.5t42.5 -19.5q2 -1 5 -1.5t5.5 -1t4.5 -2t2 -3.5q0 -3 -2 -4.5t-4.5 -3t-5.5 -1.5h-5q-18 5 -34.5 11t-32.5 16t-31 25t-29 38
q-21 -59 -49.5 -111t-63.5 -96.5t-76.5 -81t-88.5 -65.5t-98.5 -50t-106.5 -34.5t-114 -18.5t-120 -3q-53 2 -105.5 8.5t-103.5 20.5q-5 2 -10 6t-8.5 9t-5.5 11t-1 12q1 5 4 10t8 8.5t11 5.5t11 1q13 -1 26.5 -4t26.5 -7t26 -8.5t26 -9.5t26 -9t26 -7t26.5 -4.5t26.5 -1.5
q45 2 83 12.5t70.5 27.5t58.5 40t47 50t36 57.5t25 62t15.5 64.5t6.5 65q0 35 -4 66t-12.5 57.5t-21 48.5t-28 39.5t-33.5 31t-38 23t-41.5 14.5t-44.5 6q-27 1 -48.5 -4.5t-41 -14.5t-37 -20.5t-36.5 -21.5q-2 -2 -4 -3t-4.5 -2.5t-4.5 -1.5t-4 1q-1 2 -1 3.5t1.5 3.5
t3.5 4l3 3q20 17 45 32.5t52.5 26.5t57 18t57.5 7z" />
    <glyph glyph-name="W" unicode="W" horiz-adv-x="917" 
d="M646 708q-29 -8 -52 -27t-42.5 -46.5t-35.5 -62t-30.5 -72t-28.5 -77.5l-28.5 -78.5t-30 -74.5t-34.5 -66l95 109.5l98 107t103.5 102t111.5 93.5q9 8 16.5 16t14.5 17l13.5 17.5l13.5 17t15.5 16.5t18 15t21.5 12.5t26 8.5q4 1 8.5 -1t8 -5t5 -7.5t0.5 -7.5
q-8 -18 -23.5 -31.5t-33.5 -25t-37 -22.5t-35 -23l-42 -104l-40.5 -104l-42.5 -103.5t-47 -100.5q47 60 98.5 116.5t104.5 109l106.5 101l103.5 92.5q13 18 29 35.5t33.5 33.5t36 29t37.5 20q3 1 7 -0.5t7.5 -5t5.5 -8t1 -7.5q-1 -7 -6.5 -15t-14 -16t-19.5 -16.5t-23 -16.5
l-25 -16.5l-25.5 -17l-24.5 -17t-22 -16.5q-17 -13 -39.5 -33.5l-49 -46.5l-56 -56.5l-61 -63l-64.5 -67l-65 -68l-63.5 -65.5l-59.5 -61l-8.5 -17t-9 -19.5t-9.5 -21t-11.5 -21t-14 -20.5t-17 -18t-21 -15.5t-25.5 -11.5q-4 -1 -8 0.5t-7.5 5t-5.5 8t0 6.5q4 11 12 22
t18 21l21.5 20.5l23 21l23 21.5t21.5 23t18.5 24.5t13.5 26.5q8 21 14.5 43t12.5 46l11.5 48l11.5 48l12 47t13 44t15 39.5t17 33.5l-99.5 -101l-97.5 -102.5l-96.5 -103l-97.5 -102.5q-7 -9 -13 -19t-11.5 -21l-11 -21.5l-11 -21t-12.5 -20t-16 -16.5t-19.5 -13t-24.5 -8
q-4 -1 -7.5 1t-6.5 5.5t-4.5 7.5t-1.5 6q2 7 6 14.5t10.5 15.5t15 16.5l17.5 17l19 17.5l20 17.5t19 17t17 17.5l8.5 13l9 13.5t8 13.5t5.5 14q12 38 20.5 74l16.5 71t16.5 68t20.5 65t28.5 62.5t40 59.5t54.5 56.5t73 52.5q-103 -7 -183 -34.5t-136 -73t-87 -108
t-34 -141.5q-1 -14 1.5 -28t5.5 -27.5t7 -27.5t7 -28q0 -3 1.5 -7t-0.5 -7q-1 -2 -4 -1t-4 3q-12 23 -21 45t-14.5 43.5t-8.5 43.5t-4 46q-1 34 7 65.5t24 60t39.5 54t54.5 47t68.5 38.5t81.5 28t93.5 17t103.5 5h35z" />
    <glyph glyph-name="X" unicode="X" horiz-adv-x="990" 
d="M270 204q-3 0 -5.5 4.5t-2.5 8.5q-5 30 -9.5 60.5t-4.5 61.5q-1 48 7 90t22.5 78.5t34.5 67.5t44 55.5t51 42.5t55 30t57 18t56 5t54.5 -6t52 -18t44 -35.5t31.5 -59.5q30 26 65 47t73 36.5t78 24.5t79 12q17 2 35.5 -3t33.5 -16t24.5 -28.5t8.5 -42.5q0 -3 -2 -6
t-5.5 -5.5t-7.5 -3.5t-7 -1q-3 1 -6 3t-5 4.5t-3 6t-1 6.5q4 22 -1 35.5t-15.5 21.5t-24 10.5t-25.5 2.5q-22 0 -43 -3t-41 -8.5t-39.5 -13.5t-38 -17t-36.5 -19.5t-34 -21l-31.5 -21l-29.5 -19.5q8 -25 7.5 -53t-7.5 -58.5t-18.5 -61.5t-26.5 -61.5t-32 -58.5t-34.5 -52
t-33.5 -43.5t-29 -32.5q1 -12 6.5 -25t13.5 -26t19 -25t23.5 -22.5t26 -19t28 -15t28.5 -9.5t28 -3q39 2 72 20.5t57.5 51t39.5 77t19 97.5q0 2 0.5 4.5l1 5t2 4.5t3.5 2t3 -1.5t1.5 -3.5t0.5 -4.5v-4.5q2 -30 -2.5 -58t-14 -53.5t-23 -48t-30.5 -41.5t-37 -34.5t-42 -25.5
t-45 -15.5t-47 -5.5q-29 0 -57.5 7.5t-53.5 24.5t-45.5 41.5t-31.5 58.5q-30 -26 -64.5 -50t-71.5 -42t-76 -27.5t-79 -9.5q-14 1 -28.5 3t-29.5 5.5t-29 9.5t-27 14.5t-23.5 19.5t-18.5 24t-12.5 29t-4.5 34q0 44 22 82t70 68q1 1 3 1t4 -0.5t3.5 -1.5t1.5 -2q1 -4 -2 -8.5
t-6 -5.5q-14 -7 -24 -17t-17 -22.5t-11 -26t-5 -26.5q-1 -17 3 -31t11.5 -26.5t18.5 -23t24 -19t28 -15t30.5 -10.5t31 -6t29.5 -2q33 1 64 7t61.5 17.5t59.5 29.5t58 43q-2 17 -5 34t-3 34q-1 28 4.5 56.5t15 56t22 53t27.5 49.5t31 45t32 39t31.5 32.5l27.5 25.5
q-1 13 -6 25.5t-12.5 24.5t-17.5 22.5t-22.5 19.5t-26 16t-28 11.5t-29.5 7t-30 2.5q-27 -1 -53 -8t-49.5 -19t-45 -29.5t-40 -39.5t-33 -49t-25.5 -58.5t-17.5 -67t-7.5 -74.5q-1 -16 0.5 -32t4 -32t4.5 -31.5t3 -31.5v-4v-4t-1 -3.5t-3 -1.5zM711 544q-31 -26 -55.5 -60.5
t-43 -73t-29 -78.5t-13.5 -78q-1 -8 0 -16.5t2.5 -16.5t3.5 -16t3 -17q15 14 29 30t26 34t23 38t20 40t16 40.5t11.5 40t7 38t2.5 35.5q0 7 0.5 14.5t0 15.5l-1 15.5t-2.5 14.5z" />
    <glyph glyph-name="Y" unicode="Y" horiz-adv-x="1031" 
d="M285 151q-2 -1 -4.5 0t-4.5 3.5l-4 5t-2 5.5q-6 22 -11.5 44.5t-10 45.5t-7.5 45.5t-4 46.5q-2 32 3 66.5t15.5 68.5t26 67t36.5 62.5t46 54t53.5 42t60 27t66.5 8.5q10 0 22 -1.5t23 -4.5t22 -8t20.5 -12t17 -16.5t12.5 -21t6.5 -26t-0.5 -32.5q-4 -35 -14.5 -69
t-25.5 -66.5t-33 -65l-36.5 -64.5l-37 -64t-33.5 -65.5t-26.5 -68t-16.5 -71.5q-1 -11 3 -24t11.5 -24.5t17.5 -18t21 -4.5q33 7 63.5 22t59.5 33.5t56.5 39t54.5 38.5l13 29.5t16.5 36l20.5 41.5l23.5 45.5l26.5 48l29 49.5l30.5 50l32 49.5l33 48t33.5 45l34 41t33 36
t32 29.5t31 22t29.5 13t26.5 4q7 -1 13.5 -5t11.5 -10t8 -13.5t3 -13.5q0 -22 -11 -51.5t-31 -64t-47 -73t-59.5 -77.5t-68.5 -77.5t-74 -73.5t-75.5 -65t-73.5 -53q-54 -91 -107 -161.5t-111 -118.5t-122.5 -72.5t-140.5 -23.5q-46 1 -80.5 9.5t-60.5 22.5t-43 33.5t-28 42
t-16 47.5t-6.5 50t0 51t4.5 49q1 14 7.5 30.5t16 30.5t21 22t23.5 6q6 -1 12.5 -3.5t11.5 -6.5t8 -9t1 -10q-3 -11 -8.5 -22t-13 -20t-17.5 -16t-22 -11q-7 -1 -13.5 -5.5t-11.5 -10.5t-7.5 -12.5t-1.5 -13.5q6 -27 16 -50t24 -42.5t31 -36t36.5 -30t41 -23t43.5 -16.5
t44.5 -10t44.5 -4q31 0 59.5 5.5t54.5 15.5t49.5 25t45.5 34.5t43 42.5t40.5 49t38.5 55l38 61q-15 -7 -29 -15.5l-28 -17.5l-27.5 -18l-27.5 -18t-28 -16.5t-29 -13.5t-30 -9.5t-31 -4.5q-13 -1 -25 2t-22 8.5t-17.5 14t-13.5 18.5t-10.5 21t-7 22.5t-3.5 22.5t0 21
q3 44 15 81.5t29 71t38.5 63.5t44 58l45 55.5t41.5 55t33 56.5t21 61q4 17 -3 31.5t-19.5 25t-28 16t-28.5 4.5q-23 -1 -49 -7.5t-53 -19.5t-54 -31t-51.5 -42t-45.5 -52.5t-36.5 -62t-24 -72t-7.5 -81.5q1 -22 4.5 -43t8.5 -42.5l10 -42.5t8 -43q1 -2 1.5 -5l1 -6t0 -5.5
t-2.5 -3.5zM789 194q33 24 65.5 53t64.5 61.5t62.5 67.5t58 70t52 70l45 67t36 61t24.5 53q2 4 0 8t-5.5 7.5t-8 6t-8.5 2.5q-21 0 -45.5 -16t-51 -43.5t-53.5 -64t-53.5 -78.5l-52.5 -86.5l-49.5 -87.5l-44 -82z" />
    <glyph glyph-name="Z" unicode="Z" horiz-adv-x="860" 
d="M365 553q-2 2 -2.5 5t0 6t2 6t2.5 6q7 15 16 30t19 29.5t21 28t23.5 25.5t26 22t28 17t30 11t31.5 5q20 0 38.5 -4.5t36.5 -13t35 -19.5t33.5 -24l33 -27l33 -27.5t33.5 -26t34 -22.5l26 23.5l26 23.5t27 23.5t29 22t31 20t34 17.5t37.5 13.5t41.5 8.5q18 3 29.5 -1.5
t18 -13.5t8.5 -19.5t1 -20.5t-4.5 -21.5t-10 -23t-16.5 -22.5t-24 -21t-31.5 -18.5t-39 -15t-47 -10t-56.5 -4.5q-22 0 -43.5 2.5t-43.5 4.5q-12 -11 -31.5 -35l-46 -56l-59.5 -70.5l-71 -79t-81.5 -80.5t-91 -76t-98.5 -65.5t-105 -47.5q36 -4 74.5 -15.5t79.5 -26.5
t84 -34.5l87 -39l89.5 -39t91.5 -35t92.5 -27t93.5 -15.5q27 -2 56 3.5t56 17.5t49.5 29t37.5 38q1 1 2.5 3t3.5 3.5t4 2.5t4 0t3 -3t1 -4.5t-0.5 -4.5t-1.5 -4q-7 -11 -19 -24t-27 -26t-33 -25.5t-37.5 -23.5t-40.5 -20.5t-42 -15.5t-42 -8t-41 0q-49 7 -93 21.5t-84.5 34
t-78 43l-74 47l-72.5 46t-73.5 40.5t-76.5 30t-82 16q-22 1 -43.5 -3t-42.5 -9.5t-42.5 -10t-43.5 -4.5q-7 0 -16 2t-16.5 5t-12 8t-1.5 12q4 8 11.5 13t17 8t20 4l20.5 2q14 2 29 0.5t29.5 -3.5l29 -4t29.5 -2q37 6 77 25.5t80.5 48.5t81.5 65.5t81 76.5l78 81.5l73.5 80.5
l67.5 73.5l59 61.5q-23 7 -43 16t-39 19t-37 21l-35.5 21.5l-34.5 20t-35 16.5t-37 11.5t-40 5.5q-10 0 -20 -2.5t-19.5 -8t-18 -12.5t-16.5 -15.5t-15 -18.5l-14 -19.5l-14 -19.5l-13 -19q-1 -2 -2.5 -5.5t-2 -6.5t-2 -4.5t-2.5 0.5zM864 573q10 -2 19.5 -4.5t18.5 -4.5
t17.5 -3.5t17.5 -0.5q15 0 31.5 2.5t32.5 7t32 10.5t30.5 14.5t27 18t22 21t15 24.5t6.5 28q1 11 -2.5 18t-9.5 11t-13 5t-14 1q-30 -2 -59.5 -16t-59 -35t-57.5 -46.5z" />
    <glyph glyph-name="zero" unicode="0" horiz-adv-x="426" 
d="M358 496q15 0 27.5 -6.5t21.5 -19t14.5 -30t5.5 -39.5q0 -28 -7 -60t-20 -65.5t-30.5 -67t-38 -64.5t-44 -58t-47.5 -47t-49 -30.5t-48 -10.5q-12 0 -22 2.5t-18 8.5t-14.5 14t-11.5 17.5t-8.5 20t-5.5 21t-3.5 21t-1.5 20.5q-1 25 6 54t19.5 60t30.5 62t40 60t47 54
t51 43.5t53 29t53 10.5zM356 480q-21 0 -42.5 -12.5t-42.5 -34t-40.5 -50.5t-37 -61.5t-32.5 -67t-25.5 -67.5t-17 -62.5t-6.5 -53.5q0 -8 1.5 -18.5t6 -19.5t12 -15t17.5 -6q21 0 42.5 13.5t43 36t42 52.5t39 63t34 67.5t26.5 67t17 61t5 48.5q-1 30 -12.5 44.5t-29.5 14.5
z" />
    <glyph glyph-name="one" unicode="1" horiz-adv-x="368" 
d="M55 0l266 425l-90 -79q-2 -2 -6.5 -3t-6.5 2t0 7.5t5 7.5l133 125q1 1 2.5 3t3.5 3.5l4 3t4 0.5q2 0 4 -1.5t3.5 -3.5t2 -4.5t-0.5 -4.5l-244 -481h-80z" />
    <glyph glyph-name="two" unicode="2" horiz-adv-x="384" 
d="M310 496q18 0 37.5 -5t35.5 -16.5t26.5 -29.5t9.5 -45q0 -19 -4.5 -36t-12 -31.5t-17.5 -27.5t-22 -24q-20 -18 -40.5 -31.5t-41 -25t-41.5 -21.5l-41 -19.5t-39.5 -20t-37 -22.5t-33.5 -26.5t-30 -33.5q7 8 18 15.5t23.5 13.5t26 9.5t26.5 3.5t22 -4t15 -10.5t10 -14.5
t6.5 -16.5t4.5 -17t5 -15t6.5 -11t8.5 -5.5q6 0 12.5 2t13.5 6.5t14 11.5l15 14.5t15.5 16.5l15 18.5l14.5 18.5t13 18q1 2 3 3t4 1.5t3.5 -0.5t1.5 -3v-3t0.5 -2t0.5 -2.5t-1 -2.5q-3 -6 -8.5 -14.5t-14 -18.5l-19 -21.5t-22 -22l-23.5 -20.5t-24 -17.5t-23 -11t-21 -3.5
q-18 1 -29 4.5t-17 10.5t-9 15.5t-4 17.5t-1.5 17t-2.5 15t-6 11t-12 4q-11 0 -23.5 -5.5t-26.5 -16.5t-30 -28.5t-34 -41.5q-1 -1 -2.5 -0.5l-3 1t-3 2.5t-2.5 4q0 4 2 8t3 8q3 14 11 27.5t19.5 27.5t25 27.5t29 27t32.5 26.5l34 25l34 23l32 21q8 5 18.5 12.5t22 17t24 21
t24.5 24.5t22.5 27t18.5 29t12.5 30t4.5 30q0 17 -6.5 28.5t-16 19t-21.5 11t-24 3.5q-10 0 -22.5 -2.5t-25.5 -7t-25.5 -12t-24.5 -16.5t-22.5 -20t-18 -23.5t-12 -26.5t-4.5 -30q0 -6 -0.5 -10t-1.5 -6t-2.5 -3t-3.5 -2l-4 -2t-4 0t-3 4.5t-1 13.5q1 19 6.5 36.5
t14.5 32.5t21.5 27.5t27 22.5t30.5 17.5t31.5 12.5t30 7.5t27.5 1.5z" />
    <glyph glyph-name="three" unicode="3" horiz-adv-x="357" 
d="M332 496q16 0 32.5 -4.5t30 -14t22.5 -24.5t10 -37q0 -15 -4.5 -28.5t-12 -25.5t-18.5 -23t-24 -20.5t-27.5 -18t-29.5 -16t-30 -14l-29 -12.5q25 1 42 -5.5t27 -18t14.5 -27t3.5 -33.5q0 -17 -5.5 -34t-15 -32.5t-22.5 -30t-28 -26.5t-32 -22t-35 -17.5t-36 -10.5
t-35 -3t-35 3t-33 13t-25 27t-13 43q-1 10 1.5 20.5t8 20t14.5 15.5t21 7q6 1 12 -2.5t10.5 -8.5t7 -11.5t3.5 -12.5q0 -6 -2.5 -10.5t-7 -9l-9 -9l-8.5 -8.5q-2 -3 -5 -4.5l-6 -3t-5.5 -3.5t-3.5 -6q-1 -5 4.5 -12t14.5 -13t19.5 -9.5t18.5 -3.5q20 0 38 6.5t33.5 16.5
t29 23t25 27.5t20 30t15 29.5t9.5 25.5t4 20.5q0 11 -3 19t-9 13t-13 7t-15 3q-9 0 -18.5 -3t-18.5 -7.5t-18 -8.5t-18 -6q-1 0 -2.5 1t-2.5 2.5l-2 3t0 2.5q1 6 5 10t9 6q16 7 33 15.5t33.5 18.5t32.5 21.5t30 23.5t26 25t20.5 26.5t13.5 27t5 27.5q1 14 -5 23.5
t-15.5 15.5t-20.5 8.5t-20 1.5q-10 0 -21 -2t-21.5 -6t-21 -9t-20 -11.5t-18 -14.5t-15 -17.5t-11 -20t-5.5 -21.5q0 -4 -3 -8t-6 -4t-6 3t-3 6q2 15 8 28.5t14.5 25.5t19 22t23 18t26 14t27 10.5t27 6.5t25.5 1z" />
    <glyph glyph-name="four" unicode="4" horiz-adv-x="376" 
d="M126 0q7 13 15 25l16 24t16.5 23.5t16.5 23.5q-10 1 -20.5 3t-20.5 3.5t-20.5 2.5t-20.5 0q-19 -1 -37.5 -5t-38.5 -14q-3 -1 -6 0.5t-4 4.5q-2 1 -1.5 4t2.5 5l63 92.5t61.5 96.5l57 98.5t50.5 99.5h85q-29 -48 -62 -95l-68.5 -93l-72.5 -90.5l-73 -87.5q11 2 21.5 4.5
t20.5 2.5q25 -1 49.5 -5t49.5 -7l39.5 59l39.5 59.5l40.5 58.5t43.5 55q2 4 6 7t8 3q3 1 5.5 -1.5t1.5 -4.5l-62.5 -117.5t-58.5 -118.5q14 2 25 6t21 9.5t19.5 11.5l20.5 13q1 0 2.5 -0.5t2.5 -1.5t2 -2.5t0 -2.5q-8 -15 -21.5 -26t-29 -17.5t-30.5 -9.5t-26 -2l-20 -47
t-19 -47h-89z" />
    <glyph glyph-name="five" unicode="5" horiz-adv-x="366" 
d="M111 -2q-16 0 -33 3t-30.5 12t-23 25t-9.5 41q0 11 2.5 23t8.5 22t16 17t23 7q6 0 12.5 -3.5t11 -9t7.5 -12t3 -12.5q-1 -11 -4 -17.5t-8 -10t-10.5 -5.5l-11.5 -4q-10 -4 -12.5 -9.5t-3.5 -11.5q0 -8 5.5 -15.5t14 -12.5t18 -8t17.5 -3q19 2 36.5 8.5t33.5 17t30.5 24.5
t26.5 30.5t21.5 34t16.5 35.5t11 35t5 33q1 9 -3.5 19t-11.5 18.5t-16.5 13.5t-18.5 5q-16 -1 -31.5 -6.5t-29.5 -14.5t-26.5 -20.5t-24.5 -24.5q-2 -3 -7 -5.5t-8 -0.5q-4 2 -4.5 7.5t1.5 9.5l164 267q31 -13 56 -20t47 -8t43.5 4.5t44.5 17.5l6 -7q-7 -18 -23 -31
t-36.5 -22t-43 -14t-41.5 -6q-18 0 -36 3t-34 9l-92 -145q19 10 39.5 16.5t40.5 8.5t37.5 -5t31 -20.5t22 -33.5t10.5 -43q1 -19 -4 -38.5t-15 -38t-24.5 -35.5t-32 -32t-36.5 -27t-39.5 -20t-40.5 -12t-38 -3z" />
    <glyph glyph-name="six" unicode="6" horiz-adv-x="372" 
d="M411 494q14 0 28.5 -4.5t26.5 -13t20.5 -21t9.5 -29.5q1 -9 -2 -18t-8.5 -16t-13.5 -12t-18 -6q-5 -1 -11 1.5t-11 7t-8 10t-3 10.5q-1 14 6 24t20 19q4 4 1.5 9.5t-8.5 10.5t-14.5 8.5t-14.5 3.5q-22 -1 -43 -9t-40.5 -21t-38 -29.5t-35 -35t-31 -38t-27 -38
t-22.5 -35.5t-17 -30q18 19 31.5 32t25.5 21t24.5 12.5t29.5 5.5q19 0 33.5 -7t24.5 -20t15 -31t5 -40q0 -18 -4.5 -37.5t-13 -38t-19.5 -36.5t-25 -33.5t-30 -29t-33.5 -23.5t-35.5 -15t-37 -6t-35.5 7t-28.5 24.5t-18.5 40.5t-6.5 53q0 24 7.5 53t21 59.5t33 61.5t43.5 60
t52.5 54t60 44t65.5 30t69 11zM263 296q-14 -1 -28 -8.5t-28 -19.5t-26.5 -28t-23.5 -34.5t-20 -38t-15.5 -38.5t-10.5 -36.5t-4 -31.5q0 -8 2 -17t6 -17t11 -12.5t18 -3.5q12 1 25 7.5t26 16.5t26 23.5t25 30t22 34.5t17 38t11.5 41t4.5 41q0 10 -3 19.5t-8 17t-12 12
t-15 4.5z" />
    <glyph glyph-name="seven" unicode="7" horiz-adv-x="336" 
d="M58 0q27 50 62.5 102.5t76.5 103.5t86 100.5l90 94.5q-8 -2 -16 -5.5t-16.5 -6.5t-16.5 -5t-16 -1q-9 1 -18 3.5t-18 6t-17.5 7.5t-17 8.5l-16 8.5l-13.5 7t-10.5 5t-7.5 1q-6 0 -11.5 -3t-9.5 -7t-7.5 -9.5t-6.5 -12l-6 -13t-6.5 -13t-7 -12t-7.5 -10.5q-5 -5 -12 -9.5
t-14 -5.5q-2 0 -5 1t-5 2.5t-3.5 4t-0.5 4.5q5 11 13 22.5t18.5 22.5t22.5 21.5t24.5 20t24.5 17t23 12.5t20 7.5t15 1.5q14 -2 28 -9t27.5 -15.5t26 -15t23.5 -7.5q10 -1 19.5 3.5t18 12t16.5 16.5l15 17q3 3 7.5 6.5t9.5 3.5q2 0 4 -1t4 -2.5t3 -3.5t0 -3l-84.5 -117.5
l-81 -117t-75.5 -118t-68 -121.5h-84z" />
    <glyph glyph-name="eight" unicode="8" horiz-adv-x="349" 
d="M329 498q16 1 32.5 -4t30 -15.5t22.5 -27t9 -38.5q1 -24 -10 -46.5t-30.5 -40.5t-45 -31t-53.5 -19q6 -14 14 -28t14.5 -28t11.5 -29t5 -30q-1 -19 -5.5 -36.5t-12.5 -32.5t-19 -28t-24 -24t-28 -19.5t-30.5 -14t-31.5 -8t-32 -2.5q-28 0 -48 8.5t-33 23t-19.5 32.5
t-6.5 36q-2 24 11.5 46.5t37.5 42.5t55.5 38.5t67.5 35.5q-18 25 -27.5 50t-11.5 52q-1 14 2.5 27t10.5 25.5t17 23.5t21.5 20.5t25 17t27 12.5t27 8t26.5 3zM276 285q24 9 44.5 22t35.5 29.5t23.5 36.5t8.5 43q1 15 -4 27.5t-13.5 21.5t-19 14t-21.5 5q-21 0 -38.5 -9
t-29.5 -23t-19 -30.5t-7 -31.5q1 -14 5 -28t9.5 -27.5t12.5 -26zM218 242q-29 -11 -54.5 -26t-44.5 -34t-30.5 -42t-12.5 -50q-1 -16 4.5 -30.5t15.5 -25.5t24.5 -17.5t32.5 -5.5q33 2 54.5 13t34.5 27.5t18.5 35t6.5 35.5q0 16 -4 32t-11 31.5t-16 30t-18 26.5z" />
    <glyph glyph-name="nine" unicode="9" horiz-adv-x="387" 
d="M70 -5q-14 0 -28.5 3.5t-26.5 12.5t-20 21.5t-9 29.5q-1 8 2 17t8 16.5t13 12.5t18 6q5 0 11 -2.5t11 -6.5t8 -9.5t4 -11.5q0 -13 -7 -23t-19 -20q-5 -3 -2.5 -8.5t9 -11t14.5 -9t14 -2.5q22 1 43 9t40.5 20.5t38 29.5t35 35.5t31 38t27 38t22.5 35t17 29.5l-31.5 -31
t-25.5 -21.5t-24.5 -12.5t-29.5 -5q-18 -1 -33 6t-25 20t-15 31.5t-5 40.5q0 18 4.5 37t13 38t19.5 36.5t25 33.5t30 29.5t33.5 23t35.5 15.5t37 7q19 0 35.5 -8.5t28.5 -25t18.5 -40t6.5 -52.5q0 -24 -7 -53t-21 -59.5t-33.5 -62t-43.5 -60t-52.5 -54t-60 -44t-65.5 -29
t-69 -10.5zM218 192q14 1 28 8t28 19.5t26.5 28.5t23.5 34.5t20 38t15.5 38.5t10.5 36.5t4 31.5q0 8 -2 17t-6 16.5t-11 12.5t-17 4q-12 -2 -25.5 -8t-26.5 -16t-26 -23.5t-25 -30t-22 -35t-17 -38t-11.5 -40.5t-4.5 -42q0 -10 3 -19t8 -16.5t12 -12t15 -4.5z" />
    <glyph glyph-name="exclam" unicode="!" horiz-adv-x="342" 
d="M50 73q5 0 10 -2.5t9.5 -7t7 -10t2.5 -10.5q0 -6 -3 -14.5t-8 -16t-13 -11.5t-18 -4q-6 0 -11.5 2.5t-10 7t-7 9.5t-1.5 11q1 7 5 15t9.5 14.5t13 11t15.5 5.5zM79 104q-3 1 -3.5 5.5t0.5 7.5l95.5 185.5l98.5 183.5q2 4 6.5 7.5t9.5 4.5q15 3 30.5 4.5t31.5 0.5
q1 0 3 -1t4 -2.5t2.5 -3.5t-0.5 -3l-128 -194.5l-133 -191.5q-3 -3 -8.5 -4t-8.5 1z" />
    <glyph glyph-name="quotedbl" unicode="&#x22;" horiz-adv-x="313" 
d="M111 731q6 0 12 -3t11 -8t7.5 -11.5t1.5 -12.5q-7 -32 -16 -64l-18.5 -64t-20 -64l-20.5 -64q0 -2 -3 -4t-5 -2q-3 1 -5 4.5t-2 6.5l2 61l2 60t3 61.5t6 63.5q0 8 4.5 14.5t11 12t14 9t15.5 4.5zM273 731q6 0 12 -3t11 -8t7.5 -11.5t1.5 -12.5q-7 -32 -16 -64l-18.5 -64
t-20 -64l-20.5 -64q0 -2 -3 -4t-5 -2q-3 1 -5 4.5t-2 6.5l2 61l2 60t3 61.5t6 63.5q0 8 4.5 14.5t11 12t14 9t15.5 4.5z" />
    <glyph glyph-name="numbersign" unicode="#" horiz-adv-x="727" 
d="M450 727l-91 -248h152l86 248q1 3 3 5t5.5 3t6.5 1.5t6 0.5h9.5t10.5 -1t7.5 -3t1.5 -6l-89 -250h158q3 0 5 -1.5t3.5 -4.5t2 -5.5t-0.5 -5.5t-3 -6.5t-4.5 -6.5t-5.5 -5t-7 -2h-162l-52 -154h172q3 0 4.5 -2.5t2.5 -5.5t1 -7t-1 -7t-3.5 -6l-5 -6t-5.5 -4.5t-7 -1.5
h-173l-87 -246q-2 -3 -5 -5t-6.5 -3t-8 -1.5t-7.5 -0.5t-7.5 0.5t-8 2t-5.5 3.5t-1 4l86 246h-147l-89 -246q-1 -3 -4.5 -5.5t-7.5 -3.5t-8.5 -1.5t-7.5 -0.5t-6.5 0.5t-6.5 2t-5 4t-1 4.5l89 248h-170q-2 0 -4 2t-2.5 4.5t-0.5 6t1 5.5q1 3 3 7t4.5 7t5.5 4.5t7 1.5h168
l54 154h-182q-3 0 -4.5 2.5t-2.5 6.5t-0.5 8t0.5 7q1 3 3 6t4.5 5t5.5 3.5t6 1.5h185l86 247q1 3 4 4.5t6.5 2.5t7.5 1h7h8t9 -1t6.5 -2.5t1.5 -4.5zM348 440l-56 -154h151l54 154h-149z" />
    <glyph glyph-name="dollar" unicode="$" horiz-adv-x="407" 
d="M302 483h13.5t12.5 -1l42 75l14 -7l-38 -71q13 -3 24 -11t19 -19t12 -23.5t3 -24.5q-1 -14 -6 -29t-14.5 -27.5t-22.5 -20.5t-30 -9q-8 -1 -15 2.5t-12.5 10t-9 15t-3.5 18.5q0 4 2 8t5.5 7t7.5 5.5t8 3.5q3 1 6 0.5t5.5 -2.5t5 -4.5t3.5 -4.5q2 -5 3.5 -10t3.5 -9t5 -6
t7 -1q8 2 14.5 8t10.5 14.5t6.5 18t2.5 18.5q1 9 -2 18t-9 16t-15.5 13t-22.5 9l-98 -185l11.5 -28t10 -28t8 -28.5t4.5 -29.5q0 -11 -3 -25t-9.5 -28t-15.5 -28t-21 -26.5t-26 -23t-30 -16.5t-34 -8t-37 2l-39 -71l-16 6l38 68q-20 5 -34 14.5t-23.5 21.5t-14 26t-4.5 29
q-1 22 6.5 40.5t20.5 31.5t30 20t33 6q9 0 18.5 -4t17 -11t12.5 -16t5 -21q1 -5 -2 -10t-7.5 -8.5t-10 -6t-10.5 -2.5q-6 0 -10.5 3.5t-9 8t-8.5 9.5t-8 9q-2 3 -4 6.5t-3.5 6.5t-4 5.5t-5.5 2.5q-9 -2 -17.5 -9.5t-14.5 -18t-9.5 -22.5t-1.5 -23q2 -12 6 -24t12 -22
t19.5 -17t28.5 -9l109 204l-12 25t-10.5 26.5t-8 28t-3.5 28.5q-1 12 1 24.5t6.5 25t11.5 24.5t16 22.5t20 19.5t24.5 15t28.5 9t31 1zM319 467q-24 2 -43.5 -5t-33.5 -19t-21 -29t-8 -35q0 -10 1.5 -20t4.5 -20t6.5 -20t6.5 -20zM204 214l-100 -190q31 -3 53 5.5t36.5 25
t21.5 39t8 46.5q1 19 -4.5 37t-14.5 37z" />
    <glyph glyph-name="ampersand" unicode="&#x26;" horiz-adv-x="574" 
d="M480 577q15 0 29 -6.5t25.5 -17.5t19.5 -26t9 -33q1 -15 -3.5 -29t-13 -27t-21 -24t-27 -21t-30.5 -19t-32 -16.5t-32 -13.5t-31 -11q9 -27 18.5 -52.5t20 -50l21 -48.5l21.5 -48l41 51.5l40 50.5q4 5 6 4t5 -3t3 -5.5t-3 -7.5l-42 -54l-43 -55q3 -12 7 -24.5t7.5 -25
t6.5 -25t5 -25.5q1 -2 0.5 -4t-1.5 -4t-2.5 -3.5t-3.5 -2.5q-1 0 -2.5 1.5t-2 3t-1 4t-1.5 3.5q-6 23 -11 45.5t-13 44.5q-19 -23 -41.5 -43.5t-47 -35.5t-51.5 -22.5t-56 -6.5q-12 1 -24.5 2.5t-25 4.5t-24 8t-21.5 12t-18.5 17t-15 23t-9.5 29t-3 36q0 41 18 75.5t50 62
t76 48t97 32.5q-2 16 -3 31.5l-2 31.5q-2 17 0.5 33.5t7 32t12 29t17 25.5t21 21t23.5 15.5t25 9.5t26 3zM358 326q-50 -18 -85.5 -41.5t-58.5 -51t-34.5 -58.5t-12.5 -66q-1 -18 6 -36.5t20 -34t29.5 -25t35.5 -8.5q27 1 52 10t48.5 24t45 34.5t40.5 40.5q-10 21 -21 47
l-22 54l-22 56.5zM369 350q34 8 65.5 22t56.5 33t40 43t15 51q0 18 -7 30t-17.5 19t-22.5 10t-22 3q-8 1 -17.5 -1t-19 -7t-19 -12.5t-18 -17t-16 -21.5t-13.5 -26t-9 -30t-4 -33q0 -7 1 -15l2 -16.5t2.5 -16.5t2.5 -15z" />
    <glyph glyph-name="quotesingle" unicode="'" horiz-adv-x="151" 
d="M111 731q6 0 12 -3t11 -8t7.5 -11.5t1.5 -12.5q-7 -32 -16 -64l-18.5 -64t-20 -64l-20.5 -64q0 -2 -3 -4t-5 -2q-3 1 -5 4.5t-2 6.5l2 61l2 60t3 61.5t6 63.5q0 8 4.5 14.5t11 12t14 9t15.5 4.5z" />
    <glyph glyph-name="parenleft" unicode="(" horiz-adv-x="564" 
d="M47 67q1 48 13.5 98t35.5 99.5t55 98t71.5 94t85 87t95 78t102 67t105.5 53.5q5 1 10 2.5t9 -0.5q2 -1 2 -2.5t-0.5 -3t-1.5 -3t-2 -2.5q-51 -23 -100.5 -56t-96.5 -73.5t-89.5 -87.5t-79.5 -97t-67 -102.5t-51.5 -105t-33 -103t-11.5 -96.5q0 -20 2.5 -42.5t8.5 -43.5
t15 -40.5t22 -35.5q3 -3 5.5 -8.5t0.5 -10.5q-1 -1 -2.5 -2t-4 -1t-4.5 1t-3 2q-20 24 -37 52t-29 58.5t-18.5 62t-6.5 63.5z" />
    <glyph glyph-name="parenright" unicode=")" horiz-adv-x="357" 
d="M340 506q-1 -49 -13.5 -99t-35.5 -99.5t-55 -97.5t-71.5 -93.5t-85 -87t-94.5 -78t-101.5 -67t-106.5 -52.5q-4 -2 -9 -3t-10 1q-1 0 -1 1.5v3.5t1 3.5t3 1.5q50 23 100 56t96 73t89 87t80 97.5t67 103t51.5 104.5t33 102.5t11.5 97.5q0 21 -2.5 43t-8.5 43t-15.5 40.5
t-21.5 35.5q-3 4 -5.5 9t-0.5 10q0 2 2 2.5t4.5 0.5t4.5 -1t3 -2q20 -24 36.5 -52t29 -58.5t19 -62.5t6.5 -63z" />
    <glyph glyph-name="asterisk" unicode="*" horiz-adv-x="512" 
d="M336 579l-101 -64q-4 -2 -9.5 -4.5t-10.5 -2.5t-9.5 2.5t-7.5 8.5q-2 4 -2 9t2.5 10t7.5 9t13 7l111 40l-93 46q-4 2 -7.5 5t-5.5 7t-1.5 9.5t5.5 12.5q3 5 7.5 8t9.5 4t10.5 -0.5t11.5 -6.5l74 -70l9 109q0 5 1.5 10t4.5 10t8.5 8t12.5 3q5 0 9.5 -1.5t7 -5.5t3 -10
t-2.5 -14l-36 -109l99 70q9 6 15.5 8t11 0.5t7 -5t3.5 -7.5q2 -7 1 -12.5t-4.5 -10t-8.5 -7.5t-9 -5l-109 -46l97 -40q9 -4 13 -8.5t4 -9t-2.5 -9t-5.5 -8.5q-5 -6 -10.5 -8.5t-10.5 -2.5t-9.5 2t-7.5 5l-79 64l-2 -110q-1 -10 -3.5 -16.5t-6.5 -9.5t-9 -3.5t-9 -0.5
q-8 0 -12 3t-5.5 7.5t-1 10t1.5 9.5l14.5 55.5z" />
    <glyph glyph-name="plus" unicode="+" horiz-adv-x="334" 
d="M216 419v-98h103l-7 -45h-96v-99h-45v100h-102l7 44h95v98h45z" />
    <glyph glyph-name="comma" unicode="," horiz-adv-x="180" 
d="M62 14q-1 27 10.5 42t30.5 15q5 0 10.5 -1.5t10 -5t7.5 -9.5t3 -15q0 -13 -5 -26.5t-14.5 -25.5t-22 -24t-26.5 -22t-29 -18.5t-28 -15t-25.5 -9.5t-21.5 -4q-2 0 -5.5 2t-3.5 5q0 4 2.5 7t5.5 3q31 8 50.5 18.5t30.5 23.5t15.5 28t4.5 32z" />
    <glyph glyph-name="hyphen" unicode="-" horiz-adv-x="329" 
d="M63 126l8 45h243l-8 -45h-243z" />
    <glyph glyph-name="period" unicode="." horiz-adv-x="153" 
d="M93 71q5 0 10.5 -2.5t10 -7t7 -9.5t1.5 -10q-1 -8 -4 -16t-8 -15t-12.5 -11t-16.5 -4q-6 0 -11.5 2t-9.5 6.5t-6.5 9.5t-1.5 10q1 8 4 16t8 14.5t12 11t17 5.5z" />
    <glyph glyph-name="slash" unicode="/" horiz-adv-x="372" 
d="M364 564l-375 -649h-53l375 649h53z" />
    <glyph glyph-name="colon" unicode=":" horiz-adv-x="236" 
d="M60 71q5 0 10.5 -2.5t10 -7t7 -9.5t1.5 -10q-1 -8 -4 -16t-8 -15t-12.5 -11t-16.5 -4q-6 0 -11.5 2t-10 6.5t-6.5 9.5t-1 10q1 8 4 16t8 14.5t12 11t17 5.5zM178 273q5 0 10.5 -2.5t10 -7t7 -9.5t1.5 -11q-1 -7 -4 -15t-8 -15t-12 -11.5t-17 -4.5q-6 0 -11.5 2.5
t-9.5 6.5t-6.5 9.5t-1.5 10.5q1 8 4 16t8 14.5t12.5 11t16.5 5.5z" />
    <glyph glyph-name="semicolon" unicode=";" horiz-adv-x="246" 
d="M178 273q5 0 10.5 -2.5t10 -7t7 -9.5t1.5 -11q-1 -7 -4 -15t-8 -15t-12 -11.5t-17 -4.5q-6 0 -11.5 2.5t-9.5 6.5t-6.5 9.5t-1.5 10.5q1 8 4 16t8 14.5t12.5 11t16.5 5.5zM19 14q-1 27 10.5 42t30.5 15q5 0 10.5 -1.5t10 -5t7.5 -9.5t3 -15q1 -13 -4.5 -26.5t-15 -25.5
t-22 -24t-26.5 -22t-28 -18.5t-28 -15t-26.5 -9.5t-20.5 -4q-3 0 -6.5 2t-3.5 5q0 4 2.5 7t5.5 3q31 8 51 18.5t31 23.5t15 28t4 32z" />
    <glyph glyph-name="less" unicode="&#x3c;" horiz-adv-x="757" 
d="M130 290v28l591 250v-44l-513 -218l513 -218v-46z" />
    <glyph glyph-name="equal" unicode="=" horiz-adv-x="555" 
d="M123 194l7 45h399l-8 -45h-398zM123 373l7 45h399l-8 -45h-398z" />
    <glyph glyph-name="greater" unicode="&#x3e;" horiz-adv-x="757" 
d="M721 290l-591 -248v46l513 218l-513 218v44l591 -250v-28z" />
    <glyph glyph-name="question" unicode="?" horiz-adv-x="375" 
d="M281 509q17 0 33.5 -4.5t29.5 -15.5t22 -29t10 -45t-8 -48.5t-25 -39.5t-37.5 -33.5t-45 -30.5l-47.5 -30.5t-46 -33.5t-39.5 -39.5t-28.5 -47.5q-2 -4 -6.5 -7t-8.5 -2q-2 1 -2.5 2.5t-0.5 3.5t0.5 4.5t0.5 3.5q10 25 25 47t33.5 42.5t39 39.5l40.5 38t38 38t32.5 40
t24 43.5t11.5 48.5q1 11 -3.5 19t-11.5 13t-16 7.5t-17 1.5q-16 0 -33.5 -6.5t-33 -16.5t-25.5 -22t-11 -24q0 -2 1.5 -3.5t4 -3t5 -2.5t3.5 -3q3 -3 7.5 -6.5t8.5 -7.5t6 -8t2 -9q-1 -6 -4.5 -12t-8.5 -11t-10.5 -8.5t-12.5 -3.5q-8 0 -15 4.5t-11 11.5t-6.5 15t-2.5 15
q0 12 3.5 23t9.5 21t14 19.5t18 17.5t21.5 14.5t23.5 11t24.5 7t24.5 1.5zM60 71q5 0 10 -1.5t9 -5t6.5 -9t3.5 -13.5q0 -6 -2.5 -14t-8 -15t-13 -12t-17.5 -5q-6 -1 -11.5 1.5t-9.5 6.5t-6.5 9.5t-2.5 11.5q0 7 3.5 15.5t9 15t13.5 11t16 4.5z" />
    <glyph glyph-name="at" unicode="@" horiz-adv-x="813" 
d="M519 425q-18 -2 -33 -11t-28 -22t-24 -29.5t-19.5 -35t-14.5 -37t-10 -35.5t-5 -32t0 -26q1 -4 3.5 -11t7 -12.5t10 -8.5t11.5 -2q16 3 31 13t28.5 24t25.5 31t21.5 35.5t17 37t12.5 35t7 29.5t0 21q-1 6 -5.5 12.5t-10.5 12t-13 9t-12 2.5zM507 439q10 2 23 -0.5t24 -11
t17 -22.5t3 -35l34 69h66l-15 -35.5t-17.5 -37.5l-19 -38l-18 -37l-16 -35t-12.5 -31.5t-7.5 -26.5t-1.5 -21q1 -5 3 -8t4 -4t4.5 -1.5t4.5 -0.5q13 -1 28.5 1t31.5 7.5t32 14t31 20.5t28.5 27.5t23.5 35t17 43t9 50.5l-0.5 10.5t-3.5 27t-10 38t-19 43.5t-31 42.5t-46 36
t-63.5 24.5t-84.5 7q-7 0 -24.5 -1t-41 -5.5t-51 -13t-55.5 -24t-53.5 -39t-45 -57.5t-31 -79.5t-10.5 -104.5q1 -40 10.5 -73t25 -59t36 -45.5t43.5 -34t47.5 -24.5t47.5 -16t44.5 -9t37.5 -4q25 0 53.5 5.5t57.5 15t56 22t49 24.5q5 3 8 5l3 2q4 2 8 2t5.5 -2t-1.5 -6
t-12 -9q-41 -27 -78 -41.5t-67.5 -20.5t-54 -7t-36.5 -1q-49 0 -89 8.5t-72 24t-56 36t-41.5 43.5t-29 47.5t-18 48.5t-9 45.5t-1.5 38.5q2 61 18 108t40 81t54.5 57.5t62.5 38t63 22.5t56.5 11.5t42.5 3.5h22q48 -1 84.5 -11.5t63.5 -27.5t45.5 -39t30.5 -44.5t18.5 -44
t9.5 -38t3.5 -27l0.5 -10.5q-2 -28 -8 -53t-16 -46t-23 -38t-28.5 -31t-32.5 -23.5t-35.5 -16t-38 -9t-39.5 -0.5q-9 0 -17.5 4t-15 10.5t-10.5 15.5t-6 20q-1 10 -1 19.5t-1 18.5q-9 -14 -20.5 -30t-26 -29t-31 -21.5t-35.5 -8.5q-16 0 -30 9t-24.5 23.5t-16.5 32.5t-6 36
q0 9 3.5 21t9.5 26t14.5 29t19.5 29.5t25 28.5t29.5 25.5t33.5 20t38 13.5z" />
    <glyph glyph-name="bracketleft" unicode="[" horiz-adv-x="290" 
d="M332 747l-5 -28l-168 -1l-134 -762h167l-5 -29h-209l143 820h211z" />
    <glyph glyph-name="backslash" unicode="\" horiz-adv-x="382" 
d="M-64 564h53l375 -649h-52z" />
    <glyph glyph-name="bracketright" unicode="]" horiz-adv-x="348" 
d="M122 747h210l-145 -820h-209l5 29h167l134 762l-167 1z" />
    <glyph glyph-name="asciicircum" unicode="^" horiz-adv-x="841" 
d="M203 451l299 299l299 -299h-47l-246 204l-262 -204h-43z" />
    <glyph glyph-name="underscore" unicode="_" horiz-adv-x="535" 
d="M0 -200h510v-38h-510v38z" />
    <glyph glyph-name="braceleft" unicode="{" horiz-adv-x="417" 
d="M497 739q-31 0 -53.5 -5.5t-38.5 -14t-26 -20t-17 -25t-10.5 -29t-6.5 -31t-5.5 -31t-6.5 -29.5q-5 -18 -9 -36.5l-8 -36.5t-9 -35.5t-13 -34t-20 -31t-30 -26t-43 -21t-58 -15.5q23 -6 41 -12t31 -12.5t21.5 -13.5t14.5 -14.5t9 -15t4 -15.5t1.5 -17t0.5 -19
q0 -23 -4 -49.5t-8.5 -53.5t-8.5 -54.5t-6 -50.5q-1 -20 3 -35.5t16.5 -26.5t34.5 -17t56 -7l-4 -25q-50 0 -82 7t-50.5 20t-26 32t-8.5 44q-2 21 1.5 49.5t9 59.5l11.5 62.5t8 61.5q3 24 -6 40.5t-26 27.5t-40.5 16t-49.5 6l4 25q32 0 56.5 6.5t43 18t31.5 26.5t21.5 33
t14 38t8.5 41t5 41.5l4 39.5q4 48 21.5 85t46 61t68 34.5t89.5 5.5z" />
    <glyph glyph-name="braceright" unicode="}" horiz-adv-x="446" 
d="M162 739l6 22q51 5 87 -5.5t56 -34.5t24 -61t-8 -85l-10.5 -39.5t-9.5 -41.5t-5.5 -41t0.5 -38t9.5 -33t22 -26.5t37 -18t54.5 -6.5l-5 -25q-27 -1 -52 -6t-46 -16t-35.5 -27.5t-20.5 -40.5q-8 -30 -13.5 -61.5l-11 -62.5t-12 -59.5t-15.5 -49.5q-10 -25 -24.5 -44
t-37.5 -32t-57 -20t-85 -7l5 25q35 1 59 7t40.5 17t26 26.5t15.5 35.5q7 23 12 50.5l10 54.5t11 53.5t14 49.5q3 10 6.5 19t7.5 17t10 15.5t14 15t19 14.5t26.5 13.5t35.5 12.5t45 12q-31 6 -52.5 15.5t-35 21t-20.5 26t-9.5 31t-1.5 34t3.5 35.5l5 36.5t3.5 36.5
q1 14 4 29.5t5.5 31t4.5 31t0 29t-8.5 25t-19 20t-33.5 14t-51 5.5z" />
    <glyph glyph-name="asciitilde" unicode="~" horiz-adv-x="532" 
d="M379 291q19 1 36 8.5t33 19t30.5 25.5l28.5 27v-45q-13 -14 -27.5 -27t-30.5 -23.5t-33.5 -17t-36.5 -6.5q-13 0 -25.5 3t-25 8t-25 11.5t-24.5 13.5l-24 13.5t-23.5 11t-23 7.5t-22.5 3q-19 -1 -36.5 -9t-33.5 -20t-30.5 -26l-26.5 -26v45q11 13 25.5 26.5t30.5 24
t34 17t36 6.5q13 1 25.5 -2t25.5 -8.5t25 -11.5t24.5 -13l24.5 -13.5t23.5 -11t23 -7.5t22.5 -3z" />
    <glyph glyph-name="quoteleft" unicode="&#x2018;" horiz-adv-x="391" 
d="M263 615q1 -27 -10.5 -42t-30.5 -15q-5 0 -10.5 1.5t-10 5t-7.5 9.5t-3 15q0 14 5 27t14.5 26t22 24.5t26.5 22t29 18.5t28.5 14.5t26 10t21.5 3.5q2 0 5.5 -2t3.5 -5t-2.5 -6t-5.5 -4q-31 -8 -51 -18.5t-31 -23t-15.5 -28t-4.5 -33.5z" />
    <glyph glyph-name="quoteright" unicode="&#x2019;" horiz-adv-x="354" 
d="M265 678q0 27 11.5 42t29.5 15q6 0 11.5 -1.5t10 -5t7.5 -9t3 -15.5q0 -13 -5 -26.5t-14.5 -26t-22 -24.5t-26.5 -22t-29 -18.5t-29 -14.5t-26 -9.5t-21 -4.5q-3 0 -6 2.5t-4 5.5q0 3 3 6t6 3q31 9 50.5 19t31 23t15.5 28t4 33z" />
    <glyph glyph-name="quotedblleft" unicode="&#x201c;" horiz-adv-x="491" 
d="M261 615q0 -27 -11.5 -42t-30.5 -15q-5 0 -10.5 1.5t-10 5t-7.5 9.5t-3 15q0 13 5 26.5t14.5 26t22 24.5t26.5 22t29 18.5t28.5 14.5t26 9.5t21.5 4.5q3 0 6 -2t3 -5q1 -4 -2 -6.5t-6 -3.5q-31 -8 -51 -18.5t-31 -23.5t-15.5 -28t-3.5 -33zM385 615q0 -27 -11.5 -42
t-29.5 -15q-6 0 -11.5 1.5t-10 5t-7 9.5t-3.5 15q0 13 5.5 26.5t14.5 26t21.5 24.5t26.5 22t29 18.5t29 14.5t26 9.5t21 4.5q3 0 6.5 -2t3.5 -5q0 -4 -3 -6.5t-6 -3.5q-31 -8 -50.5 -18.5t-31 -23.5t-15.5 -28t-4 -33z" />
    <glyph glyph-name="quotedblright" unicode="&#x201d;" horiz-adv-x="473" 
d="M378 678q0 27 11.5 42t29.5 15q6 0 11.5 -1.5t10 -5t7.5 -9.5t3 -15q0 -13 -5 -26.5t-14.5 -26t-22 -24.5t-26.5 -22t-29 -18.5t-29 -15t-26 -10t-21 -3.5q-3 0 -6 2t-4 5q0 4 3 6.5t6 3.5q31 8 50.5 18.5t31 23.5t15.5 28t4 33zM254 678q0 27 11 42t30 15q5 0 10.5 -1.5
t10 -5t7.5 -9.5t3 -15q1 -13 -4.5 -26.5t-14.5 -26t-22 -24.5t-27 -22t-28.5 -18.5t-28.5 -15t-26 -10t-21 -3.5q-3 0 -6.5 2t-3.5 5q0 4 3 6.5t5 3.5q32 8 51.5 18.5t31 23.5t15.5 28t4 33z" />
    <glyph glyph-name="bullet" unicode="&#x2022;" horiz-adv-x="444" 
d="M267 204q-24 0 -43.5 14t-31 38t-15.5 56t2 68q7 36 22 68t35.5 56t44.5 38t48 14q25 0 44 -14t31 -38t15.5 -56t-2.5 -68t-21 -68t-35.5 -56t-44.5 -38t-49 -14z" />
    <glyph glyph-name="agrave" unicode="&#xe0;" horiz-adv-x="637" 
d="M8 232h101q13 0 24 -4t20 -10.5t16.5 -16t12.5 -20.5q8 -17 11 -31.5t2.5 -29t-4 -28.5t-9.5 -30q-8 -26 -27.5 -41t-46.5 -16h-25h-25h-24.5h-25.5v227zM39 206v-175q16 0 31.5 -2t29 -1t25 6.5t20.5 20.5q10 15 16 34t5.5 38.5t-8 37.5t-22.5 29q-11 8 -22.5 10.5
t-23.5 3t-24.5 -0.5t-26.5 -1zM394 163l-5 15.5t-5.5 11.5t-9.5 8t-18 7q-9 3 -18 5t-18.5 1t-18 -4.5t-17.5 -10.5q-8 -5 -14 -13t-10.5 -18t-7.5 -20.5t-4 -22t0 -22.5t4 -21.5t8.5 -19.5t13.5 -15q11 -11 24.5 -16.5t28 -5t28 6t24.5 16.5q6 6 9.5 12t6 12t3 13.5
t0.5 16.5h-70v26h98v-120h-19l-8 29q-4 -5 -9 -10t-10 -9t-10.5 -7t-13.5 -4q-8 -2 -15 -3t-14 -1t-14.5 0.5t-15.5 1.5q-19 3 -33 11.5t-25 24.5q-10 18 -15 37.5t-5 40.5q0 24 6.5 44.5t21.5 39.5q10 12 19 19t19.5 11t22 5.5t26.5 1.5q13 -1 25 -3.5t22 -8t18.5 -14.5
t14.5 -21q3 -6 5.5 -13.5t2.5 -13.5h-14h-14zM491 232v-200h116v-27h-146v227h30z" />
    <glyph glyph-name="percent" unicode="%" horiz-adv-x="522" 
d="M34 259q-7 4 -13.5 13.5t-11.5 22t-7 27.5t0 33q3 17 8.5 35.5t13 36.5t16 34t15.5 27q7 12 17.5 25.5t24 27t28 25t30.5 18.5q15 8 30.5 11t29 3t24.5 -2.5t18 -6.5q6 -5 12 -13t10 -19.5t6 -25.5t2 -29q-1 -30 -12 -63t-29 -65q-8 -16 -21 -33.5t-28.5 -33t-32 -28.5
t-33.5 -20q-16 -8 -31 -10.5t-27 -2t-22 4t-17 8.5zM43 269q8 -7 18.5 -7t22 5t24 14t24 20t22.5 23.5t20.5 24.5t16.5 22.5l12 17.5q3 6 9 15.5l13.5 21.5t15 26t14 28t10.5 28t5 26.5t-2.5 23t-13.5 16.5q-10 7 -22 7.5t-24 -4t-24 -13.5t-23.5 -20.5t-22.5 -24t-20 -25
l-16.5 -23.5t-12.5 -19l-10.5 -17.5t-13 -23l-13 -26t-12 -27t-9 -27t-4 -25t3 -21.5t12.5 -16zM244 19q-6 4 -12.5 13t-11.5 21.5t-7 28t0 32.5t8 36t13.5 36.5t15.5 33.5t16 28q7 12 17.5 25.5t23.5 26.5t28 24.5t30 19.5q16 7 31 10.5t28.5 3.5t24.5 -3t18 -7t12.5 -12.5
t9.5 -19.5t6.5 -25t1.5 -29q0 -31 -11 -64t-29 -65q-9 -16 -22 -33t-28 -32.5t-32 -28.5t-33 -20q-17 -8 -31.5 -10.5t-27 -2t-22.5 4t-17 8.5zM253 29q9 -7 19.5 -7t22 5t23.5 14t24 20t23 23.5t20 24.5l16.5 22.5t11.5 17.5l10 15.5l13 21.5l15 25.5t14 28t10.5 28.5
t5.5 26.5t-3 22.5t-13 17q-11 7 -22.5 7.5t-23.5 -4.5t-24 -14t-24 -20t-22.5 -24l-20 -25t-16.5 -23l-12 -19l-10.5 -17.5t-13 -23l-13.5 -26t-12 -27.5t-8.5 -27t-4 -25t3 -21.5t11.5 -15.5zM414 614q1 3 2.5 4.5t4 3t4.5 1.5t4 -1t3 -3t1 -4.5t-1 -5t-2 -4.5l-344 -622
q-4 -9 -9 -11t-8 0t-3.5 7t3.5 12z" />
  </font>
</defs>
</svg>
