<?xml version="1.0" standalone="no"?>
<!DOCTYPE svg PUBLIC "-//W3C//DTD SVG 1.1//EN" "http://www.w3.org/Graphics/SVG/1.1/DTD/svg11.dtd" >
<svg>
<metadata>
Created by FontForge 20120731 at Tue Sep 20 08:46:58 2016
 By www-data
Copyright (c) 2016 by Letterhend Studio. All rights reserved.
</metadata>
<defs>
<font id="Kadisoka-Script" horiz-adv-x="833" >
  <font-face 
    font-family="Kadisoka Script"
    font-weight="400"
    font-stretch="squinchy"
    units-per-em="1000"
    panose-1="0 0 0 0 0 0 0 0 0 0"
    ascent="800"
    descent="-200"
    x-height="518.5"
    cap-height="739.5"
    bbox="-321 -270.154 1079 760"
    underline-thickness="50"
    underline-position="-50"
    unicode-range="U+0023-007A"
  />
    <missing-glyph />
    <glyph glyph-name="B" unicode="B" horiz-adv-x="483" 
d="M617 697l0.5 -30t-12 -79.5t-46.5 -114.5t-103 -135q-32 -32 -60.5 -53.5t-52.5 -35.5q14 -8 31 -23t28.5 -38t14 -55.5t-13.5 -75.5q-21 -59 -52.5 -98t-68.5 -61.5t-78 -31.5t-81 -9q-53 0 -92.5 24.5t-67.5 53.5q-33 34 -56 79q5 3 10 4q11 2 18 -4q3 -2 9.5 -14
t18 -27t29.5 -30.5t42.5 -25t56 -11t72.5 12.5q39 13 69 38.5t51.5 56.5t33.5 65t13.5 64.5t-7 53.5t-27.5 33q-41 -12 -66 -5t-37 15q-36 -64 -55.5 -113t-28.5 -84q-11 -40 -13 -71q-24 4 -35 7.5t-16 6.5q-9 4 -20 13t-17.5 30t-5 57t19.5 95q9 29 27 68.5t42 84.5
t51.5 92.5t55.5 92.5q64 106 141 220l4 2q33 -4 47 -22q6 -8 8.5 -20.5t-2 -30.5t-16.5 -42t-35 -55q-57 -78 -102.5 -156t-80.5 -149q70 130 143 218.5t132 143.5q70 64 135 102q6 1 14 -3.5t15 -11.5t12 -12.5t4 -5.5zM218 282q55 17 98.5 47t76 66.5t56 75.5t39.5 74.5
t24.5 64t12.5 44.5l-38 -38q-10 -10 -18 -20q-88 -90 -148.5 -168t-102.5 -146z" />
    <glyph glyph-name="C" unicode="C" horiz-adv-x="702" 
d="M300 244q-35 -87 -42.5 -170.5t30.5 -151.5h2q19 -27 51.5 -27t69.5 17t73 46t63 61q30 36 42.5 66t15.5 52q4 26 -2 46q11 4 21.5 2t17.5 -9t10 -20t0 -32q-2 -11 -14.5 -42.5t-39 -69.5t-67.5 -75t-100 -60q-56 -21 -98.5 -19t-73 15t-49 30.5t-26.5 28.5
q-8 9 -14.5 20t-12.5 25q-20 53 -13.5 125.5t30.5 150.5q-11 3 -22.5 7t-23.5 9q-50 22 -78.5 56.5t-40 75t-9 83.5t15 81.5t32 68.5t42.5 46q31 21 58.5 20.5t48.5 -9.5q25 -11 45 -30q-4 3 -19 -2.5t-35 -19t-41 -35t-37 -50t-24.5 -64t-2.5 -77.5q7 -50 34 -81.5
t69 -43.5q22 61 51 117.5t61 103.5q20 29 52 65t70.5 69.5t81.5 59.5t84 33.5t77.5 -8t63.5 -63.5q7 -8 8 -16q5 -18 -7 -50t-49 -86t-81 -100.5t-92 -82t-100 -58t-106 -28.5zM587 655q-20 -15 -53 -49.5t-70 -82.5t-74 -106.5t-67 -121.5q46 14 94.5 43t97.5 75
q65 60 99 108t48 82.5t14.5 55.5t-0.5 28q-17 2 -39.5 -4.5t-49.5 -27.5z" />
    <glyph glyph-name="D" unicode="D" horiz-adv-x="574" 
d="M616 698q13 -94 -5 -204q-8 -47 -22.5 -102t-40 -116t-63.5 -127.5t-91 -136.5q-50 -66 -97.5 -100.5t-91 -46.5t-83 -5.5t-72.5 23.5q-78 39 -144 132q5 4 9 7q4 2 9 1.5t12 -5.5q5 -3 12 -14.5t19 -26.5t28.5 -30t39 -25.5t52 -13.5t67.5 6t80.5 49t84.5 100
t80.5 135.5t67.5 155t45.5 158t14.5 146.5l-20.5 -20.5t-18.5 -19.5q-11 -11 -20 -21q-69 -71 -122 -136t-92 -122.5t-66 -107t-45 -89.5q-41 -96 -48 -169q-24 4 -35 7.5t-16 6.5v-1q-9 5 -20 14t-17.5 30t-5 57t19.5 95q9 29 27 68.5t42 84t51.5 92t55.5 92.5
q64 106 141 220l4 3q33 -3 47 -22q6 -8 8.5 -20.5t-2 -30.5t-16.5 -42t-35 -55q-57 -78 -102.5 -156t-80.5 -150q70 130 143 219t132 144q70 64 135 102v-1h1q4 1 10 -2t12.5 -8t12.5 -11t9 -11z" />
    <glyph glyph-name="E" unicode="E" horiz-adv-x="504" 
d="M591 691q18 -13 24.5 -27t4 -29t-12.5 -31.5t-24 -34.5q-17 -22 -30.5 -44.5t-23.5 -41.5q-11 -22 -21 -44q-37 16 -55 30t-24 27t-3.5 25.5t7.5 26.5q4 13 19 30.5t32 34.5t31.5 30t18.5 16q-3 1 -10.5 0t-20 -6t-32 -16t-46.5 -31q-23 -17 -56 -44.5t-66.5 -60
t-63.5 -67t-46.5 -65t-14.5 -53.5t32 -32q49 42 91 70.5t62 35.5q32 11 53 2t34 -25q14 -18 22 -47q-20 5 -48.5 -4t-66.5 -36t-85.5 -72.5t-105.5 -113.5q-35 -41 -53.5 -71.5t-27 -53t-8.5 -37.5t3 -24q2 -4 8 -8.5t19.5 -4.5t36.5 8.5t59 30.5q42 25 78.5 54t65 56.5
t47 52t22.5 42.5q18 -21 28 -41q8 -18 8.5 -38.5t-16.5 -40.5q-65 -56 -127 -95q-27 -17 -56 -31.5t-57.5 -23.5t-56 -11t-51.5 7h-1q-10 3 -17 9q-38 21 -54.5 49t-15.5 60.5t17 68t41 71.5t57 70.5t66 65.5q-14 10 -33 29t-31 45.5t-10.5 58.5t29.5 69q35 46 80 90.5
t92.5 81.5t94.5 64.5t86 40.5q11 -4 25 -9q11 -5 27 -11.5t33 -16.5q7 -3 14 -8q1 -1 1.5 -1t1.5 -1z" />
    <glyph glyph-name="F" unicode="F" horiz-adv-x="572" 
d="M753 737q38 -9 60 -22t32.5 -28t11.5 -31t-4 -31q-11 -36 -52 -76q-23 57 -55.5 85t-72 36.5t-85 2t-95.5 -18.5q14 -35 -12.5 -105.5t-82.5 -187.5q56 24 80 39t29 20l2 3q3 0 11 -6q7 -5 18 -17t29 -36q-29 -46 -48 -86q-17 -34 -26 -65t3 -42l52 57l5 -24
q-16 -22 -33 -38q-14 -14 -30.5 -23t-30.5 -1q-15 7 -28.5 18.5t-20 30.5t-2.5 47.5t25 70.5q-7 -2 -25.5 -8t-44.5 -13q-7 -16 -14.5 -31.5t-15.5 -32.5q-30 -64 -51.5 -113.5t-35 -87t-21.5 -64.5t-11 -45q-8 -43 2 -56q-46 6 -73.5 21t-35.5 44.5t4.5 77t46.5 119.5
q-20 33 -46.5 69.5t-51.5 68.5q-29 36 -60 72l24 22q5 -1 14.5 -9t21.5 -22q11 -7 28.5 -13.5t42 -9.5t56 -0.5t72.5 13.5q2 5 4.5 8.5t4.5 7.5q36 63 62 112.5t44 87t29 64t17 44.5q-26 -7 -53 -13t-54 -10q-39 -6 -65 -4t-43 9.5t-26 19t-13 25.5q-9 31 6 75
q20 -34 55.5 -44t82 -5.5t101.5 17.5t113 24.5t116.5 16t112.5 -8.5zM178 161q12 23 25 47.5t28 52.5q-35 -5 -68 -4t-59 9q20 -27 39.5 -54.5t34.5 -50.5z" />
    <glyph glyph-name="G" unicode="G" horiz-adv-x="588" 
d="M314 409q33 19 58 45.5t43.5 53.5t30.5 51.5t19 41.5q8 20 6 41t-7 35q-52 -40 -102.5 -100.5t-93.5 -124t-75 -120.5t-47 -90q-10 -21 -21 -51.5t-19.5 -65t-13 -70.5t-3 -67t11 -55t29.5 -34q40 12 78.5 43.5t70.5 68.5t55.5 72t34.5 54q-64 -12 -97.5 -6.5t-48.5 16.5
q-18 13 -19 35q18 -11 38.5 -13.5t41.5 0.5t41.5 11t39.5 18q44 23 87 60q35 -9 52 -22.5t24 -26.5q8 -15 6 -32q-46 -72 -61 -130t-16 -100q-1 -49 14 -88q-20 2 -33 15t-21 27q-10 17 -15 37q-7 32 -4.5 66.5t9.5 64.5q-29 -44 -64 -85t-73 -70.5t-76.5 -44.5t-74.5 -7
q-52 11 -80 48t-36 91t2.5 120.5t36.5 136.5q25 70 59.5 134t73 119.5t78.5 102t78 82.5q28 27 52.5 36t44.5 7q14 1 36 -10.5t43 -32t35.5 -49t12.5 -61.5t-18.5 -70.5t-40.5 -70t-51.5 -55t-51.5 -26.5t-39.5 2.5t-24.5 16.5q-11 11 -15 26z" />
    <glyph glyph-name="H" unicode="H" horiz-adv-x="664" 
d="M631 378q36 2 48 -23.5t4 -93.5q-9 8 -21 15q-11 6 -28 11t-43 7q-8 -17 -16.5 -34.5t-17.5 -35.5q-30 -64 -51.5 -113.5t-35 -87.5t-21.5 -65t-11 -45q-8 -43 2 -56q-57 8 -85.5 29t-26.5 68t36.5 125.5t102.5 200.5q-58 -14 -133 -46q-29 -13 -59.5 -22.5t-59.5 -17.5
q-27 -59 -46 -104.5t-31.5 -80t-19 -59t-9.5 -41.5q-7 -40 3 -52q-51 7 -79 24t-32.5 53t15.5 95t67 149q-38 1 -66 11t-42 30t-11.5 50.5t27.5 72.5q5 -22 21 -40q14 -15 40 -29t72 -17q10 17 19.5 34.5t20.5 36.5q39 68 67 122t47.5 96t31.5 72.5t18 51.5q15 50 9 68
q50 -3 63 -34.5t-2.5 -90.5t-55 -145.5t-93.5 -199.5q28 6 64 15q57 17 104 32.5t85 29.5q37 65 63.5 116.5t44.5 91.5t29.5 69t17.5 50q14 48 9 66q43 -3 58.5 -27t8 -69t-34.5 -110.5t-67 -152.5z" />
    <glyph glyph-name="I" unicode="I" horiz-adv-x="488" 
d="M438 716q75 18 132 23.5t93 -6t49 -40.5t1 -80q-13 9 -34 17q-19 6 -48.5 11.5t-74.5 3.5q5 -24 -4.5 -60.5t-31.5 -88.5t-54.5 -119.5t-72.5 -152.5q-45 -95 -70 -156.5t-36 -99.5q66 14 116 16t81.5 -10.5t42.5 -41t-1 -76.5q-19 14 -52 23q-29 7 -76.5 9t-119.5 -10
q-71 -12 -125 -19.5t-89.5 0t-51.5 34.5t-11 85q12 -13 34 -22q19 -8 51 -12t83 1q-5 22 2.5 54t27 78t51.5 107.5t78 142.5q37 64 63.5 114t44.5 87.5t28.5 64t16.5 44.5q-4 0 -7.5 -0.5t-8.5 -1.5q-71 -12 -125 -19.5t-89.5 -0.5t-51.5 34.5t-11 84.5q17 -18 50 -27
q28 -8 76 -8.5t124 17.5z" />
    <glyph glyph-name="J" unicode="J" horiz-adv-x="580" 
d="M639 387q33 0 53 -12q9 -5 15.5 -13.5t9 -21t-0.5 -30t-14 -40.5q-17 13 -42 23q-21 8 -52.5 13.5t-73.5 2.5q-9 -21 -20 -44t-23 -48q-35 -68 -68.5 -119.5t-65 -89t-60 -63.5t-53.5 -43q-58 -40 -108 -44q-63 1 -92 21t-38 44q-11 28 -3 63q65 -18 125.5 2.5
t113.5 64.5t98.5 105t80.5 125q-26 -10 -55 -23.5t-61 -33.5q-75 -45 -126.5 -87.5t-84.5 -75.5q-39 -39 -63 -73h-6q-7 0 -17 3q49 74 116 142q28 29 63.5 59t76.5 58.5t89 54t102 43.5q23 50 39 93t24 74q12 48 11 80.5t-8.5 53.5t-18.5 31.5t-18 14.5q-7 3 -13 4t-11 1
q-6 0 -11 -2q-42 -13 -78 -34t-66.5 -47.5t-55.5 -55.5t-44 -58q-46 -68 -76 -145q-48 27 -65.5 58t-11 62.5t32 63t62.5 60.5t81 53.5t88 42.5t83 28.5t65 10.5q41 0 66.5 -16t40 -40.5t19.5 -55t6 -58.5q3 -35 -4.5 -81.5t-30.5 -109.5q37 6 78 9z" />
    <glyph glyph-name="K" unicode="K" horiz-adv-x="520" 
d="M644 727q27 14 52 13q21 -1 41.5 -16.5t29.5 -59.5q-19 2 -46 -9q-23 -9 -57 -31.5t-79 -69.5q-35 -36 -85 -97t-106 -135q8 -17 12 -48.5t1 -87.5q-2 -52 7 -92t24.5 -69t35 -49t37 -31.5t31 -16.5t17.5 -4q-37 -35 -73 -52q-16 -7 -33 -10.5t-34.5 -1t-34.5 13.5
t-32 32q-21 28 -32 65t-15.5 76t-4 77.5t2.5 69.5q-32 -45 -61 -91t-53.5 -89.5t-44 -83t-31.5 -73.5q-60 8 -88.5 30t-23.5 73t44.5 137.5t117.5 223.5q39 68 67 122t47.5 96t31.5 72.5t19 51.5q16 50 9 68q52 -3 64 -37t-7 -98.5t-63 -159t-103 -218.5q-39 -82 -62.5 -140
t-37.5 -99q27 52 65 123t82.5 148t93.5 154.5t97.5 143t94 113.5t83.5 66z" />
    <glyph glyph-name="L" unicode="L" horiz-adv-x="504" 
d="M558 -55q26 -6 43 -23q7 -7 12 -17.5t7 -25t-1 -33.5t-13 -43q-39 21 -88 35q-42 12 -102 19t-135 -3q0 -1 1 -2v-1q-2 1 -4 1t-4 1q-60 -9 -127.5 -31t-141.5 -64q-3 7 -4 15q-1 7 -0.5 14t5.5 14q14 20 38 39q20 17 51.5 36t79.5 36q-8 23 -2.5 57t25.5 83.5t54 115.5
t83 153q39 68 67 122t47.5 96t31.5 72.5t18 51.5q15 50 9 68q52 -3 64 -37t-7 -98.5t-63 -159t-103 -218.5q-49 -104 -74.5 -170.5t-36.5 -107.5q54 9 121.5 11t148.5 -6z" />
    <glyph glyph-name="M" unicode="M" horiz-adv-x="960" 
d="M1022 730q34 -13 36 -51.5t-19.5 -102t-62.5 -152t-95 -201.5q-30 -64 -51.5 -113.5t-35 -87t-21.5 -64.5t-11 -45q-8 -43 2 -56q-60 8 -88.5 30.5t-23.5 74.5t45.5 139.5t118.5 224.5q60 106 95 177.5t53 117.5q-44 -35 -102 -95t-119 -151t-119.5 -215.5t-102.5 -287.5
q-39 -16 -71 -11q-14 2 -27.5 9.5t-25 21.5t-19.5 37t-11 57q-3 31 1.5 79t14.5 106t25 121.5t33.5 126t39.5 119.5t43 102q-46 -67 -117 -186t-159 -303q-55 -115 -101.5 -177.5t-84.5 -88.5t-67 -24.5t-48.5 15t-29.5 30.5t-11 21q51 20 106 67q48 39 106.5 109.5
t118.5 183.5q53 100 102.5 177.5t92.5 133.5t78 90t59 46q14 7 18 6.5t7 -2.5q14 -10 25 -21q10 -9 18 -20t10 -21q-49 -107 -87 -218q-16 -48 -31 -101t-26 -108t-16.5 -110.5t-2.5 -107.5q14 41 45 116t85.5 168t134.5 197.5t192 205.5q4 5 18 11t31 7h-1h3q16 2 30 -6z
" />
    <glyph glyph-name="N" unicode="N" horiz-adv-x="780" 
d="M930 710q24 14 50 18q22 2 48 -6.5t51 -42.5q-119 -60 -228 -169q-47 -47 -95.5 -108.5t-94 -140.5t-85 -176t-67.5 -215q-39 -16 -71 -11q-14 2 -27.5 9t-25 21.5t-19.5 37t-11 56.5q-3 31 1.5 79.5t14.5 106t25 121t33.5 126t39.5 119.5t43 102q-46 -66 -117 -185.5
t-159 -303.5q-55 -115 -101.5 -177t-84.5 -88.5t-67 -24.5t-48.5 15.5t-29.5 30.5t-11 21q51 21 106 67q48 39 106.5 109t118.5 183q53 100 102.5 178t92.5 134t78 90t59 46q14 7 18 6t7 -3q14 -10 25 -21q10 -9 18 -20t10 -20q-55 -121 -95 -243q-17 -52 -32 -109.5
t-24.5 -116.5t-12 -117t5.5 -111q7 22 24.5 70.5t45.5 112.5t66 138.5t85.5 148.5t105.5 142.5t126 120.5z" />
    <glyph glyph-name="A" unicode="A" horiz-adv-x="713" 
d="M608 291q55 19 92.5 28.5t59 3t27.5 -34t0 -81.5q-16 15 -42 24q-23 8 -60 10.5t-92 -8.5q-11 -49 -17 -98t-6 -96t7 -90.5t24 -81.5q-43 -13 -76 -8q-14 2 -28 8.5t-25.5 19t-19 32.5t-8.5 50q-2 37 6.5 96.5t25.5 131.5q-9 -4 -18.5 -7.5t-20.5 -8.5q-40 -18 -83 -30
l-2 -4l-2 -4q-39 -83 -75 -137.5t-68.5 -87t-60 -46t-50.5 -14.5q-54 -4 -96 48q34 16 74 46q34 26 78.5 68t92.5 108q-50 -6 -91 0t-64 25t-24 52.5t28 83.5q7 -29 32 -50q20 -18 60.5 -30t110.5 -4q11 17 21.5 35.5t21.5 38.5q53 100 102 178t92 134t77.5 90t58.5 46
q8 5 15.5 3t13.5 -6q11 -8 21 -18q8 -8 16.5 -19.5t13.5 -25.5q-25 -51 -51 -111q-22 -51 -46.5 -117.5t-44.5 -141.5zM416 229q20 6 38.5 11.5t35.5 11.5q23 92 54.5 184t66.5 164q-42 -59 -98.5 -151t-123.5 -227q6 2 13 3.5t14 3.5z" />
    <glyph glyph-name="O" unicode="O" horiz-adv-x="604" 
d="M715 339q-21 -20 -46 -42q-22 -19 -50.5 -42t-60.5 -45q-12 -28 -27 -58t-35 -64q-58 -98 -114.5 -151t-108 -70t-95.5 -2.5t-76.5 52t-52 94t-22 124t14.5 140.5t57 144q64 121 130 192t127 103t112 30.5t85 -25t46 -64t-5 -86.5q-53 44 -116 42q-27 -1 -59 -12
t-67.5 -38t-74 -73.5t-79.5 -116.5q-27 -46 -50 -110.5t-35 -132.5q-8 -55 -1.5 -101t25 -75.5t48 -40t67 4t82 56.5t94.5 118q11 18 21 34.5t18 32.5q-31 -14 -60 -21.5t-55 -3.5v-1q-13 2 -32.5 6t-36.5 15t-27.5 30.5t-4.5 51.5q26 80 65 129.5t75 78.5q42 33 87 49
q28 6 55.5 -2.5t44.5 -35t20 -72.5t-19 -114q27 20 49.5 37.5t39.5 31.5q19 16 35 29zM358 214q-3 -16 0 -30t16.5 -19t41 3.5t74.5 37.5q17 42 24 77t8 64t-3.5 52t-10.5 40q-48 -34 -80.5 -78.5t-51.5 -90.5q-1 -1 -1 -2t-0.5 -1.5t-0.5 -2.5q-10 -24 -16 -50z" />
    <glyph glyph-name="P" unicode="P" horiz-adv-x="468" 
d="M631 693q-1 0 0 -29.5t-12 -79t-46.5 -114.5t-103.5 -135q-53 -54 -95 -79t-74 -32.5t-54 -2.5t-34 12q-41 -81 -63 -149t-32 -119q-12 -59 -13 -107q-19 -1 -30 1t-18 7q-14 8 -29 29t-22.5 58t-2 92t32.5 133q10 29 29 68t43 83.5t52 92t55 92.5q64 106 139 221l3 3
q32 -3 45 -21q6 -8 8 -20.5t-2 -30.5t-15.5 -42t-33.5 -56q-34 -50 -62.5 -98t-52.5 -94q64 97 125.5 163.5t109.5 108.5q56 48 107 78q6 2 14.5 -3t15.5 -11.5t11.5 -12.5zM238 281q54 18 96 48t74.5 66t55 74.5t38 73.5t24 63.5t12.5 44.5l-38 -38q-10 -10 -18 -20
q-84 -81 -143 -159.5t-101 -152.5z" />
    <glyph glyph-name="Q" unicode="Q" horiz-adv-x="576" 
d="M496 88q-40 -68 -75.5 -111t-67.5 -69q20 -42 47 -56t52 -13q29 1 60 16q13 -42 -0.5 -66.5t-35.5 -36.5q-26 -14 -62 -18q-34 0 -60.5 10t-47 27t-35 39.5t-24.5 48.5q-23 -3 -40 -0.5t-28 1.5q-41 -1 -71 19.5t-49 45.5q-23 29 -38 65q-14 31 -19.5 71.5t2 93t30 118
t65.5 146.5q64 121 130 192t127 103t112 30.5t85 -25t46 -64t-5 -86.5q-53 44 -116 42q-27 -1 -59 -12t-67.5 -38t-74 -73.5t-79.5 -116.5q-27 -46 -50 -110.5t-35 -132.5q-7 -52 -1.5 -95t21 -72.5t41 -43.5t58.5 -7q-8 35 -11 69t-3 61q0 32 2 60q7 61 21.5 111t33.5 89
t41.5 68.5t44.5 50.5q52 50 114 72l6 -5q-2 1 -2 2t-1 2l-1 1q24 6 47.5 1t41.5 -23t27 -49t3.5 -78t-29.5 -110t-71 -144zM326 93q-1 -71 8 -121q22 22 45.5 51t48.5 67q43 66 64 121t27 98.5t1.5 76t-13.5 55.5q-54 -37 -88.5 -83t-55 -93t-28.5 -92t-9 -80z" />
    <glyph glyph-name="R" unicode="R" horiz-adv-x="508" 
d="M299 223q10 -73 24 -121t30.5 -76.5t34.5 -41t35 -13.5q40 -4 86 40q13 -29 9.5 -56t-18 -49t-37.5 -36t-48.5 -16.5t-51 8.5t-44.5 40q-26 38 -41.5 87.5t-23.5 96.5t-11 84.5t-3 51.5q-15 4 -27 11q-41 -81 -63 -149.5t-32 -119.5q-12 -59 -13 -107q-18 0 -30 2.5
t-20.5 8t-15 13.5t-13.5 18l-1 1q-10 15 -17 38.5t-8 57t7 78.5t29 103q10 29 29 68.5t43 84t52 92t55 92.5q64 106 139 221l3 2q33 -4 47 -22q6 -8 8.5 -20.5t-2 -30.5t-16.5 -42t-35 -55q-32 -43 -59 -89.5t-51 -95.5q63 96 123 161t108 106q55 48 106 77q6 2 14.5 -3
t15.5 -11.5t11.5 -12.5l4.5 -6q-1 0 0 -29.5t-12 -79t-46.5 -114.5t-103.5 -135q-54 -54 -96.5 -79t-74.5 -33zM483 592q-84 -80 -143 -158.5t-101 -153.5q54 18 96 48t74.5 66t55 74.5t38 74t24 63.5t12.5 44l-38 -38q-10 -10 -18 -20z" />
    <glyph glyph-name="S" unicode="S" horiz-adv-x="472" 
d="M285 421q67 40 114 83q20 18 37 39t27 42.5t11 43.5t-12 43q-13 3 -28.5 -4t-38.5 -30t-57.5 -66.5t-84.5 -113.5q-41 -58 -64 -104t-33 -82t-9.5 -62t5.5 -44q15 7 38 18t49.5 19t53.5 11.5t49 -2.5q2 0 2 -1q5 -1 8.5 -3t7.5 -4q30 -16 44 -38t17 -47t-3 -50.5
t-15.5 -48.5t-20.5 -40.5t-19 -26.5q-18 -21 -47.5 -43t-65.5 -36t-77.5 -14.5t-84.5 22.5q-44 22 -62.5 42.5t-23.5 37.5q-6 19 2 36q24 -27 53 -44.5t60.5 -22.5t63 4t61.5 35q29 26 46 56.5t25.5 57.5t11 47t2.5 26q0 4 -2 6q-14 -6 -35.5 -13.5t-45.5 -14t-48 -10
t-42 0.5q-15 2 -35.5 8.5t-39 20.5t-31 36.5t-12 57t18 82.5t60.5 113q37 56 70 98t61.5 72.5t53.5 50.5t45 33q48 29 83 30q20 0 32.5 -5.5t20.5 -13.5q7 -5 22 -19t27.5 -35.5t19 -50t-4 -63t-42 -74t-93.5 -83.5q-25 -7 -48 -6q-20 1 -41 9.5t-36 33.5z" />
    <glyph glyph-name="T" unicode="T" horiz-adv-x="300" 
d="M391 725q64 15 116 14.5t89.5 -12t59.5 -32t25 -45.5t-14 -51t-57 -49q-2 47 -27 78q-11 13 -27 24t-40 17t-57 5t-76 -12q7 -23 -2 -61t-31.5 -92t-56.5 -124.5t-77 -160.5q-30 -64 -51.5 -113.5t-35 -87t-21.5 -64.5t-11 -45q-8 -43 2 -56q-60 8 -88 31t-23 74.5
t45.5 139t118.5 224.5q36 64 62.5 113.5t45 87.5t30 65.5t17.5 46.5q-76 -21 -144 -25.5t-115 9t-66.5 47t0.5 89.5q40 -28 99 -43q51 -13 127.5 -15.5t182.5 23.5z" />
    <glyph glyph-name="U" unicode="U" horiz-adv-x="620" 
d="M571 297q-40 -77 -63.5 -136t-35 -102.5t-14 -72.5t0 -47t6.5 -26.5t6 -10.5q13 6 28.5 20t31 33.5t30.5 42t29 45.5q33 54 66 118l1 -46q-44 -96 -78.5 -149t-59 -77t-39.5 -28t-19 -3q-44 2 -69.5 19.5t-36 46.5t-7.5 68.5t16 85.5q-18 -23 -40 -51t-49 -61
q-37 -44 -66.5 -66.5t-50.5 -31.5t-33.5 -9h-15.5q-59 8 -86.5 31t-22 75t46 139t117.5 223q39 68 67 122t47.5 96t31.5 72.5t19 51.5q16 50 9 69q52 -3 64 -37t-6.5 -98.5t-62.5 -158.5t-102 -217v1l-3 -6q-22 -47 -39 -85.5t-30 -70.5q-9 -25 -16 -48.5t-9 -42.5t2.5 -31
t16.5 -13q13 -2 32 10t40.5 32.5t44 47.5t44.5 56q51 67 107 153q37 81 83 160.5t86 143.5q47 74 94 142q29 33 57 38.5t50 -1.5q26 -8 49 -29q-36 -33 -79 -87q-37 -46 -86 -119.5t-104 -180.5z" />
    <glyph glyph-name="V" unicode="V" horiz-adv-x="420" 
d="M602 709q23 14 49 18q22 2 48 -6.5t51 -42.5q-118 -59 -225 -166q-46 -46 -94 -107t-93 -139.5t-84 -175.5t-67 -215q-38 -19 -71 -18q-14 0 -29 5t-29 17t-26 32t-20 51q-10 38 -11.5 92t3.5 118t15.5 135.5t23.5 145.5t28 146.5t29 139.5q26 -1 46 -12
q17 -9 30.5 -28.5t11.5 -55.5q-28 -127 -44 -250q-7 -53 -11.5 -109.5t-5.5 -112t3.5 -108t15.5 -95.5q5 16 21.5 62.5t43.5 110.5t65.5 140.5t87 153.5t108.5 148.5t130 125.5z" />
    <glyph glyph-name="W" unicode="W" horiz-adv-x="680" 
d="M843 709q24 14 50 18q22 2 48 -6.5t51 -42.5q-118 -59 -225 -166q-46 -46 -94 -107t-93 -139.5t-84 -175.5t-67 -215q-39 -18 -73 -18q-15 0 -30 4t-28.5 14t-24.5 27t-18 43q-9 33 -8.5 78t7.5 95.5t18 102t23 98.5q-32 -54 -54 -101.5t-36 -88.5t-20.5 -76t-8.5 -63
q-5 -66 11 -115q-38 -19 -71 -18q-14 0 -29 5t-29 17t-26 32t-20 51q-10 38 -11.5 92t3.5 118t15.5 135.5t23.5 145.5t28 146.5t29 139.5q26 -1 46 -12q17 -9 30.5 -28.5t11.5 -55.5q-24 -114 -40 -227q-7 -48 -12.5 -100.5t-7.5 -106t-0.5 -104.5t9.5 -96q6 61 23.5 119
t39.5 109.5t47 95t46 76t36 52.5t19 24l1 1q19 22 39 29q17 6 39.5 -3t45.5 -49q-35 -87 -59 -174q-10 -37 -18.5 -78t-13 -83t-4 -82.5t9.5 -77.5q5 16 21.5 62.5t43.5 110.5t65 140.5t87 153.5t108.5 148.5t129.5 125.5z" />
    <glyph glyph-name="X" unicode="X" horiz-adv-x="672" 
d="M966 619q-57 5 -128 -18q-30 -10 -66.5 -27.5t-78 -44.5t-88 -65.5t-96.5 -90.5q-16 -17 -30.5 -33.5t-28.5 -33.5q13 -66 34.5 -128t57 -112.5t88 -85.5t128.5 -47q-31 -41 -69 -60q-16 -8 -35.5 -12.5t-41.5 -2t-47 14t-52 35.5q-32 28 -54.5 59.5t-38 68.5t-25.5 79
t-18 90q-45 -68 -81.5 -130.5t-72.5 -110.5t-75.5 -77.5t-90.5 -29.5q-29 0 -51 5t-38 14t-27.5 20t-18.5 23q-18 27 -20 63q60 -26 115 -6t109.5 71.5t111.5 126.5t121 159q-12 89 -28 152.5t-33 106.5t-33 68.5t-29.5 38.5t-22 17t-9.5 4q44 18 82 19q16 0 32.5 -3.5
t31.5 -13t27 -26t19 -41.5q12 -45 19.5 -104.5t15.5 -125.5q63 77 134.5 149.5t156.5 129.5q31 21 58.5 29t50.5 6.5t42 -11.5t34 -23q35 -32 59 -86z" />
    <glyph glyph-name="Y" unicode="Y" horiz-adv-x="560" 
d="M642 740q29 -7 45 -21t25 -29q10 -18 14 -37q-28 -42 -62 -99q-30 -49 -71.5 -120t-94.5 -164q-53 -92 -92.5 -165.5t-76 -126t-75 -82.5t-87.5 -36q-50 -6 -82 11t-51 40q-22 26 -34 63q24 -25 46.5 -35.5t43 -11t39 7.5t34.5 20q37 28 68 80l172 294q-35 -30 -77.5 -63
t-93.5 -70q-30 -22 -53 -17t-39 20q-6 5 -13.5 13.5t-13.5 21.5q-2 5 -3.5 8.5t-3.5 6.5l-3 6l1 -1q2 -2 4 -3q-8 27 0 71t46 109q42 71 73 119t53.5 81.5t37 56.5t22.5 45q30 -9 49 -24q16 -13 23.5 -34.5t-10.5 -53.5q-11 -19 -30.5 -49.5t-43.5 -66t-49 -74t-45.5 -75
t-34 -67t-13.5 -50.5q11 4 23 10t26 16q89 64 149.5 115t101.5 93l156 267v0z" />
    <glyph glyph-name="Z" unicode="Z" horiz-adv-x="664" 
d="M884 675q-21 -2 -57.5 -28t-84 -69t-103.5 -98.5t-116.5 -117t-122 -125.5t-120.5 -123t-112 -109.5t-96 -85.5q58 -1 128.5 7.5t141.5 34.5t138 74.5t119 128.5q60 -104 23 -178q-16 -32 -54 -59.5t-110 -45.5t-183 -22.5t-271 11.5q-22 -11 -35 -11q-48 0 -71 8t-31 19
q-11 11 -7 27q24 4 65 32t94 72t114 100.5t124 118.5t126 125.5t119 121.5t102 106.5t77 81.5q-14 3 -43.5 6.5t-66.5 4.5t-77.5 -3.5t-77.5 -17.5q-43 -16 -63.5 -39t-26 -44t0 -37t14.5 -18q-61 7 -93 26q-14 8 -22 20t-6.5 28.5t16 38.5t46.5 50q41 36 96.5 46t115.5 7
t119 -13t107 -13l7 7q1 2 2 3q33 8 57 10.5t41 1t28 -6.5t17 -12q15 -16 12 -41z" />
    <glyph glyph-name="a" unicode="a" horiz-adv-x="420" 
d="M313 42q9 0 20.5 8t23.5 20t24.5 27.5t24.5 31.5q27 38 57 85l13 -34q-38 -63 -75 -106q-16 -19 -33 -35t-34.5 -26.5t-34 -12.5t-30.5 8q-18 13 -28.5 29t-15 34t-4 36.5t3.5 36.5q-38 -65 -68.5 -95.5t-52.5 -40.5q-26 -12 -45 -6q-43 22 -53.5 64t0.5 93t38 106
t58.5 103t61.5 83.5t47 48.5q26 18 52.5 18.5t49 -7.5t38.5 -19t21 -15q6 11 11 19t8 13q4 6 7 11q4 0 10 -1q5 -1 13 -3l20 -5q17 -5 26 -9.5t14 -7.5q5 -4 8 -7q-10 -12 -23 -33q-12 -18 -29.5 -48.5t-40.5 -76.5q-24 -46 -47.5 -97t-38 -93.5t-16 -70t18.5 -26.5z
M255 236q29 72 56.5 126.5t47.5 91.5q-12 4 -31.5 2.5t-55.5 -21.5q-23 -13 -49 -47t-50.5 -78.5t-46 -93t-35.5 -90t-18.5 -69.5t4.5 -31q8 -3 21 7.5t29.5 29t35 42t35.5 48t32 46.5t25 37z" />
    <glyph glyph-name="b" unicode="b" horiz-adv-x="401" 
d="M389 442q9 -36 4 -85t-20.5 -101t-39.5 -101.5t-52.5 -86.5t-60 -56t-61.5 -9q-16 5 -31 13q-13 7 -26 17.5t-20 26.5l-22 -60h-1q-29 5 -44 19.5t-20 25.5q-6 12 -6 26.5t2.5 30.5t6 30.5t6.5 26.5q4 14 8 26.5t8 21.5q14 36 32.5 75.5t39 79.5t41.5 79t41 74
q47 83 96 164q4 -1 10 -2q5 -1 13 -2.5t20 -4.5q17 -5 26 -9.5t14 -7.5q5 -4 8 -7q-37 -58 -71 -114q-30 -49 -62.5 -104t-55.5 -102q-12 -23 -24.5 -48t-23.5 -50q18 36 39.5 74.5t46.5 76.5q40 60 68.5 94.5t49.5 43t35 -10t26 -64.5zM313 350q13 36 17 62t3 43
q-1 19 -6 32q-15 -8 -32.5 -29.5t-36.5 -51t-38.5 -64.5t-37.5 -70q-43 -83 -88 -182q6 -16 15 -22.5t17 -8.5q10 -3 21 -1q33 11 58 44.5t45 76.5t35 89t28 82z" />
    <glyph glyph-name="c" unicode="c" horiz-adv-x="300" 
d="M255 520q42 -5 65 -14.5t34 -19.5q13 -11 15 -25q-59 -17 -107.5 -53.5t-84.5 -82.5t-60 -96t-34 -92.5t-7 -72.5t21 -36q16 -6 34.5 -1.5t38 15.5t38.5 27.5t37 34.5q41 42 84 100l8 -24q-35 -58 -74.5 -97.5t-78.5 -60t-74 -22t-60.5 16t-38 54.5t-6.5 94
q5 50 18.5 91.5t32 76t40.5 61.5t44 48q52 48 115 78z" />
    <glyph glyph-name="d" unicode="d" horiz-adv-x="431" 
d="M316 40q9 0 20.5 8t23.5 20t24.5 27.5t24.5 31.5q27 37 57 84l13 -34q-38 -61 -75 -104q-16 -18 -33 -34.5t-34 -26.5t-33.5 -12t-30.5 8q-20 14 -31 31.5t-14.5 37t-2.5 40t5 38.5q-39 -70 -70 -102.5t-54 -43.5q-26 -13 -47 -6q-43 22 -53.5 63.5t0.5 92.5t38 106
t58.5 103t61.5 83.5t47 48.5q28 20 57.5 19t52.5 -11q27 -11 53 -32l4 -3q23 43 45 80.5t39 65.5q19 33 36 60q3 -1 9 -2q5 -1 13 -2.5t20 -4.5q17 -5 26 -9.5t14 -7.5q5 -4 8 -7q-37 -58 -71 -114q-30 -49 -62.5 -104t-55.5 -102q-24 -46 -47.5 -97t-38 -93.5t-16 -70
t18.5 -25.5zM269 258q21 48 46 97t51 97q-6 2 -14 4t-19 1t-25.5 -6t-35.5 -16q-23 -13 -49 -47t-50.5 -78.5t-46 -93t-35.5 -89.5t-18.5 -69t4.5 -31t26.5 12.5t38.5 40.5t43 55.5t40.5 57.5t30.5 45.5t13 19.5z" />
    <glyph glyph-name="e" unicode="e" horiz-adv-x="309" 
d="M93 28q17 -6 37 -0.5t40 17.5t40.5 29.5t38.5 36.5q43 44 87 104l8 -18q-35 -59 -75.5 -101t-80.5 -66t-77 -29t-63.5 11t-40 53.5t-6.5 98.5q5 50 18.5 91.5t32 76t40.5 62t44 48.5q52 49 115 78q53 -7 76.5 -20.5t31.5 -24.5q5 -6 9 -15t6 -22q1 -10 -3.5 -30.5
t-14 -44t-23.5 -48.5t-30.5 -44.5t-35.5 -31.5t-39 -10q-31 2 -51 19.5t-32 36.5q-28 -43 -45.5 -86.5t-24.5 -80t-2.5 -61t20.5 -29.5zM283 424q-38 -23 -70 -55t-57 -67q5 -7 14 -13t27 -9q10 -2 22 12.5t23.5 36.5t22 48t18.5 47z" />
    <glyph glyph-name="eight" unicode="8" horiz-adv-x="452" 
d="M349 528q52 9 83.5 -8t44.5 -45.5t8 -61t-27 -54.5q-16 -17 -36 -31.5t-49 -31.5q21 -32 33 -71.5t9 -78.5t-23 -72.5t-63 -53.5q-27 -13 -55.5 -17.5t-55.5 1t-50 22t-39 45.5q-18 33 -14.5 68.5t23.5 70t54 66t76 55.5q-29 32 -38 64t1 58.5t39.5 46.5t78.5 28zM262 53
q25 12 42.5 35t26 52.5t6 62.5t-18.5 64q-20 -14 -45 -42.5t-40 -60.5t-11.5 -62.5t40.5 -48.5zM337 362q38 16 54.5 32t18.5 30t-7 25t-23 16t-29 3t-25 -14t-12 -35t12 -60q5 2 5.5 1.5t5.5 1.5z" />
    <glyph glyph-name="f" unicode="f" horiz-adv-x="368" 
d="M524 441q36 -5 47 -25.5t-13 -62.5q-3 8 -11 16q-8 7 -21.5 13t-37.5 10q-16 2 -37 2.5t-48 -2.5q-32 -4 -72.5 -14t-83.5 -22q14 -12 22.5 -29t12.5 -36t5 -39t0 -39q-3 -45 -15 -94q-19 -70 -42 -114.5t-46.5 -70.5t-46 -36.5t-41 -12.5t-31 0.5t-15.5 4.5
q-46 41 -59 96.5t-3.5 118.5t37 130t63.5 130q84 149 220 311q23 4 42 2t32 -6q15 -4 26 -12q-19 -15 -48 -49q-25 -30 -64 -84.5t-94 -145.5h3q4 2 7.5 2.5t8.5 2.5q14 5 28.5 9t28.5 8q75 21 139.5 32t106.5 6zM190 115q15 46 21 82.5t5.5 64t-6 47.5t-11.5 34
q-3 5 -5.5 9t-4.5 7q-7 -11 -13.5 -23t-13.5 -24q-62 -107 -84 -181.5t-22.5 -122.5t10 -72t14.5 -28q9 3 19 12.5t23.5 32t30 61t37.5 101.5z" />
    <glyph glyph-name="five" unicode="5" horiz-adv-x="512" 
d="M383 524q16 5 37 6t41 -2.5t35.5 -11.5t21 -21.5t-2 -32.5t-33.5 -44q-2 11 -11 18q-8 6 -24 9t-46 -3q-21 -5 -36.5 -6t-26.5 0l-61 -112q16 6 37 9t45 -4q10 -3 21 -8q15 -8 23 -16.5t13 -17.5q12 -22 11.5 -49.5t-9 -57t-25 -58.5t-37 -53t-43.5 -41t-46 -22
q-26 -6 -44.5 -4.5t-32.5 7.5q-33 12 -57 37.5t-34.5 56t-5.5 61t30 52.5q29 24 51.5 19t38.5 -21q18 -18 33 -51q-23 3 -39 -8t-28 -52q-5 -17 3 -32q41 1 73 28t54.5 62.5t34.5 70.5t14 52q-6 -3 -18.5 -8t-28 -9.5t-34 -7t-36.5 -1.5h-2q-16 1 -34 8q-20 7 -27.5 17
t-9.5 19q-2 11 2 22l120 202q3 0 15 -7q11 -3 30 -3.5t48 8.5z" />
    <glyph glyph-name="four" unicode="4" horiz-adv-x="568" 
d="M496 526q23 -5 38 -14q13 -8 20.5 -20.5t-2.5 -32.5q-6 -14 -20.5 -39t-32.5 -56.5t-39 -67t-40.5 -69t-36 -62.5t-25.5 -48q-14 -29 -19 -50.5t-5 -35.5q0 -17 4 -28q-32 1 -54 12q-20 9 -32.5 29.5t-3.5 58.5q5 19 17.5 47.5t31.5 62.5q-33 -12 -71 -19.5t-67 3.5
q-24 10 -35.5 21.5t-16.5 22.5q-5 12 -4 25q64 41 106.5 87t68.5 84q30 45 48 89q26 -7 43 -18q14 -10 22 -26.5t-3 -40.5q-15 -31 -42 -64t-54 -62q-32 -33 -67 -66q9 2 23 6t30 9t32.5 11.5t30.5 13.5q26 44 53.5 86t50.5 76q26 40 51 75z" />
    <glyph glyph-name="g" unicode="g" horiz-adv-x="396" 
d="M411 521q27 -4 44 -9.5t28 -10.5q12 -6 19 -13q-42 -40 -76 -101t-63.5 -131.5t-55.5 -144.5t-52.5 -140.5t-54.5 -119t-60 -79.5q-24 -20 -47 -29t-43 -10t-37.5 5t-32.5 15q-35 21 -63 62q72 -11 117.5 8.5t77.5 63.5t56.5 109.5t54.5 146.5q-38 -65 -67.5 -94.5
t-51.5 -39.5q-26 -11 -45 -5q-32 16 -45.5 44.5t-13 63.5t12.5 75t31.5 80t43 78t47 69.5t44 54.5t33.5 32q28 20 56.5 19.5t52.5 -10.5q27 -11 54 -33l4 -4q13 22 23 35q5 7 9 13zM269 260q10 22 20 45t21 46q14 29 28.5 55t27.5 47q-6 2 -13.5 4t-18.5 1.5t-25.5 -5.5
t-35.5 -17q-23 -13 -49 -47t-50.5 -78.5t-46.5 -93t-36 -89.5t-18.5 -69t4.5 -31q7 -3 19 6t27 24.5t31.5 36.5t32.5 44q38 53 82 121z" />
    <glyph glyph-name="h" unicode="h" horiz-adv-x="423" 
d="M334 42q9 0 20 8t23.5 20t25 27.5t24.5 31.5q27 38 57 85l13 -34q-38 -63 -75 -106q-16 -19 -33 -35t-34.5 -26.5t-34 -12.5t-30.5 8q-29 20 -39 48t-9.5 56.5t8.5 54.5t14 42q33 84 64 146.5t54 102.5l-3 -2q-68 -62 -120 -130t-89 -129.5t-59 -109.5t-31 -70
q-2 -5 -3 -9l-2 -8q-7 0 -14 0.5t-14 5.5q-29 19 -38.5 47t-9 57t8.5 55t14 42q14 36 32.5 75.5t39 79.5t41.5 79t41 74q47 83 97 164q3 0 9 -1q5 -1 13 -3l20 -5q17 -5 26 -9.5t14 -7.5q5 -4 8 -7q-37 -58 -71 -114q-30 -49 -62.5 -104t-55.5 -102q-14 -28 -29 -58.5
t-28 -60.5t-23 -57.5t-16 -49.5l-1 -4l3 3q1 1 1 2q40 94 97 170.5t111 132.5q62 65 129 116h1q4 0 10 -1q5 -1 13 -3l20 -5q16 -5 25.5 -9t14.5 -7q6 -4 8 -7q-9 -12 -23 -33q-12 -18 -30 -49t-41 -77t-46.5 -97t-38.5 -93.5t-16.5 -70t19.5 -26.5z" />
    <glyph glyph-name="i" unicode="i" horiz-adv-x="199" 
d="M174 328q-15 -31 -31 -64.5t-30 -65.5t-24 -60.5t-14 -50t-0.5 -34t17.5 -11.5q9 0 20 8t23.5 20t25 27.5t24.5 31.5q27 37 57 84l13 -34q-38 -63 -75 -106q-16 -19 -33 -35t-34.5 -26.5t-34 -12.5t-30.5 8q-29 20 -39 48t-9.5 57t8.5 55t14 42q29 72 56.5 129.5
t49.5 97.5q26 47 49 83q4 0 10 -1q5 -1 13 -2.5t20 -4.5q16 -5 25.5 -9.5t14.5 -7.5q6 -4 8 -7q-9 -12 -23 -33q-12 -18 -30 -49t-41 -77zM269 522q-30 10 -41 30q-9 17 1 47.5t61 77.5l92 -28q-32 -25 -58 -49q-22 -20 -39.5 -41.5t-15.5 -36.5z" />
    <glyph glyph-name="j" unicode="j" horiz-adv-x="172" 
d="M72 348q17 35 34.5 66t32.5 54q18 27 34 50q27 -4 44 -9.5t28 -10.5q12 -6 19 -13q-42 -40 -76 -101t-63.5 -131.5t-56 -144.5t-52.5 -140.5t-54 -119t-60 -79.5q-24 -20 -47 -29t-43 -10t-37.5 4.5t-32.5 14.5q-35 21 -63 62q62 -9 104 4t72.5 45.5t53 81.5t45.5 112
t50.5 137t67.5 157zM276 523q-30 10 -41 30q-9 17 1 47t61 77l92 -27q-32 -25 -58 -49q-11 -10 -21 -21t-18 -21t-12.5 -19.5t-3.5 -16.5z" />
    <glyph glyph-name="k" unicode="k" horiz-adv-x="354" 
d="M252 31q4 -1 12 6t18 18t21.5 26t22.5 30q26 36 56 83l9 -18q-47 -90 -86.5 -132t-79.5 -44q-20 -1 -35 10t-23 29t-8 41t10 47q14 33 14 51t-3 26q-8 1 -15 3.5t-14 6.5q-10 -23 -27 -59t-33.5 -70.5t-28.5 -59.5l-12 -25h-2q-14 3 -24 8t-16.5 11t-10.5 12.5t-7 11.5
q-8 16 -7 38.5t6 45.5t12.5 44t13.5 35q14 36 32.5 75.5t39 79.5t41.5 79t41 74q47 83 97 163q3 0 9 -1q5 -1 13 -2.5t20 -4.5q17 -5 26 -9.5t14 -7.5q5 -4 8 -7q-37 -57 -71 -114q-30 -49 -62.5 -104.5t-55.5 -101.5q-8 -17 -17 -34t-17 -35q26 49 55.5 98.5t60 88
t59.5 60.5t53 15q28 -8 35 -33t-1 -59t-26.5 -71.5t-42 -69.5t-47 -54t-41.5 -25q8 -9 19 -25q13 -20 9.5 -45t-10.5 -48t-11 -39t7 -18zM168 250q18 4 34.5 16.5t31 29.5t26.5 37t22 40q23 48 40 104q-8 -3 -19 -15t-23 -28.5t-25.5 -36.5t-25.5 -40q-29 -48 -61 -107z" />
    <glyph glyph-name="l" unicode="l" horiz-adv-x="200" 
d="M174 326q-15 -31 -31 -64.5t-30 -65.5t-24 -60.5t-14 -50t-0.5 -34t17.5 -11.5q9 0 20 8t23.5 20t25 27.5t24.5 31.5q27 37 57 84l13 -34q-38 -61 -75 -104q-16 -18 -33 -34.5t-34.5 -26.5t-34 -12t-30.5 8q-29 20 -39 47.5t-9.5 56t8.5 54t14 41.5q14 36 32.5 75.5
t39 79.5t41.5 79t41 74q47 83 97 164q3 -1 9 -2q5 -1 13.5 -2.5t20.5 -4.5q16 -5 25.5 -9.5t14.5 -7.5q6 -4 8 -7q-36 -58 -71 -114q-30 -49 -63 -104t-56 -102z" />
    <glyph glyph-name="m" unicode="m" horiz-adv-x="644" 
d="M552 41q9 0 20 8t23.5 20t25 27.5t24.5 31.5q27 37 57 84l13 -34q-38 -62 -75 -105q-16 -18 -33 -34.5t-34.5 -27t-34 -12.5t-30.5 8q-29 19 -39 47t-9.5 57t8.5 55t14 42q33 82 64 144.5t54 103.5l-2 -2q-40 -36 -74 -74.5t-62.5 -77t-52 -76t-42.5 -70.5
q-44 -79 -73 -155q-10 -2 -18.5 0.5t-15.5 6.5q-8 4 -15 11q-23 45 -17.5 101.5t26 114.5t49.5 112.5t55 94.5q-76 -71 -131 -148t-91 -143q-42 -77 -70 -150q-10 -2 -18 0.5t-15 6.5q-8 4 -15 11q-16 32 -17.5 70.5t7 79.5t24.5 83t36 81q46 91 115 185q34 -1 51.5 -4
t25.5 -8q9 -5 9 -12q-63 -85 -101 -156.5t-60 -125.5q-26 -62 -37 -114q40 93 97.5 170t111.5 133q62 65 130 117q34 -1 51.5 -4t25.5 -8q9 -5 9 -12q-63 -85 -101 -156.5t-60 -125.5q-26 -62 -37 -114q26 60 60 113.5t70.5 99.5t72 83t64.5 63.5t48 41.5t23 18q1 1 1 2
q4 -1 10 -2q5 -1 13 -2.5t20 -4.5q16 -5 25.5 -9.5t14.5 -7.5q6 -4 8 -7q-9 -12 -23 -33q-12 -18 -30 -48.5t-41 -77.5q-16 -31 -31.5 -64.5t-29.5 -65.5t-24 -60.5t-14 -50t-0.5 -34t17.5 -11.5z" />
    <glyph glyph-name="n" unicode="n" horiz-adv-x="412" 
d="M325 41q9 0 20 8t23.5 20t25 27.5t24.5 31.5q27 37 57 84l12 -34q-38 -62 -75 -105q-16 -18 -33 -34.5t-34 -27t-33.5 -12.5t-30.5 8q-29 19 -39 47t-9.5 57t8.5 55t14 42q33 82 63.5 144.5t53.5 103.5l-1 -2q-40 -36 -74 -74.5t-63 -77t-52.5 -76t-42.5 -70.5
q-44 -79 -73 -155q-10 -2 -18 0.5t-15 6.5q-8 4 -15 11q-16 32 -17.5 70.5t7 79.5t24.5 83t36 81q46 91 115 185q34 -1 51.5 -4t25.5 -8q9 -5 9 -12q-63 -85 -101 -156.5t-60 -125.5q-26 -62 -37 -114q26 60 60 113.5t70.5 99.5t72 83t64.5 63.5t48 41.5t23 18q1 1 1 2
q3 -1 9 -2q5 -1 13 -2.5t20 -4.5q17 -5 26 -9.5t14 -7.5q5 -4 8 -7q-10 -12 -23 -33q-12 -18 -29.5 -48.5t-40.5 -77.5q-16 -31 -31.5 -64.5t-29.5 -65.5t-24 -60.5t-14 -50t-0.5 -34t17.5 -11.5z" />
    <glyph glyph-name="nine" unicode="9" horiz-adv-x="468" 
d="M348 516q16 -6 34 -20.5t30 -42.5t13.5 -72.5t-16.5 -110.5q-19 -72 -50.5 -122.5t-62.5 -82.5q-36 -38 -76 -61q-31 -8 -53 -4q-9 1 -17.5 5t-13.5 11.5t-6 18.5t4 28q16 5 39 26t46 46.5t42 50.5t27 37q-14 -4 -34.5 -6.5t-42.5 1.5t-41.5 17.5t-30.5 43.5
q-9 26 -7.5 58t13 64t31.5 60t46.5 45.5t58.5 21.5t67 -12zM231 253q21 0 48 17.5t45 46.5q8 35 9 75t-8 87q-13 0 -32 -8.5t-38 -34.5q-16 -22 -28 -53t-17 -60t-1 -49.5t22 -20.5z" />
    <glyph glyph-name="o" unicode="o" horiz-adv-x="404" 
d="M493 315q-15 -28 -35 -51q-17 -20 -44 -37t-63 -19l-5.5 -11t-4.5 -8q-3 -4 -4 -6q-3 -8 -9 -18q-33 -55 -72.5 -92t-78 -55t-73.5 -17.5t-60 19.5t-36.5 57t-3.5 94q7 49 21.5 91t33.5 76t41 61t43 48q14 -4 31.5 -12t34.5 -22q5 29 18 54.5t28 42.5q14 11 29 11t28 -5
q15 -5 30 -15q5 -2 16.5 -13.5t16.5 -20.5q12 -20 19.5 -54t-1.5 -82q-5 -28 -13 -52t-16 -43q22 4 43.5 19.5t38.5 32.5q20 20 38 44zM323 479q-42 -52 -51.5 -91t-2 -67t25.5 -46t33 -27q26 60 34.5 113.5t-10.5 84.5q-5 8 -13 16.5t-16 16.5zM98 33q28 -6 57.5 6.5
t58 38.5t54 62t45.5 76q-56 31 -80 70.5t-27 79.5q-29 -31 -52 -67t-39.5 -71.5t-26 -69.5t-12 -60.5t3 -44t18.5 -20.5z" />
    <glyph glyph-name="one" unicode="1" horiz-adv-x="500" 
d="M298 102q35 -5 47.5 -19.5t14.5 -31.5q2 -19 -7 -42q-23 7 -49 11q-22 3 -50 1.5t-57 -12.5q-29 -12 -47.5 -13.5t-31 4.5t-22 20t-19.5 34q13 6 28 12q25 10 68 23q-2 4 -4 12t-1 19.5t6.5 27.5t17.5 36q10 16 27 40.5t37.5 52.5t41.5 57t40 54q-16 -4 -31.5 -2.5
t-31.5 12.5q-26 17 -27 34t8 31q11 17 32 32q-1 -8 3 -14q3 -5 11 -9.5t23 -4.5t35 10t38 22q21 14 43 32l26 -26l31 -32q-54 -78 -102 -148q-20 -30 -40.5 -61.5t-39 -61t-33.5 -55t-24 -43.5h19.5t19.5 -2z" />
    <glyph glyph-name="p" unicode="p" horiz-adv-x="368" 
d="M461 192q-5 -7 -21 -23q-14 -14 -41.5 -37t-75.5 -60q-53 -41 -94.5 -53.5t-71.5 -7.5h-2q-2 0 -2.5 0.5t-1.5 0.5h-1q-14 3 -26 8.5t-22 12.5q-23 13 -35 37l-25 -69q-27 -100 -36.5 -167.5t-1.5 -93.5q-21 1 -40 7q-17 5 -34 17t-29 34q-6 10 0 44t20.5 83t35.5 108.5
t44.5 122t48.5 123t47 111.5t40.5 88t28.5 51q20 -4 38 -8q15 -4 29.5 -10t22.5 -15q-9 -15 -20 -33q-9 -16 -21 -37t-26 -46q4 6 7 10q40 60 68.5 93t49.5 40.5t35.5 -10.5t25.5 -61q9 -36 3.5 -86t-21.5 -103t-40.5 -103t-53.5 -86q33 17 64.5 40t56.5 45q29 26 55 52z
M311 495q-14 -8 -31.5 -29.5t-36.5 -50.5t-38.5 -63.5t-37.5 -69.5q-42 -82 -87 -181q6 -16 15 -23t17 -9q10 -3 20 0q33 10 58 43.5t45 76.5t35.5 89.5t28.5 82.5t16.5 61.5t2.5 41.5q-1 18 -7 31z" />
    <glyph glyph-name="q" unicode="q" horiz-adv-x="384" 
d="M388 519q20 -3 38 -7q15 -4 30 -10.5t23 -14.5q-13 -10 -35 -49q-19 -33 -49.5 -100.5t-75.5 -185.5q-14 -36 -27.5 -79t-26 -87.5t-22 -87t-15 -77.5t-6 -59.5t6.5 -31.5q-20 1 -39 8q-17 6 -35 17.5t-31 32.5q-6 10 -0.5 43.5t19.5 82.5t34.5 108.5t44.5 121.5
q-38 -65 -68 -95t-51 -41q-25 -12 -44 -6q-43 22 -53.5 64t0.5 93.5t38 106.5t58 103t61 84t47 49q22 16 45.5 17t45.5 -5t39 -15.5t26 -15.5q16 30 22 36zM268 260q24 59 46 110t39 87q-11 3 -30 0.5t-52 -20.5q-23 -13 -49 -47.5t-50.5 -79t-45.5 -93.5t-35 -90
t-18.5 -69.5t4.5 -31.5q7 -3 18.5 6t26.5 25.5t31.5 37.5t32.5 44q38 53 82 122v-1z" />
    <glyph glyph-name="r" unicode="r" horiz-adv-x="399" 
d="M542 383q-43 -56 -84 -92q-18 -15 -37 -28t-38 -19t-37 -4t-33 17q-29 28 -29 61t15 65q-60 -67 -104 -135t-73 -123q-33 -65 -56 -125q-10 -2 -18 0.5t-15 6.5q-8 4 -15 11q-16 32 -17.5 70.5t7.5 80t25 83.5t36 81q46 92 115 186q34 -1 51 -4t25 -8q9 -5 9 -12
q-63 -85 -100.5 -156.5t-59.5 -125.5q-26 -62 -37 -114q25 59 58 112t68.5 98t71 81.5t64.5 63.5t49 43.5t26 20.5l1 1h1q3 0 18 -1.5t29.5 -7t20.5 -16.5t-9 -30q-23 -29 -48.5 -61t-43.5 -60.5t-23.5 -50t11.5 -27.5q5 -2 14.5 2.5t22.5 13.5t27.5 21.5t28.5 25.5
q33 31 72 71z" />
    <glyph glyph-name="s" unicode="s" horiz-adv-x="363" 
d="M246 88q28 17 54.5 38.5t48.5 40.5q25 22 48 44l12 -23q-6 -8 -23 -25q-15 -14 -43 -38.5t-76 -61.5q-56 -43 -99 -54.5t-73.5 -6t-49.5 21t-27 26.5q-8 9 -19.5 25t-16.5 25l3 3q2 2 3 3.5t3 3.5q13 -22 34 -36t44.5 -16.5t47 8t40.5 35t25 65.5t2 101q-8 72 10.5 119
t47 75.5t60.5 41.5t52 16t34 -4.5t23 -18.5q11 -12 18 -30q-72 -27 -106.5 -56t-46 -60t-8 -63.5t7.5 -65.5t0 -66.5t-30 -66.5z" />
    <glyph glyph-name="seven" unicode="7" horiz-adv-x="460" 
d="M161 400q-15 5 -26 16q-9 10 -14.5 27t1.5 46q24 20 70 32q38 10 103.5 14t163.5 -9q12 -2 18 -12.5t8 -23.5q3 -15 1 -33q-92 -82 -157 -163q-28 -35 -52.5 -72.5t-40.5 -75t-20.5 -73.5t8.5 -67q-31 -7 -55 -1q-20 5 -36.5 24t-14.5 63q1 22 12 49.5t27.5 58.5t38 62.5
t43.5 61.5q51 70 116 144q-45 3 -84 -3q-33 -5 -65 -19.5t-45 -45.5z" />
    <glyph glyph-name="six" unicode="6" horiz-adv-x="432" 
d="M231 307q48 14 79.5 5.5t49.5 -31t22.5 -55t-2.5 -67t-25 -67t-45 -54.5t-62 -30.5t-77 5.5q-17 6 -35 20.5t-30 42.5t-13 73t16 111q19 72 51 122.5t63 82.5q36 38 75 61q26 4 45 0q17 -4 30 -18t11 -46q-15 0 -37.5 -19t-45.5 -44.5t-42.5 -51.5t-27.5 -40zM194 50
q21 -4 40 11.5t35 40.5t27 55.5t14.5 56.5t-1.5 44t-21 18q-39 0 -62 -23.5t-33 -58t-9 -73.5t10 -71z" />
    <glyph glyph-name="t" unicode="t" horiz-adv-x="180" 
d="M357 635q52 7 94.5 7.5t67.5 -8.5t29.5 -30t-18.5 -55q-4 16 -22 27q-15 10 -46 17t-85 5q-11 -1 -22.5 -2t-24.5 -3q-16 -25 -36 -58t-41 -68.5t-41 -71t-36 -66.5q-23 -46 -46.5 -97t-38.5 -93.5t-16.5 -70t19.5 -26.5q9 0 20 8t23.5 20t25 27.5t24.5 31.5q27 38 57 85
l13 -34q-38 -63 -75 -106q-16 -19 -33 -35t-34.5 -26.5t-34 -12.5t-30.5 8q-29 20 -39 48t-9.5 56.5t8.5 54.5t14 42q18 43 40.5 91t47.5 95.5t50 92.5t46 82q-56 -12 -109.5 -21.5t-91 -6t-51.5 25t9 70.5q8 -24 35 -37q23 -11 69 -14.5t126 16.5q10 2 19.5 4.5t18.5 4.5
q9 15 17 27.5t13 21.5q6 11 11 18q4 1 11 0q6 -1 14.5 -2.5t20.5 -4.5q17 -5 25.5 -9.5t13.5 -7.5q5 -4 7 -7q-1 -1 -2 -3q-2 -2 -3.5 -4.5t-3.5 -5.5z" />
    <glyph glyph-name="three" unicode="3" horiz-adv-x="520" 
d="M467 519q12 -6 22 -14q8 -7 14 -17.5t4 -24.5l-138 -116q36 -16 51.5 -45.5t15 -65t-14.5 -73t-36 -70t-50 -56t-56 -29.5q-26 -6 -45 -4.5t-32 7.5q-33 12 -57.5 37.5t-35 56t-5 61t30.5 52.5q29 24 51 19t38 -21q18 -18 33 -51q-23 3 -38.5 -8t-27.5 -52q-5 -15 3 -32
q28 1 51.5 14t43 33.5t34.5 45.5t25 48.5t15.5 43.5t6.5 30q1 11 -3.5 16t-11.5 6.5t-16 0t-17 -3.5l-28 -24q-24 11 -38 22q-13 10 -18 21.5t10 24.5q14 12 37 31.5t45 38.5q26 22 52 45q-25 0 -46 -7q-18 -6 -34 -19t-19 -36q-24 9 -36 22q-11 11 -13 27t19 37
q20 20 56.5 27.5t71.5 7.5q41 0 86 -6z" />
    <glyph glyph-name="two" unicode="2" horiz-adv-x="492" 
d="M431 285q-21 -32 -47.5 -62.5t-56 -59t-59 -53t-54.5 -44.5q24 0 52 1.5t53.5 7t45 16t25.5 27.5q12 -17 16 -35q3 -15 -1.5 -33.5t-27.5 -35.5t-55 -17t-67.5 5t-69.5 8t-59 -7q-17 21 -24 35t-9 22q-3 10 0 16q40 22 81 55t80.5 74t75.5 87.5t65 95.5q22 38 23.5 63
t-6.5 41q-19 -2 -39.5 -14t-37.5 -37q-18 -25 -21 -46t0 -37q4 -18 14 -34q-31 -9 -53.5 -1.5t-35 25t-15.5 41.5t4 48t24 44.5t44 30.5q41 16 71.5 14t51.5 -11q60 -22 66.5 -77.5t-54.5 -152.5z" />
    <glyph glyph-name="u" unicode="u" horiz-adv-x="395" 
d="M310 44q9 1 20 8.5t23.5 19.5t25 27.5t24.5 31.5q27 37 57 85l13 -34q-38 -63 -75 -106q-16 -19 -33 -35t-34.5 -26.5t-34 -12.5t-30.5 8q-32 22 -41 53t-6 63q-17 -23 -38.5 -49t-44.5 -45.5t-46 -27t-42 5.5q-29 20 -39 48t-9.5 56.5t8.5 54.5t14 42q29 73 56.5 130
t49.5 98q26 47 49 83q4 0 10 -1q5 -1 13 -3l20 -5q16 -5 25.5 -9t14.5 -7q6 -4 8 -7q-9 -12 -23 -33q-12 -18 -30 -49t-41 -77t-46.5 -97t-38.5 -93.5t-16.5 -70t19.5 -26.5q12 1 27.5 13.5t31.5 31t32 40t29 40t21 31.5t9 15q29 72 56 128.5t49 96.5q26 47 48 82q3 0 9 -1
q5 -1 13.5 -3t20.5 -5q16 -5 25.5 -9t14.5 -7q6 -4 8 -7q-10 -12 -24 -33q-12 -18 -29.5 -49t-40.5 -77t-46.5 -97t-38.5 -93.5t-16.5 -70t19.5 -26.5z" />
    <glyph glyph-name="v" unicode="v" horiz-adv-x="336" 
d="M497 413q-31 -44 -64 -74q-14 -13 -30 -24t-32.5 -17t-33.5 -6t-33 9q-27 -47 -55.5 -94.5t-53 -88.5t-42.5 -70.5t-24 -38.5q-8 -11 -24 -9t-33 21t-30 56.5t-14 98t14 145.5t55 199q19 -3 36 -8q14 -5 27 -12.5t17 -19.5q2 -7 -5 -30t-17.5 -57t-22 -76.5t-18 -88
t-5 -91t16.5 -85.5l151 272q-24 27 -27.5 58.5t6 62.5t28 60t39 51t39.5 36t29 15q15 2 27.5 -1t19.5 -12t7 -25t-10 -40q-20 -47 -47.5 -89.5t-54.5 -89.5q-6 -20 9 -27q12 -5 35.5 9.5t47 34.5t42 39.5t20.5 24.5z" />
    <glyph glyph-name="w" unicode="w" horiz-adv-x="596" 
d="M759 409q-35 -42 -69 -70q-15 -12 -31 -22.5t-32.5 -16.5t-32.5 -6t-31 8q-27 -47 -55.5 -94.5t-53 -88.5t-42.5 -70.5t-24 -38.5q-9 -13 -30 -8.5t-39.5 33t-29 84.5t1.5 145q0 6 1 9q-22 -37 -46.5 -78.5t-47 -79t-40 -66t-24.5 -39.5q-8 -11 -24 -9t-33 21t-30 56.5
t-14 98t14 145.5t55 199q19 -3 36 -8q14 -5 27 -12.5t17 -19.5q2 -6 -5 -29.5t-17.5 -57.5t-22 -76.5t-18 -88t-5 -91t16.5 -85.5l177 327q4 14 9.5 32t13.5 41q20 -3 38 -7q14 -4 27.5 -10.5t16.5 -16.5q2 -6 -3 -24.5t-13.5 -45.5t-17 -62t-12 -73.5t-0.5 -79.5t18 -81
l151 272q-24 27 -28 58.5t5.5 62.5t28 60t39 51t39.5 36t29 15q15 2 27.5 -1t20 -12t7.5 -25t-10 -40q-13 -31 -29.5 -58.5t-31.5 -50.5q-9 -16 -19.5 -33t-21.5 -37q-8 -20 9 -27q11 -4 35 12t49 36q29 24 63 55z" />
    <glyph glyph-name="x" unicode="x" horiz-adv-x="475" 
d="M269 270q19 -112 41.5 -168.5t52.5 -61t69 41.5t92 139q2 -2 5.5 -4.5t6.5 -5.5l7 -7q-18 -32 -39.5 -68t-45.5 -66t-49.5 -49.5t-49.5 -19.5q-32 0 -57 10t-44.5 32.5t-35.5 58.5t-30 88q-32 -35 -61.5 -68t-51.5 -59q-26 -30 -48 -57q-5 -3 -10 -5t-10.5 -1.5
t-10.5 5.5q24 35 52 75q24 34 56.5 77.5t70.5 89.5q-2 6 -2 7q-20 91 -37 141t-29 73t-19.5 27.5t-7.5 5.5q14 10 30 14q14 4 30.5 3.5t33.5 -12.5q22 -16 42.5 -59t35.5 -111q44 47 88.5 86.5t86 62t76.5 23t61 -29.5q-20 -6 -46 -18q-23 -11 -56 -30t-76 -50
q-26 -18 -57 -47t-64 -63z" />
    <glyph glyph-name="y" unicode="y" horiz-adv-x="404" 
d="M404 519q26 -4 43.5 -9.5t28.5 -10.5q12 -6 18 -13q-42 -40 -76 -101t-63.5 -131.5t-55.5 -144.5t-52.5 -140.5t-54.5 -119t-60 -79.5q-24 -20 -46.5 -29t-43 -10t-38 5t-32.5 15q-35 21 -63 62q67 -10 111 6t75 54t54.5 95t49.5 129q-17 -22 -36 -43t-39 -35
t-39.5 -18.5t-36.5 6.5q-29 20 -38.5 48t-9 56.5t8.5 54.5t14 42q29 73 56.5 130t49.5 98q26 47 49 83q3 0 9 -1q5 -1 13 -3l20 -5q17 -5 26 -9t14 -7q5 -4 8 -7q-10 -12 -23 -33q-12 -18 -29.5 -49t-40.5 -77q-24 -46 -47.5 -97t-38 -93.5t-16 -70t18.5 -26.5q9 1 20.5 8.5
t23.5 19.5t24.5 27.5t24.5 31.5q27 37 57 85l1 -1q13 32 27.5 66.5t32.5 70.5q17 35 34.5 66t32.5 54q18 27 34 50z" />
    <glyph glyph-name="zero" unicode="0" horiz-adv-x="468" 
d="M416 485q19 -28 21 -75t-8.5 -101.5t-32 -109.5t-50 -99.5t-61.5 -72.5t-67 -27q-48 1 -72.5 31t-31 76.5t3 103.5t30.5 113t50.5 104t63 76t69 30.5t68.5 -32.5q5 -4 9.5 -8t7.5 -9zM270 113q7 16 20.5 46.5t28 68t28.5 78t21.5 76t7 62.5t-13.5 37q-17 -8 -35.5 -26.5
t-37.5 -53.5q-17 -33 -38.5 -81.5t-37.5 -99.5t-21.5 -97t11.5 -75q4 0 11.5 1.5t16.5 7.5t19 19t20 37z" />
    <glyph glyph-name="z" unicode="z" horiz-adv-x="452" 
d="M532 301q8 -5 14 -19t7 -21q-4 -6 -10.5 -14t-20 -21.5t-37.5 -33t-63 -48.5q-10 -7 -22 -15t-26 -17q1 -16 -3.5 -37.5t-17.5 -50.5q-21 -45 -47.5 -90t-60.5 -83.5t-77.5 -67.5t-99.5 -42q-47 -11 -74 -0.5t-41.5 29.5t-18.5 38.5t-5 26.5q-2 22 16 48t69 55
q29 17 68 39.5t81 47.5t84.5 50.5t79.5 48.5q-2 2 -4.5 3.5t-5.5 2.5q-21 -6 -49.5 -21t-54.5 -31t-45.5 -28.5t-21.5 -12.5h-8t-8 1q-2 1 -18 4.5t-33 11.5h-1q-11 6 -20 15t-12 21t3 28.5t24 37.5l346 296q-27 -5 -62.5 -14t-72 -24.5t-69 -38.5t-53.5 -55q-24 27 -27 55
q-1 12 2.5 25.5t15 28t31.5 29.5t52 29q64 29 115 36t88 3q42 -4 76 -19l-1 -1q4 -3 10.5 -10t3.5 -21t-20 -36.5t-59 -56.5q-27 -22 -58.5 -50.5t-63.5 -58.5t-63 -60t-57 -55q22 14 42 19t36.5 4.5t29 -5t21.5 -9.5q1 0 10 -4.5t17 -16.5q15 10 28 18.5t24 15.5
q39 27 62 49.5t35 38.5q14 18 20 33zM125 -123q33 24 65.5 51.5t60.5 55t48.5 53.5t28.5 47q-45 -27 -97 -55.5t-100 -56.5t-88.5 -52.5t-62.5 -43.5q-16 -13 -18 -26.5t6 -26.5q25 -4 63.5 5.5t93.5 48.5z" />
    <glyph glyph-name="ampersand" unicode="&#x26;" 
d="M230 296l10 -9q-17 -25 -33 -42q-14 -15 -28.5 -24.5t-25.5 -1.5q-16 8 -18.5 26t-2.5 32q-15 -29 -27 -41.5t-21 -16.5q-11 -4 -19 0q-17 7 -21 23t1 36t16.5 42t25 41.5t26 33.5t19.5 19q11 11 22 11t19 -5q10 -5 19 -16h9q7 18 15.5 34t16.5 28q9 14 17 26l9 -10
q8 0 11.5 -1.5t5.5 -3.5t3 -4q-14 -22 -28 -45q-12 -20 -25.5 -42t-24.5 -40q-8 -19 -16 -39.5t-13 -38t-6 -28.5t6 -11q8 0 17.5 10t18.5 23q11 15 22 34zM192 395q-8 7 -16.5 7t-22.5 -7q-15 -8 -30.5 -34.5t-27.5 -56t-18 -52.5t-3 -23q7 -4 20.5 9.5t26.5 30.5
q15 20 32 47q7 23 19 43.5t20 35.5zM357 307v-11q-22 -36 -47.5 -57.5t-46.5 -25t-33.5 12t-9.5 51.5q4 41 19.5 68.5t32.5 44.5q20 20 45 33q23 0 32.5 -5.5t17.5 -13.5v-9q4 -8 0.5 -22.5t-11.5 -29t-20.5 -25.5t-27.5 -11q-8 0 -18.5 5.5t-10.5 13.5q-11 -15 -18 -32
t-10 -31.5t-1 -24t9 -9.5q11 -4 27.5 7.5t32.5 27.5q18 18 38 43zM279 335q8 0 10 -4.5t9 -4.5q4 0 9 6.5t11 15.5t11 19l9 18q-23 -8 -34 -21t-25 -29zM630 296v-9q-14 -25 -28 -42q-12 -15 -25.5 -24.5t-24.5 -1.5q-15 7 -19.5 17.5t-3.5 21t5.5 21t8.5 17.5q7 38 19 61
t20 38q-29 -26 -51 -57t-37 -57q-18 -31 -30 -62q-6 -6 -13 -4q-4 1 -7 4q-11 18 -8.5 41t10.5 47t19 47t18 41q-29 -30 -51 -61t-36 -57q-17 -30 -29 -58q-6 -6 -14 -4q-4 1 -6 4q-11 26 -2 60.5t25 66.5q18 37 46 77q14 0 22 -1.5t12 -3.5t5 -4q-26 -33 -41.5 -61.5
t-23.5 -49.5q-10 -25 -13 -45q14 37 37.5 67t45.5 52q26 26 53 46q11 0 17 -1.5t9 -3.5q4 -2 4 -4q-26 -33 -41.5 -61.5t-23.5 -49.5q-10 -25 -14 -45q15 37 37 67t43 52t37 34t20 12h19l20 -9q-6 -6 -12 -16q-5 -8 -12.5 -21t-14.5 -31q-11 -19 -21.5 -39.5t-16.5 -38
t-7 -28.5t6 -11q8 0 19 10t22 23q12 15 27 34zM747 296q-7 0 -9 -5q-1 -2 -1 -4v-10q-22 -33 -47.5 -49t-46.5 -15t-33.5 19.5t-8.5 54.5q7 36 25.5 64.5t32.5 43.5q8 0 15 -5t15 -5q0 8 5.5 19.5t13.5 18.5q7 7 18 0q5 -4 11 -9q4 0 7.5 -1.5t6.5 -3.5q4 -3 6 -5
q0 -7 5 -21.5t5 -36.5q-8 -8 -10 -20t-10 -19q11 3 19.5 9.5t15.5 13.5q8 8 14 16h10q-6 -14 -15 -25q-8 -10 -19 -17.5t-25 -7.5zM728 307q-23 7 -31 25.5t-8 32.5q-18 -18 -31 -40.5t-19.5 -42.5t-6.5 -35t8 -18q11 -4 23.5 1t24.5 16t22 27t18 34zM737 316q8 23 13 43.5
t-3 35.5l-10 9q-18 -18 -23 -32.5t-2 -25.5t10.5 -18.5t14.5 -11.5z" />
    <glyph glyph-name="question" unicode="?" 
d="M230 296l10 -9q-17 -25 -33 -42q-14 -15 -28.5 -24.5t-25.5 -1.5q-16 8 -18.5 26t-2.5 32q-15 -29 -27 -41.5t-21 -16.5q-11 -4 -19 0q-17 7 -21 23t1 36t16.5 42t25 41.5t26 33.5t19.5 19q11 11 22 11t19 -5q10 -5 19 -16h9q7 18 15.5 34t16.5 28q9 14 17 26l9 -10
q8 0 11.5 -1.5t5.5 -3.5t3 -4q-14 -22 -28 -45q-12 -20 -25.5 -42t-24.5 -40q-8 -19 -16 -39.5t-13 -38t-6 -28.5t6 -11q8 0 17.5 10t18.5 23q11 15 22 34zM192 395q-8 7 -16.5 7t-22.5 -7q-15 -8 -30.5 -34.5t-27.5 -56t-18 -52.5t-3 -23q7 -4 20.5 9.5t26.5 30.5
q15 20 32 47q7 23 19 43.5t20 35.5zM357 307v-11q-22 -36 -47.5 -57.5t-46.5 -25t-33.5 12t-9.5 51.5q4 41 19.5 68.5t32.5 44.5q20 20 45 33q23 0 32.5 -5.5t17.5 -13.5v-9q4 -8 0.5 -22.5t-11.5 -29t-20.5 -25.5t-27.5 -11q-8 0 -18.5 5.5t-10.5 13.5q-11 -15 -18 -32
t-10 -31.5t-1 -24t9 -9.5q11 -4 27.5 7.5t32.5 27.5q18 18 38 43zM279 335q8 0 10 -4.5t9 -4.5q4 0 9 6.5t11 15.5t11 19l9 18q-23 -8 -34 -21t-25 -29zM630 296v-9q-14 -25 -28 -42q-12 -15 -25.5 -24.5t-24.5 -1.5q-15 7 -19.5 17.5t-3.5 21t5.5 21t8.5 17.5q7 38 19 61
t20 38q-29 -26 -51 -57t-37 -57q-18 -31 -30 -62q-6 -6 -13 -4q-4 1 -7 4q-11 18 -8.5 41t10.5 47t19 47t18 41q-29 -30 -51 -61t-36 -57q-17 -30 -29 -58q-6 -6 -14 -4q-4 1 -6 4q-11 26 -2 60.5t25 66.5q18 37 46 77q14 0 22 -1.5t12 -3.5t5 -4q-26 -33 -41.5 -61.5
t-23.5 -49.5q-10 -25 -13 -45q14 37 37.5 67t45.5 52q26 26 53 46q11 0 17 -1.5t9 -3.5q4 -2 4 -4q-26 -33 -41.5 -61.5t-23.5 -49.5q-10 -25 -14 -45q15 37 37 67t43 52t37 34t20 12h19l20 -9q-6 -6 -12 -16q-5 -8 -12.5 -21t-14.5 -31q-11 -19 -21.5 -39.5t-16.5 -38
t-7 -28.5t6 -11q8 0 19 10t22 23q12 15 27 34zM747 296q-7 0 -9 -5q-1 -2 -1 -4v-10q-22 -33 -47.5 -49t-46.5 -15t-33.5 19.5t-8.5 54.5q7 36 25.5 64.5t32.5 43.5q8 0 15 -5t15 -5q0 8 5.5 19.5t13.5 18.5q7 7 18 0q5 -4 11 -9q4 0 7.5 -1.5t6.5 -3.5q4 -3 6 -5
q0 -7 5 -21.5t5 -36.5q-8 -8 -10 -20t-10 -19q11 3 19.5 9.5t15.5 13.5q8 8 14 16h10q-6 -14 -15 -25q-8 -10 -19 -17.5t-25 -7.5zM728 307q-23 7 -31 25.5t-8 32.5q-18 -18 -31 -40.5t-19.5 -42.5t-6.5 -35t8 -18q11 -4 23.5 1t24.5 16t22 27t18 34zM737 316q8 23 13 43.5
t-3 35.5l-10 9q-18 -18 -23 -32.5t-2 -25.5t10.5 -18.5t14.5 -11.5z" />
    <glyph glyph-name="slash" unicode="/" 
d="M230 296l10 -9q-17 -25 -33 -42q-14 -15 -28.5 -24.5t-25.5 -1.5q-16 8 -18.5 26t-2.5 32q-15 -29 -27 -41.5t-21 -16.5q-11 -4 -19 0q-17 7 -21 23t1 36t16.5 42t25 41.5t26 33.5t19.5 19q11 11 22 11t19 -5q10 -5 19 -16h9q7 18 15.5 34t16.5 28q9 14 17 26l9 -10
q8 0 11.5 -1.5t5.5 -3.5t3 -4q-14 -22 -28 -45q-12 -20 -25.5 -42t-24.5 -40q-8 -19 -16 -39.5t-13 -38t-6 -28.5t6 -11q8 0 17.5 10t18.5 23q11 15 22 34zM192 395q-8 7 -16.5 7t-22.5 -7q-15 -8 -30.5 -34.5t-27.5 -56t-18 -52.5t-3 -23q7 -4 20.5 9.5t26.5 30.5
q15 20 32 47q7 23 19 43.5t20 35.5zM357 307v-11q-22 -36 -47.5 -57.5t-46.5 -25t-33.5 12t-9.5 51.5q4 41 19.5 68.5t32.5 44.5q20 20 45 33q23 0 32.5 -5.5t17.5 -13.5v-9q4 -8 0.5 -22.5t-11.5 -29t-20.5 -25.5t-27.5 -11q-8 0 -18.5 5.5t-10.5 13.5q-11 -15 -18 -32
t-10 -31.5t-1 -24t9 -9.5q11 -4 27.5 7.5t32.5 27.5q18 18 38 43zM279 335q8 0 10 -4.5t9 -4.5q4 0 9 6.5t11 15.5t11 19l9 18q-23 -8 -34 -21t-25 -29zM630 296v-9q-14 -25 -28 -42q-12 -15 -25.5 -24.5t-24.5 -1.5q-15 7 -19.5 17.5t-3.5 21t5.5 21t8.5 17.5q7 38 19 61
t20 38q-29 -26 -51 -57t-37 -57q-18 -31 -30 -62q-6 -6 -13 -4q-4 1 -7 4q-11 18 -8.5 41t10.5 47t19 47t18 41q-29 -30 -51 -61t-36 -57q-17 -30 -29 -58q-6 -6 -14 -4q-4 1 -6 4q-11 26 -2 60.5t25 66.5q18 37 46 77q14 0 22 -1.5t12 -3.5t5 -4q-26 -33 -41.5 -61.5
t-23.5 -49.5q-10 -25 -13 -45q14 37 37.5 67t45.5 52q26 26 53 46q11 0 17 -1.5t9 -3.5q4 -2 4 -4q-26 -33 -41.5 -61.5t-23.5 -49.5q-10 -25 -14 -45q15 37 37 67t43 52t37 34t20 12h19l20 -9q-6 -6 -12 -16q-5 -8 -12.5 -21t-14.5 -31q-11 -19 -21.5 -39.5t-16.5 -38
t-7 -28.5t6 -11q8 0 19 10t22 23q12 15 27 34zM747 296q-7 0 -9 -5q-1 -2 -1 -4v-10q-22 -33 -47.5 -49t-46.5 -15t-33.5 19.5t-8.5 54.5q7 36 25.5 64.5t32.5 43.5q8 0 15 -5t15 -5q0 8 5.5 19.5t13.5 18.5q7 7 18 0q5 -4 11 -9q4 0 7.5 -1.5t6.5 -3.5q4 -3 6 -5
q0 -7 5 -21.5t5 -36.5q-8 -8 -10 -20t-10 -19q11 3 19.5 9.5t15.5 13.5q8 8 14 16h10q-6 -14 -15 -25q-8 -10 -19 -17.5t-25 -7.5zM728 307q-23 7 -31 25.5t-8 32.5q-18 -18 -31 -40.5t-19.5 -42.5t-6.5 -35t8 -18q11 -4 23.5 1t24.5 16t22 27t18 34zM737 316q8 23 13 43.5
t-3 35.5l-10 9q-18 -18 -23 -32.5t-2 -25.5t10.5 -18.5t14.5 -11.5z" />
    <glyph glyph-name="colon" unicode=":" 
d="M230 296l10 -9q-17 -25 -33 -42q-14 -15 -28.5 -24.5t-25.5 -1.5q-16 8 -18.5 26t-2.5 32q-15 -29 -27 -41.5t-21 -16.5q-11 -4 -19 0q-17 7 -21 23t1 36t16.5 42t25 41.5t26 33.5t19.5 19q11 11 22 11t19 -5q10 -5 19 -16h9q7 18 15.5 34t16.5 28q9 14 17 26l9 -10
q8 0 11.5 -1.5t5.5 -3.5t3 -4q-14 -22 -28 -45q-12 -20 -25.5 -42t-24.5 -40q-8 -19 -16 -39.5t-13 -38t-6 -28.5t6 -11q8 0 17.5 10t18.5 23q11 15 22 34zM192 395q-8 7 -16.5 7t-22.5 -7q-15 -8 -30.5 -34.5t-27.5 -56t-18 -52.5t-3 -23q7 -4 20.5 9.5t26.5 30.5
q15 20 32 47q7 23 19 43.5t20 35.5zM357 307v-11q-22 -36 -47.5 -57.5t-46.5 -25t-33.5 12t-9.5 51.5q4 41 19.5 68.5t32.5 44.5q20 20 45 33q23 0 32.5 -5.5t17.5 -13.5v-9q4 -8 0.5 -22.5t-11.5 -29t-20.5 -25.5t-27.5 -11q-8 0 -18.5 5.5t-10.5 13.5q-11 -15 -18 -32
t-10 -31.5t-1 -24t9 -9.5q11 -4 27.5 7.5t32.5 27.5q18 18 38 43zM279 335q8 0 10 -4.5t9 -4.5q4 0 9 6.5t11 15.5t11 19l9 18q-23 -8 -34 -21t-25 -29zM630 296v-9q-14 -25 -28 -42q-12 -15 -25.5 -24.5t-24.5 -1.5q-15 7 -19.5 17.5t-3.5 21t5.5 21t8.5 17.5q7 38 19 61
t20 38q-29 -26 -51 -57t-37 -57q-18 -31 -30 -62q-6 -6 -13 -4q-4 1 -7 4q-11 18 -8.5 41t10.5 47t19 47t18 41q-29 -30 -51 -61t-36 -57q-17 -30 -29 -58q-6 -6 -14 -4q-4 1 -6 4q-11 26 -2 60.5t25 66.5q18 37 46 77q14 0 22 -1.5t12 -3.5t5 -4q-26 -33 -41.5 -61.5
t-23.5 -49.5q-10 -25 -13 -45q14 37 37.5 67t45.5 52q26 26 53 46q11 0 17 -1.5t9 -3.5q4 -2 4 -4q-26 -33 -41.5 -61.5t-23.5 -49.5q-10 -25 -14 -45q15 37 37 67t43 52t37 34t20 12h19l20 -9q-6 -6 -12 -16q-5 -8 -12.5 -21t-14.5 -31q-11 -19 -21.5 -39.5t-16.5 -38
t-7 -28.5t6 -11q8 0 19 10t22 23q12 15 27 34zM747 296q-7 0 -9 -5q-1 -2 -1 -4v-10q-22 -33 -47.5 -49t-46.5 -15t-33.5 19.5t-8.5 54.5q7 36 25.5 64.5t32.5 43.5q8 0 15 -5t15 -5q0 8 5.5 19.5t13.5 18.5q7 7 18 0q5 -4 11 -9q4 0 7.5 -1.5t6.5 -3.5q4 -3 6 -5
q0 -7 5 -21.5t5 -36.5q-8 -8 -10 -20t-10 -19q11 3 19.5 9.5t15.5 13.5q8 8 14 16h10q-6 -14 -15 -25q-8 -10 -19 -17.5t-25 -7.5zM728 307q-23 7 -31 25.5t-8 32.5q-18 -18 -31 -40.5t-19.5 -42.5t-6.5 -35t8 -18q11 -4 23.5 1t24.5 16t22 27t18 34zM737 316q8 23 13 43.5
t-3 35.5l-10 9q-18 -18 -23 -32.5t-2 -25.5t10.5 -18.5t14.5 -11.5z" />
    <glyph glyph-name="semicolon" unicode=";" 
d="M230 296l10 -9q-17 -25 -33 -42q-14 -15 -28.5 -24.5t-25.5 -1.5q-16 8 -18.5 26t-2.5 32q-15 -29 -27 -41.5t-21 -16.5q-11 -4 -19 0q-17 7 -21 23t1 36t16.5 42t25 41.5t26 33.5t19.5 19q11 11 22 11t19 -5q10 -5 19 -16h9q7 18 15.5 34t16.5 28q9 14 17 26l9 -10
q8 0 11.5 -1.5t5.5 -3.5t3 -4q-14 -22 -28 -45q-12 -20 -25.5 -42t-24.5 -40q-8 -19 -16 -39.5t-13 -38t-6 -28.5t6 -11q8 0 17.5 10t18.5 23q11 15 22 34zM192 395q-8 7 -16.5 7t-22.5 -7q-15 -8 -30.5 -34.5t-27.5 -56t-18 -52.5t-3 -23q7 -4 20.5 9.5t26.5 30.5
q15 20 32 47q7 23 19 43.5t20 35.5zM357 307v-11q-22 -36 -47.5 -57.5t-46.5 -25t-33.5 12t-9.5 51.5q4 41 19.5 68.5t32.5 44.5q20 20 45 33q23 0 32.5 -5.5t17.5 -13.5v-9q4 -8 0.5 -22.5t-11.5 -29t-20.5 -25.5t-27.5 -11q-8 0 -18.5 5.5t-10.5 13.5q-11 -15 -18 -32
t-10 -31.5t-1 -24t9 -9.5q11 -4 27.5 7.5t32.5 27.5q18 18 38 43zM279 335q8 0 10 -4.5t9 -4.5q4 0 9 6.5t11 15.5t11 19l9 18q-23 -8 -34 -21t-25 -29zM630 296v-9q-14 -25 -28 -42q-12 -15 -25.5 -24.5t-24.5 -1.5q-15 7 -19.5 17.5t-3.5 21t5.5 21t8.5 17.5q7 38 19 61
t20 38q-29 -26 -51 -57t-37 -57q-18 -31 -30 -62q-6 -6 -13 -4q-4 1 -7 4q-11 18 -8.5 41t10.5 47t19 47t18 41q-29 -30 -51 -61t-36 -57q-17 -30 -29 -58q-6 -6 -14 -4q-4 1 -6 4q-11 26 -2 60.5t25 66.5q18 37 46 77q14 0 22 -1.5t12 -3.5t5 -4q-26 -33 -41.5 -61.5
t-23.5 -49.5q-10 -25 -13 -45q14 37 37.5 67t45.5 52q26 26 53 46q11 0 17 -1.5t9 -3.5q4 -2 4 -4q-26 -33 -41.5 -61.5t-23.5 -49.5q-10 -25 -14 -45q15 37 37 67t43 52t37 34t20 12h19l20 -9q-6 -6 -12 -16q-5 -8 -12.5 -21t-14.5 -31q-11 -19 -21.5 -39.5t-16.5 -38
t-7 -28.5t6 -11q8 0 19 10t22 23q12 15 27 34zM747 296q-7 0 -9 -5q-1 -2 -1 -4v-10q-22 -33 -47.5 -49t-46.5 -15t-33.5 19.5t-8.5 54.5q7 36 25.5 64.5t32.5 43.5q8 0 15 -5t15 -5q0 8 5.5 19.5t13.5 18.5q7 7 18 0q5 -4 11 -9q4 0 7.5 -1.5t6.5 -3.5q4 -3 6 -5
q0 -7 5 -21.5t5 -36.5q-8 -8 -10 -20t-10 -19q11 3 19.5 9.5t15.5 13.5q8 8 14 16h10q-6 -14 -15 -25q-8 -10 -19 -17.5t-25 -7.5zM728 307q-23 7 -31 25.5t-8 32.5q-18 -18 -31 -40.5t-19.5 -42.5t-6.5 -35t8 -18q11 -4 23.5 1t24.5 16t22 27t18 34zM737 316q8 23 13 43.5
t-3 35.5l-10 9q-18 -18 -23 -32.5t-2 -25.5t10.5 -18.5t14.5 -11.5z" />
    <glyph glyph-name="less" unicode="&#x3c;" 
d="M230 296l10 -9q-17 -25 -33 -42q-14 -15 -28.5 -24.5t-25.5 -1.5q-16 8 -18.5 26t-2.5 32q-15 -29 -27 -41.5t-21 -16.5q-11 -4 -19 0q-17 7 -21 23t1 36t16.5 42t25 41.5t26 33.5t19.5 19q11 11 22 11t19 -5q10 -5 19 -16h9q7 18 15.5 34t16.5 28q9 14 17 26l9 -10
q8 0 11.5 -1.5t5.5 -3.5t3 -4q-14 -22 -28 -45q-12 -20 -25.5 -42t-24.5 -40q-8 -19 -16 -39.5t-13 -38t-6 -28.5t6 -11q8 0 17.5 10t18.5 23q11 15 22 34zM192 395q-8 7 -16.5 7t-22.5 -7q-15 -8 -30.5 -34.5t-27.5 -56t-18 -52.5t-3 -23q7 -4 20.5 9.5t26.5 30.5
q15 20 32 47q7 23 19 43.5t20 35.5zM357 307v-11q-22 -36 -47.5 -57.5t-46.5 -25t-33.5 12t-9.5 51.5q4 41 19.5 68.5t32.5 44.5q20 20 45 33q23 0 32.5 -5.5t17.5 -13.5v-9q4 -8 0.5 -22.5t-11.5 -29t-20.5 -25.5t-27.5 -11q-8 0 -18.5 5.5t-10.5 13.5q-11 -15 -18 -32
t-10 -31.5t-1 -24t9 -9.5q11 -4 27.5 7.5t32.5 27.5q18 18 38 43zM279 335q8 0 10 -4.5t9 -4.5q4 0 9 6.5t11 15.5t11 19l9 18q-23 -8 -34 -21t-25 -29zM630 296v-9q-14 -25 -28 -42q-12 -15 -25.5 -24.5t-24.5 -1.5q-15 7 -19.5 17.5t-3.5 21t5.5 21t8.5 17.5q7 38 19 61
t20 38q-29 -26 -51 -57t-37 -57q-18 -31 -30 -62q-6 -6 -13 -4q-4 1 -7 4q-11 18 -8.5 41t10.5 47t19 47t18 41q-29 -30 -51 -61t-36 -57q-17 -30 -29 -58q-6 -6 -14 -4q-4 1 -6 4q-11 26 -2 60.5t25 66.5q18 37 46 77q14 0 22 -1.5t12 -3.5t5 -4q-26 -33 -41.5 -61.5
t-23.5 -49.5q-10 -25 -13 -45q14 37 37.5 67t45.5 52q26 26 53 46q11 0 17 -1.5t9 -3.5q4 -2 4 -4q-26 -33 -41.5 -61.5t-23.5 -49.5q-10 -25 -14 -45q15 37 37 67t43 52t37 34t20 12h19l20 -9q-6 -6 -12 -16q-5 -8 -12.5 -21t-14.5 -31q-11 -19 -21.5 -39.5t-16.5 -38
t-7 -28.5t6 -11q8 0 19 10t22 23q12 15 27 34zM747 296q-7 0 -9 -5q-1 -2 -1 -4v-10q-22 -33 -47.5 -49t-46.5 -15t-33.5 19.5t-8.5 54.5q7 36 25.5 64.5t32.5 43.5q8 0 15 -5t15 -5q0 8 5.5 19.5t13.5 18.5q7 7 18 0q5 -4 11 -9q4 0 7.5 -1.5t6.5 -3.5q4 -3 6 -5
q0 -7 5 -21.5t5 -36.5q-8 -8 -10 -20t-10 -19q11 3 19.5 9.5t15.5 13.5q8 8 14 16h10q-6 -14 -15 -25q-8 -10 -19 -17.5t-25 -7.5zM728 307q-23 7 -31 25.5t-8 32.5q-18 -18 -31 -40.5t-19.5 -42.5t-6.5 -35t8 -18q11 -4 23.5 1t24.5 16t22 27t18 34zM737 316q8 23 13 43.5
t-3 35.5l-10 9q-18 -18 -23 -32.5t-2 -25.5t10.5 -18.5t14.5 -11.5z" />
    <glyph glyph-name="equal" unicode="=" 
d="M230 296l10 -9q-17 -25 -33 -42q-14 -15 -28.5 -24.5t-25.5 -1.5q-16 8 -18.5 26t-2.5 32q-15 -29 -27 -41.5t-21 -16.5q-11 -4 -19 0q-17 7 -21 23t1 36t16.5 42t25 41.5t26 33.5t19.5 19q11 11 22 11t19 -5q10 -5 19 -16h9q7 18 15.5 34t16.5 28q9 14 17 26l9 -10
q8 0 11.5 -1.5t5.5 -3.5t3 -4q-14 -22 -28 -45q-12 -20 -25.5 -42t-24.5 -40q-8 -19 -16 -39.5t-13 -38t-6 -28.5t6 -11q8 0 17.5 10t18.5 23q11 15 22 34zM192 395q-8 7 -16.5 7t-22.5 -7q-15 -8 -30.5 -34.5t-27.5 -56t-18 -52.5t-3 -23q7 -4 20.5 9.5t26.5 30.5
q15 20 32 47q7 23 19 43.5t20 35.5zM357 307v-11q-22 -36 -47.5 -57.5t-46.5 -25t-33.5 12t-9.5 51.5q4 41 19.5 68.5t32.5 44.5q20 20 45 33q23 0 32.5 -5.5t17.5 -13.5v-9q4 -8 0.5 -22.5t-11.5 -29t-20.5 -25.5t-27.5 -11q-8 0 -18.5 5.5t-10.5 13.5q-11 -15 -18 -32
t-10 -31.5t-1 -24t9 -9.5q11 -4 27.5 7.5t32.5 27.5q18 18 38 43zM279 335q8 0 10 -4.5t9 -4.5q4 0 9 6.5t11 15.5t11 19l9 18q-23 -8 -34 -21t-25 -29zM630 296v-9q-14 -25 -28 -42q-12 -15 -25.5 -24.5t-24.5 -1.5q-15 7 -19.5 17.5t-3.5 21t5.5 21t8.5 17.5q7 38 19 61
t20 38q-29 -26 -51 -57t-37 -57q-18 -31 -30 -62q-6 -6 -13 -4q-4 1 -7 4q-11 18 -8.5 41t10.5 47t19 47t18 41q-29 -30 -51 -61t-36 -57q-17 -30 -29 -58q-6 -6 -14 -4q-4 1 -6 4q-11 26 -2 60.5t25 66.5q18 37 46 77q14 0 22 -1.5t12 -3.5t5 -4q-26 -33 -41.5 -61.5
t-23.5 -49.5q-10 -25 -13 -45q14 37 37.5 67t45.5 52q26 26 53 46q11 0 17 -1.5t9 -3.5q4 -2 4 -4q-26 -33 -41.5 -61.5t-23.5 -49.5q-10 -25 -14 -45q15 37 37 67t43 52t37 34t20 12h19l20 -9q-6 -6 -12 -16q-5 -8 -12.5 -21t-14.5 -31q-11 -19 -21.5 -39.5t-16.5 -38
t-7 -28.5t6 -11q8 0 19 10t22 23q12 15 27 34zM747 296q-7 0 -9 -5q-1 -2 -1 -4v-10q-22 -33 -47.5 -49t-46.5 -15t-33.5 19.5t-8.5 54.5q7 36 25.5 64.5t32.5 43.5q8 0 15 -5t15 -5q0 8 5.5 19.5t13.5 18.5q7 7 18 0q5 -4 11 -9q4 0 7.5 -1.5t6.5 -3.5q4 -3 6 -5
q0 -7 5 -21.5t5 -36.5q-8 -8 -10 -20t-10 -19q11 3 19.5 9.5t15.5 13.5q8 8 14 16h10q-6 -14 -15 -25q-8 -10 -19 -17.5t-25 -7.5zM728 307q-23 7 -31 25.5t-8 32.5q-18 -18 -31 -40.5t-19.5 -42.5t-6.5 -35t8 -18q11 -4 23.5 1t24.5 16t22 27t18 34zM737 316q8 23 13 43.5
t-3 35.5l-10 9q-18 -18 -23 -32.5t-2 -25.5t10.5 -18.5t14.5 -11.5z" />
    <glyph glyph-name="greater" unicode="&#x3e;" 
d="M230 296l10 -9q-17 -25 -33 -42q-14 -15 -28.5 -24.5t-25.5 -1.5q-16 8 -18.5 26t-2.5 32q-15 -29 -27 -41.5t-21 -16.5q-11 -4 -19 0q-17 7 -21 23t1 36t16.5 42t25 41.5t26 33.5t19.5 19q11 11 22 11t19 -5q10 -5 19 -16h9q7 18 15.5 34t16.5 28q9 14 17 26l9 -10
q8 0 11.5 -1.5t5.5 -3.5t3 -4q-14 -22 -28 -45q-12 -20 -25.5 -42t-24.5 -40q-8 -19 -16 -39.5t-13 -38t-6 -28.5t6 -11q8 0 17.5 10t18.5 23q11 15 22 34zM192 395q-8 7 -16.5 7t-22.5 -7q-15 -8 -30.5 -34.5t-27.5 -56t-18 -52.5t-3 -23q7 -4 20.5 9.5t26.5 30.5
q15 20 32 47q7 23 19 43.5t20 35.5zM357 307v-11q-22 -36 -47.5 -57.5t-46.5 -25t-33.5 12t-9.5 51.5q4 41 19.5 68.5t32.5 44.5q20 20 45 33q23 0 32.5 -5.5t17.5 -13.5v-9q4 -8 0.5 -22.5t-11.5 -29t-20.5 -25.5t-27.5 -11q-8 0 -18.5 5.5t-10.5 13.5q-11 -15 -18 -32
t-10 -31.5t-1 -24t9 -9.5q11 -4 27.5 7.5t32.5 27.5q18 18 38 43zM279 335q8 0 10 -4.5t9 -4.5q4 0 9 6.5t11 15.5t11 19l9 18q-23 -8 -34 -21t-25 -29zM630 296v-9q-14 -25 -28 -42q-12 -15 -25.5 -24.5t-24.5 -1.5q-15 7 -19.5 17.5t-3.5 21t5.5 21t8.5 17.5q7 38 19 61
t20 38q-29 -26 -51 -57t-37 -57q-18 -31 -30 -62q-6 -6 -13 -4q-4 1 -7 4q-11 18 -8.5 41t10.5 47t19 47t18 41q-29 -30 -51 -61t-36 -57q-17 -30 -29 -58q-6 -6 -14 -4q-4 1 -6 4q-11 26 -2 60.5t25 66.5q18 37 46 77q14 0 22 -1.5t12 -3.5t5 -4q-26 -33 -41.5 -61.5
t-23.5 -49.5q-10 -25 -13 -45q14 37 37.5 67t45.5 52q26 26 53 46q11 0 17 -1.5t9 -3.5q4 -2 4 -4q-26 -33 -41.5 -61.5t-23.5 -49.5q-10 -25 -14 -45q15 37 37 67t43 52t37 34t20 12h19l20 -9q-6 -6 -12 -16q-5 -8 -12.5 -21t-14.5 -31q-11 -19 -21.5 -39.5t-16.5 -38
t-7 -28.5t6 -11q8 0 19 10t22 23q12 15 27 34zM747 296q-7 0 -9 -5q-1 -2 -1 -4v-10q-22 -33 -47.5 -49t-46.5 -15t-33.5 19.5t-8.5 54.5q7 36 25.5 64.5t32.5 43.5q8 0 15 -5t15 -5q0 8 5.5 19.5t13.5 18.5q7 7 18 0q5 -4 11 -9q4 0 7.5 -1.5t6.5 -3.5q4 -3 6 -5
q0 -7 5 -21.5t5 -36.5q-8 -8 -10 -20t-10 -19q11 3 19.5 9.5t15.5 13.5q8 8 14 16h10q-6 -14 -15 -25q-8 -10 -19 -17.5t-25 -7.5zM728 307q-23 7 -31 25.5t-8 32.5q-18 -18 -31 -40.5t-19.5 -42.5t-6.5 -35t8 -18q11 -4 23.5 1t24.5 16t22 27t18 34zM737 316q8 23 13 43.5
t-3 35.5l-10 9q-18 -18 -23 -32.5t-2 -25.5t10.5 -18.5t14.5 -11.5z" />
    <glyph glyph-name="at" unicode="@" 
d="M230 296l10 -9q-17 -25 -33 -42q-14 -15 -28.5 -24.5t-25.5 -1.5q-16 8 -18.5 26t-2.5 32q-15 -29 -27 -41.5t-21 -16.5q-11 -4 -19 0q-17 7 -21 23t1 36t16.5 42t25 41.5t26 33.5t19.5 19q11 11 22 11t19 -5q10 -5 19 -16h9q7 18 15.5 34t16.5 28q9 14 17 26l9 -10
q8 0 11.5 -1.5t5.5 -3.5t3 -4q-14 -22 -28 -45q-12 -20 -25.5 -42t-24.5 -40q-8 -19 -16 -39.5t-13 -38t-6 -28.5t6 -11q8 0 17.5 10t18.5 23q11 15 22 34zM192 395q-8 7 -16.5 7t-22.5 -7q-15 -8 -30.5 -34.5t-27.5 -56t-18 -52.5t-3 -23q7 -4 20.5 9.5t26.5 30.5
q15 20 32 47q7 23 19 43.5t20 35.5zM357 307v-11q-22 -36 -47.5 -57.5t-46.5 -25t-33.5 12t-9.5 51.5q4 41 19.5 68.5t32.5 44.5q20 20 45 33q23 0 32.5 -5.5t17.5 -13.5v-9q4 -8 0.5 -22.5t-11.5 -29t-20.5 -25.5t-27.5 -11q-8 0 -18.5 5.5t-10.5 13.5q-11 -15 -18 -32
t-10 -31.5t-1 -24t9 -9.5q11 -4 27.5 7.5t32.5 27.5q18 18 38 43zM279 335q8 0 10 -4.5t9 -4.5q4 0 9 6.5t11 15.5t11 19l9 18q-23 -8 -34 -21t-25 -29zM630 296v-9q-14 -25 -28 -42q-12 -15 -25.5 -24.5t-24.5 -1.5q-15 7 -19.5 17.5t-3.5 21t5.5 21t8.5 17.5q7 38 19 61
t20 38q-29 -26 -51 -57t-37 -57q-18 -31 -30 -62q-6 -6 -13 -4q-4 1 -7 4q-11 18 -8.5 41t10.5 47t19 47t18 41q-29 -30 -51 -61t-36 -57q-17 -30 -29 -58q-6 -6 -14 -4q-4 1 -6 4q-11 26 -2 60.5t25 66.5q18 37 46 77q14 0 22 -1.5t12 -3.5t5 -4q-26 -33 -41.5 -61.5
t-23.5 -49.5q-10 -25 -13 -45q14 37 37.5 67t45.5 52q26 26 53 46q11 0 17 -1.5t9 -3.5q4 -2 4 -4q-26 -33 -41.5 -61.5t-23.5 -49.5q-10 -25 -14 -45q15 37 37 67t43 52t37 34t20 12h19l20 -9q-6 -6 -12 -16q-5 -8 -12.5 -21t-14.5 -31q-11 -19 -21.5 -39.5t-16.5 -38
t-7 -28.5t6 -11q8 0 19 10t22 23q12 15 27 34zM747 296q-7 0 -9 -5q-1 -2 -1 -4v-10q-22 -33 -47.5 -49t-46.5 -15t-33.5 19.5t-8.5 54.5q7 36 25.5 64.5t32.5 43.5q8 0 15 -5t15 -5q0 8 5.5 19.5t13.5 18.5q7 7 18 0q5 -4 11 -9q4 0 7.5 -1.5t6.5 -3.5q4 -3 6 -5
q0 -7 5 -21.5t5 -36.5q-8 -8 -10 -20t-10 -19q11 3 19.5 9.5t15.5 13.5q8 8 14 16h10q-6 -14 -15 -25q-8 -10 -19 -17.5t-25 -7.5zM728 307q-23 7 -31 25.5t-8 32.5q-18 -18 -31 -40.5t-19.5 -42.5t-6.5 -35t8 -18q11 -4 23.5 1t24.5 16t22 27t18 34zM737 316q8 23 13 43.5
t-3 35.5l-10 9q-18 -18 -23 -32.5t-2 -25.5t10.5 -18.5t14.5 -11.5z" />
    <glyph glyph-name="numbersign" unicode="#" 
d="M230 296l10 -9q-17 -25 -33 -42q-14 -15 -28.5 -24.5t-25.5 -1.5q-16 8 -18.5 26t-2.5 32q-15 -29 -27 -41.5t-21 -16.5q-11 -4 -19 0q-17 7 -21 23t1 36t16.5 42t25 41.5t26 33.5t19.5 19q11 11 22 11t19 -5q10 -5 19 -16h9q7 18 15.5 34t16.5 28q9 14 17 26l9 -10
q8 0 11.5 -1.5t5.5 -3.5t3 -4q-14 -22 -28 -45q-12 -20 -25.5 -42t-24.5 -40q-8 -19 -16 -39.5t-13 -38t-6 -28.5t6 -11q8 0 17.5 10t18.5 23q11 15 22 34zM192 395q-8 7 -16.5 7t-22.5 -7q-15 -8 -30.5 -34.5t-27.5 -56t-18 -52.5t-3 -23q7 -4 20.5 9.5t26.5 30.5
q15 20 32 47q7 23 19 43.5t20 35.5zM357 307v-11q-22 -36 -47.5 -57.5t-46.5 -25t-33.5 12t-9.5 51.5q4 41 19.5 68.5t32.5 44.5q20 20 45 33q23 0 32.5 -5.5t17.5 -13.5v-9q4 -8 0.5 -22.5t-11.5 -29t-20.5 -25.5t-27.5 -11q-8 0 -18.5 5.5t-10.5 13.5q-11 -15 -18 -32
t-10 -31.5t-1 -24t9 -9.5q11 -4 27.5 7.5t32.5 27.5q18 18 38 43zM279 335q8 0 10 -4.5t9 -4.5q4 0 9 6.5t11 15.5t11 19l9 18q-23 -8 -34 -21t-25 -29zM630 296v-9q-14 -25 -28 -42q-12 -15 -25.5 -24.5t-24.5 -1.5q-15 7 -19.5 17.5t-3.5 21t5.5 21t8.5 17.5q7 38 19 61
t20 38q-29 -26 -51 -57t-37 -57q-18 -31 -30 -62q-6 -6 -13 -4q-4 1 -7 4q-11 18 -8.5 41t10.5 47t19 47t18 41q-29 -30 -51 -61t-36 -57q-17 -30 -29 -58q-6 -6 -14 -4q-4 1 -6 4q-11 26 -2 60.5t25 66.5q18 37 46 77q14 0 22 -1.5t12 -3.5t5 -4q-26 -33 -41.5 -61.5
t-23.5 -49.5q-10 -25 -13 -45q14 37 37.5 67t45.5 52q26 26 53 46q11 0 17 -1.5t9 -3.5q4 -2 4 -4q-26 -33 -41.5 -61.5t-23.5 -49.5q-10 -25 -14 -45q15 37 37 67t43 52t37 34t20 12h19l20 -9q-6 -6 -12 -16q-5 -8 -12.5 -21t-14.5 -31q-11 -19 -21.5 -39.5t-16.5 -38
t-7 -28.5t6 -11q8 0 19 10t22 23q12 15 27 34zM747 296q-7 0 -9 -5q-1 -2 -1 -4v-10q-22 -33 -47.5 -49t-46.5 -15t-33.5 19.5t-8.5 54.5q7 36 25.5 64.5t32.5 43.5q8 0 15 -5t15 -5q0 8 5.5 19.5t13.5 18.5q7 7 18 0q5 -4 11 -9q4 0 7.5 -1.5t6.5 -3.5q4 -3 6 -5
q0 -7 5 -21.5t5 -36.5q-8 -8 -10 -20t-10 -19q11 3 19.5 9.5t15.5 13.5q8 8 14 16h10q-6 -14 -15 -25q-8 -10 -19 -17.5t-25 -7.5zM728 307q-23 7 -31 25.5t-8 32.5q-18 -18 -31 -40.5t-19.5 -42.5t-6.5 -35t8 -18q11 -4 23.5 1t24.5 16t22 27t18 34zM737 316q8 23 13 43.5
t-3 35.5l-10 9q-18 -18 -23 -32.5t-2 -25.5t10.5 -18.5t14.5 -11.5z" />
    <glyph glyph-name="dollar" unicode="$" horiz-adv-x="472" 
d="M230 296l10 -9q-17 -25 -33 -42q-14 -15 -28.5 -24.5t-25.5 -1.5q-16 8 -18.5 26t-2.5 32q-15 -29 -27 -41.5t-21 -16.5q-11 -4 -19 0q-17 7 -21 23t1 36t16.5 42t25 41.5t26 33.5t19.5 19q11 11 22 11t19 -5q10 -5 19 -16h9q7 18 15.5 34t16.5 28q9 14 17 26l9 -10
q8 0 11.5 -1.5t5.5 -3.5t3 -4q-14 -22 -28 -45q-12 -20 -25.5 -42t-24.5 -40q-8 -19 -16 -39.5t-13 -38t-6 -28.5t6 -11q8 0 17.5 10t18.5 23q11 15 22 34zM192 395q-8 7 -16.5 7t-22.5 -7q-15 -8 -30.5 -34.5t-27.5 -56t-18 -52.5t-3 -23q7 -4 20.5 9.5t26.5 30.5
q15 20 32 47q7 23 19 43.5t20 35.5zM357 307v-11q-22 -36 -47.5 -57.5t-46.5 -25t-33.5 12t-9.5 51.5q4 41 19.5 68.5t32.5 44.5q20 20 45 33q23 0 32.5 -5.5t17.5 -13.5v-9q4 -8 0.5 -22.5t-11.5 -29t-20.5 -25.5t-27.5 -11q-8 0 -18.5 5.5t-10.5 13.5q-11 -15 -18 -32
t-10 -31.5t-1 -24t9 -9.5q11 -4 27.5 7.5t32.5 27.5q18 18 38 43zM279 335q8 0 10 -4.5t9 -4.5q4 0 9 6.5t11 15.5t11 19l9 18q-23 -8 -34 -21t-25 -29zM630 296v-9q-14 -25 -28 -42q-12 -15 -25.5 -24.5t-24.5 -1.5q-15 7 -19.5 17.5t-3.5 21t5.5 21t8.5 17.5q7 38 19 61
t20 38q-29 -26 -51 -57t-37 -57q-18 -31 -30 -62q-6 -6 -13 -4q-4 1 -7 4q-11 18 -8.5 41t10.5 47t19 47t18 41q-29 -30 -51 -61t-36 -57q-17 -30 -29 -58q-6 -6 -14 -4q-4 1 -6 4q-11 26 -2 60.5t25 66.5q18 37 46 77q14 0 22 -1.5t12 -3.5t5 -4q-26 -33 -41.5 -61.5
t-23.5 -49.5q-10 -25 -13 -45q14 37 37.5 67t45.5 52q26 26 53 46q11 0 17 -1.5t9 -3.5q4 -2 4 -4q-26 -33 -41.5 -61.5t-23.5 -49.5q-10 -25 -14 -45q15 37 37 67t43 52t37 34t20 12h19l20 -9q-6 -6 -12 -16q-5 -8 -12.5 -21t-14.5 -31q-11 -19 -21.5 -39.5t-16.5 -38
t-7 -28.5t6 -11q8 0 19 10t22 23q12 15 27 34zM747 296q-7 0 -9 -5q-1 -2 -1 -4v-10q-22 -33 -47.5 -49t-46.5 -15t-33.5 19.5t-8.5 54.5q7 36 25.5 64.5t32.5 43.5q8 0 15 -5t15 -5q0 8 5.5 19.5t13.5 18.5q7 7 18 0q5 -4 11 -9q4 0 7.5 -1.5t6.5 -3.5q4 -3 6 -5
q0 -7 5 -21.5t5 -36.5q-8 -8 -10 -20t-10 -19q11 3 19.5 9.5t15.5 13.5q8 8 14 16h10q-6 -14 -15 -25q-8 -10 -19 -17.5t-25 -7.5zM728 307q-23 7 -31 25.5t-8 32.5q-18 -18 -31 -40.5t-19.5 -42.5t-6.5 -35t8 -18q11 -4 23.5 1t24.5 16t22 27t18 34zM737 316q8 23 13 43.5
t-3 35.5l-10 9q-18 -18 -23 -32.5t-2 -25.5t10.5 -18.5t14.5 -11.5z" />
    <glyph glyph-name="percent" unicode="%" 
d="M230 296l10 -9q-17 -25 -33 -42q-14 -15 -28.5 -24.5t-25.5 -1.5q-16 8 -18.5 26t-2.5 32q-15 -29 -27 -41.5t-21 -16.5q-11 -4 -19 0q-17 7 -21 23t1 36t16.5 42t25 41.5t26 33.5t19.5 19q11 11 22 11t19 -5q10 -5 19 -16h9q7 18 15.5 34t16.5 28q9 14 17 26l9 -10
q8 0 11.5 -1.5t5.5 -3.5t3 -4q-14 -22 -28 -45q-12 -20 -25.5 -42t-24.5 -40q-8 -19 -16 -39.5t-13 -38t-6 -28.5t6 -11q8 0 17.5 10t18.5 23q11 15 22 34zM192 395q-8 7 -16.5 7t-22.5 -7q-15 -8 -30.5 -34.5t-27.5 -56t-18 -52.5t-3 -23q7 -4 20.5 9.5t26.5 30.5
q15 20 32 47q7 23 19 43.5t20 35.5zM357 307v-11q-22 -36 -47.5 -57.5t-46.5 -25t-33.5 12t-9.5 51.5q4 41 19.5 68.5t32.5 44.5q20 20 45 33q23 0 32.5 -5.5t17.5 -13.5v-9q4 -8 0.5 -22.5t-11.5 -29t-20.5 -25.5t-27.5 -11q-8 0 -18.5 5.5t-10.5 13.5q-11 -15 -18 -32
t-10 -31.5t-1 -24t9 -9.5q11 -4 27.5 7.5t32.5 27.5q18 18 38 43zM279 335q8 0 10 -4.5t9 -4.5q4 0 9 6.5t11 15.5t11 19l9 18q-23 -8 -34 -21t-25 -29zM630 296v-9q-14 -25 -28 -42q-12 -15 -25.5 -24.5t-24.5 -1.5q-15 7 -19.5 17.5t-3.5 21t5.5 21t8.5 17.5q7 38 19 61
t20 38q-29 -26 -51 -57t-37 -57q-18 -31 -30 -62q-6 -6 -13 -4q-4 1 -7 4q-11 18 -8.5 41t10.5 47t19 47t18 41q-29 -30 -51 -61t-36 -57q-17 -30 -29 -58q-6 -6 -14 -4q-4 1 -6 4q-11 26 -2 60.5t25 66.5q18 37 46 77q14 0 22 -1.5t12 -3.5t5 -4q-26 -33 -41.5 -61.5
t-23.5 -49.5q-10 -25 -13 -45q14 37 37.5 67t45.5 52q26 26 53 46q11 0 17 -1.5t9 -3.5q4 -2 4 -4q-26 -33 -41.5 -61.5t-23.5 -49.5q-10 -25 -14 -45q15 37 37 67t43 52t37 34t20 12h19l20 -9q-6 -6 -12 -16q-5 -8 -12.5 -21t-14.5 -31q-11 -19 -21.5 -39.5t-16.5 -38
t-7 -28.5t6 -11q8 0 19 10t22 23q12 15 27 34zM747 296q-7 0 -9 -5q-1 -2 -1 -4v-10q-22 -33 -47.5 -49t-46.5 -15t-33.5 19.5t-8.5 54.5q7 36 25.5 64.5t32.5 43.5q8 0 15 -5t15 -5q0 8 5.5 19.5t13.5 18.5q7 7 18 0q5 -4 11 -9q4 0 7.5 -1.5t6.5 -3.5q4 -3 6 -5
q0 -7 5 -21.5t5 -36.5q-8 -8 -10 -20t-10 -19q11 3 19.5 9.5t15.5 13.5q8 8 14 16h10q-6 -14 -15 -25q-8 -10 -19 -17.5t-25 -7.5zM728 307q-23 7 -31 25.5t-8 32.5q-18 -18 -31 -40.5t-19.5 -42.5t-6.5 -35t8 -18q11 -4 23.5 1t24.5 16t22 27t18 34zM737 316q8 23 13 43.5
t-3 35.5l-10 9q-18 -18 -23 -32.5t-2 -25.5t10.5 -18.5t14.5 -11.5z" />
    <glyph glyph-name="bracketleft" unicode="[" 
d="M230 296l10 -9q-17 -25 -33 -42q-14 -15 -28.5 -24.5t-25.5 -1.5q-16 8 -18.5 26t-2.5 32q-15 -29 -27 -41.5t-21 -16.5q-11 -4 -19 0q-17 7 -21 23t1 36t16.5 42t25 41.5t26 33.5t19.5 19q11 11 22 11t19 -5q10 -5 19 -16h9q7 18 15.5 34t16.5 28q9 14 17 26l9 -10
q8 0 11.5 -1.5t5.5 -3.5t3 -4q-14 -22 -28 -45q-12 -20 -25.5 -42t-24.5 -40q-8 -19 -16 -39.5t-13 -38t-6 -28.5t6 -11q8 0 17.5 10t18.5 23q11 15 22 34zM192 395q-8 7 -16.5 7t-22.5 -7q-15 -8 -30.5 -34.5t-27.5 -56t-18 -52.5t-3 -23q7 -4 20.5 9.5t26.5 30.5
q15 20 32 47q7 23 19 43.5t20 35.5zM357 307v-11q-22 -36 -47.5 -57.5t-46.5 -25t-33.5 12t-9.5 51.5q4 41 19.5 68.5t32.5 44.5q20 20 45 33q23 0 32.5 -5.5t17.5 -13.5v-9q4 -8 0.5 -22.5t-11.5 -29t-20.5 -25.5t-27.5 -11q-8 0 -18.5 5.5t-10.5 13.5q-11 -15 -18 -32
t-10 -31.5t-1 -24t9 -9.5q11 -4 27.5 7.5t32.5 27.5q18 18 38 43zM279 335q8 0 10 -4.5t9 -4.5q4 0 9 6.5t11 15.5t11 19l9 18q-23 -8 -34 -21t-25 -29zM630 296v-9q-14 -25 -28 -42q-12 -15 -25.5 -24.5t-24.5 -1.5q-15 7 -19.5 17.5t-3.5 21t5.5 21t8.5 17.5q7 38 19 61
t20 38q-29 -26 -51 -57t-37 -57q-18 -31 -30 -62q-6 -6 -13 -4q-4 1 -7 4q-11 18 -8.5 41t10.5 47t19 47t18 41q-29 -30 -51 -61t-36 -57q-17 -30 -29 -58q-6 -6 -14 -4q-4 1 -6 4q-11 26 -2 60.5t25 66.5q18 37 46 77q14 0 22 -1.5t12 -3.5t5 -4q-26 -33 -41.5 -61.5
t-23.5 -49.5q-10 -25 -13 -45q14 37 37.5 67t45.5 52q26 26 53 46q11 0 17 -1.5t9 -3.5q4 -2 4 -4q-26 -33 -41.5 -61.5t-23.5 -49.5q-10 -25 -14 -45q15 37 37 67t43 52t37 34t20 12h19l20 -9q-6 -6 -12 -16q-5 -8 -12.5 -21t-14.5 -31q-11 -19 -21.5 -39.5t-16.5 -38
t-7 -28.5t6 -11q8 0 19 10t22 23q12 15 27 34zM747 296q-7 0 -9 -5q-1 -2 -1 -4v-10q-22 -33 -47.5 -49t-46.5 -15t-33.5 19.5t-8.5 54.5q7 36 25.5 64.5t32.5 43.5q8 0 15 -5t15 -5q0 8 5.5 19.5t13.5 18.5q7 7 18 0q5 -4 11 -9q4 0 7.5 -1.5t6.5 -3.5q4 -3 6 -5
q0 -7 5 -21.5t5 -36.5q-8 -8 -10 -20t-10 -19q11 3 19.5 9.5t15.5 13.5q8 8 14 16h10q-6 -14 -15 -25q-8 -10 -19 -17.5t-25 -7.5zM728 307q-23 7 -31 25.5t-8 32.5q-18 -18 -31 -40.5t-19.5 -42.5t-6.5 -35t8 -18q11 -4 23.5 1t24.5 16t22 27t18 34zM737 316q8 23 13 43.5
t-3 35.5l-10 9q-18 -18 -23 -32.5t-2 -25.5t10.5 -18.5t14.5 -11.5z" />
    <glyph glyph-name="backslash" unicode="\" 
d="M230 296l10 -9q-17 -25 -33 -42q-14 -15 -28.5 -24.5t-25.5 -1.5q-16 8 -18.5 26t-2.5 32q-15 -29 -27 -41.5t-21 -16.5q-11 -4 -19 0q-17 7 -21 23t1 36t16.5 42t25 41.5t26 33.5t19.5 19q11 11 22 11t19 -5q10 -5 19 -16h9q7 18 15.5 34t16.5 28q9 14 17 26l9 -10
q8 0 11.5 -1.5t5.5 -3.5t3 -4q-14 -22 -28 -45q-12 -20 -25.5 -42t-24.5 -40q-8 -19 -16 -39.5t-13 -38t-6 -28.5t6 -11q8 0 17.5 10t18.5 23q11 15 22 34zM192 395q-8 7 -16.5 7t-22.5 -7q-15 -8 -30.5 -34.5t-27.5 -56t-18 -52.5t-3 -23q7 -4 20.5 9.5t26.5 30.5
q15 20 32 47q7 23 19 43.5t20 35.5zM357 307v-11q-22 -36 -47.5 -57.5t-46.5 -25t-33.5 12t-9.5 51.5q4 41 19.5 68.5t32.5 44.5q20 20 45 33q23 0 32.5 -5.5t17.5 -13.5v-9q4 -8 0.5 -22.5t-11.5 -29t-20.5 -25.5t-27.5 -11q-8 0 -18.5 5.5t-10.5 13.5q-11 -15 -18 -32
t-10 -31.5t-1 -24t9 -9.5q11 -4 27.5 7.5t32.5 27.5q18 18 38 43zM279 335q8 0 10 -4.5t9 -4.5q4 0 9 6.5t11 15.5t11 19l9 18q-23 -8 -34 -21t-25 -29zM630 296v-9q-14 -25 -28 -42q-12 -15 -25.5 -24.5t-24.5 -1.5q-15 7 -19.5 17.5t-3.5 21t5.5 21t8.5 17.5q7 38 19 61
t20 38q-29 -26 -51 -57t-37 -57q-18 -31 -30 -62q-6 -6 -13 -4q-4 1 -7 4q-11 18 -8.5 41t10.5 47t19 47t18 41q-29 -30 -51 -61t-36 -57q-17 -30 -29 -58q-6 -6 -14 -4q-4 1 -6 4q-11 26 -2 60.5t25 66.5q18 37 46 77q14 0 22 -1.5t12 -3.5t5 -4q-26 -33 -41.5 -61.5
t-23.5 -49.5q-10 -25 -13 -45q14 37 37.5 67t45.5 52q26 26 53 46q11 0 17 -1.5t9 -3.5q4 -2 4 -4q-26 -33 -41.5 -61.5t-23.5 -49.5q-10 -25 -14 -45q15 37 37 67t43 52t37 34t20 12h19l20 -9q-6 -6 -12 -16q-5 -8 -12.5 -21t-14.5 -31q-11 -19 -21.5 -39.5t-16.5 -38
t-7 -28.5t6 -11q8 0 19 10t22 23q12 15 27 34zM747 296q-7 0 -9 -5q-1 -2 -1 -4v-10q-22 -33 -47.5 -49t-46.5 -15t-33.5 19.5t-8.5 54.5q7 36 25.5 64.5t32.5 43.5q8 0 15 -5t15 -5q0 8 5.5 19.5t13.5 18.5q7 7 18 0q5 -4 11 -9q4 0 7.5 -1.5t6.5 -3.5q4 -3 6 -5
q0 -7 5 -21.5t5 -36.5q-8 -8 -10 -20t-10 -19q11 3 19.5 9.5t15.5 13.5q8 8 14 16h10q-6 -14 -15 -25q-8 -10 -19 -17.5t-25 -7.5zM728 307q-23 7 -31 25.5t-8 32.5q-18 -18 -31 -40.5t-19.5 -42.5t-6.5 -35t8 -18q11 -4 23.5 1t24.5 16t22 27t18 34zM737 316q8 23 13 43.5
t-3 35.5l-10 9q-18 -18 -23 -32.5t-2 -25.5t10.5 -18.5t14.5 -11.5z" />
    <glyph glyph-name="bracketright" unicode="]" 
d="M230 296l10 -9q-17 -25 -33 -42q-14 -15 -28.5 -24.5t-25.5 -1.5q-16 8 -18.5 26t-2.5 32q-15 -29 -27 -41.5t-21 -16.5q-11 -4 -19 0q-17 7 -21 23t1 36t16.5 42t25 41.5t26 33.5t19.5 19q11 11 22 11t19 -5q10 -5 19 -16h9q7 18 15.5 34t16.5 28q9 14 17 26l9 -10
q8 0 11.5 -1.5t5.5 -3.5t3 -4q-14 -22 -28 -45q-12 -20 -25.5 -42t-24.5 -40q-8 -19 -16 -39.5t-13 -38t-6 -28.5t6 -11q8 0 17.5 10t18.5 23q11 15 22 34zM192 395q-8 7 -16.5 7t-22.5 -7q-15 -8 -30.5 -34.5t-27.5 -56t-18 -52.5t-3 -23q7 -4 20.5 9.5t26.5 30.5
q15 20 32 47q7 23 19 43.5t20 35.5zM357 307v-11q-22 -36 -47.5 -57.5t-46.5 -25t-33.5 12t-9.5 51.5q4 41 19.5 68.5t32.5 44.5q20 20 45 33q23 0 32.5 -5.5t17.5 -13.5v-9q4 -8 0.5 -22.5t-11.5 -29t-20.5 -25.5t-27.5 -11q-8 0 -18.5 5.5t-10.5 13.5q-11 -15 -18 -32
t-10 -31.5t-1 -24t9 -9.5q11 -4 27.5 7.5t32.5 27.5q18 18 38 43zM279 335q8 0 10 -4.5t9 -4.5q4 0 9 6.5t11 15.5t11 19l9 18q-23 -8 -34 -21t-25 -29zM630 296v-9q-14 -25 -28 -42q-12 -15 -25.5 -24.5t-24.5 -1.5q-15 7 -19.5 17.5t-3.5 21t5.5 21t8.5 17.5q7 38 19 61
t20 38q-29 -26 -51 -57t-37 -57q-18 -31 -30 -62q-6 -6 -13 -4q-4 1 -7 4q-11 18 -8.5 41t10.5 47t19 47t18 41q-29 -30 -51 -61t-36 -57q-17 -30 -29 -58q-6 -6 -14 -4q-4 1 -6 4q-11 26 -2 60.5t25 66.5q18 37 46 77q14 0 22 -1.5t12 -3.5t5 -4q-26 -33 -41.5 -61.5
t-23.5 -49.5q-10 -25 -13 -45q14 37 37.5 67t45.5 52q26 26 53 46q11 0 17 -1.5t9 -3.5q4 -2 4 -4q-26 -33 -41.5 -61.5t-23.5 -49.5q-10 -25 -14 -45q15 37 37 67t43 52t37 34t20 12h19l20 -9q-6 -6 -12 -16q-5 -8 -12.5 -21t-14.5 -31q-11 -19 -21.5 -39.5t-16.5 -38
t-7 -28.5t6 -11q8 0 19 10t22 23q12 15 27 34zM747 296q-7 0 -9 -5q-1 -2 -1 -4v-10q-22 -33 -47.5 -49t-46.5 -15t-33.5 19.5t-8.5 54.5q7 36 25.5 64.5t32.5 43.5q8 0 15 -5t15 -5q0 8 5.5 19.5t13.5 18.5q7 7 18 0q5 -4 11 -9q4 0 7.5 -1.5t6.5 -3.5q4 -3 6 -5
q0 -7 5 -21.5t5 -36.5q-8 -8 -10 -20t-10 -19q11 3 19.5 9.5t15.5 13.5q8 8 14 16h10q-6 -14 -15 -25q-8 -10 -19 -17.5t-25 -7.5zM728 307q-23 7 -31 25.5t-8 32.5q-18 -18 -31 -40.5t-19.5 -42.5t-6.5 -35t8 -18q11 -4 23.5 1t24.5 16t22 27t18 34zM737 316q8 23 13 43.5
t-3 35.5l-10 9q-18 -18 -23 -32.5t-2 -25.5t10.5 -18.5t14.5 -11.5z" />
    <glyph glyph-name="asciicircum" unicode="^" 
d="M230 296l10 -9q-17 -25 -33 -42q-14 -15 -28.5 -24.5t-25.5 -1.5q-16 8 -18.5 26t-2.5 32q-15 -29 -27 -41.5t-21 -16.5q-11 -4 -19 0q-17 7 -21 23t1 36t16.5 42t25 41.5t26 33.5t19.5 19q11 11 22 11t19 -5q10 -5 19 -16h9q7 18 15.5 34t16.5 28q9 14 17 26l9 -10
q8 0 11.5 -1.5t5.5 -3.5t3 -4q-14 -22 -28 -45q-12 -20 -25.5 -42t-24.5 -40q-8 -19 -16 -39.5t-13 -38t-6 -28.5t6 -11q8 0 17.5 10t18.5 23q11 15 22 34zM192 395q-8 7 -16.5 7t-22.5 -7q-15 -8 -30.5 -34.5t-27.5 -56t-18 -52.5t-3 -23q7 -4 20.5 9.5t26.5 30.5
q15 20 32 47q7 23 19 43.5t20 35.5zM357 307v-11q-22 -36 -47.5 -57.5t-46.5 -25t-33.5 12t-9.5 51.5q4 41 19.5 68.5t32.5 44.5q20 20 45 33q23 0 32.5 -5.5t17.5 -13.5v-9q4 -8 0.5 -22.5t-11.5 -29t-20.5 -25.5t-27.5 -11q-8 0 -18.5 5.5t-10.5 13.5q-11 -15 -18 -32
t-10 -31.5t-1 -24t9 -9.5q11 -4 27.5 7.5t32.5 27.5q18 18 38 43zM279 335q8 0 10 -4.5t9 -4.5q4 0 9 6.5t11 15.5t11 19l9 18q-23 -8 -34 -21t-25 -29zM630 296v-9q-14 -25 -28 -42q-12 -15 -25.5 -24.5t-24.5 -1.5q-15 7 -19.5 17.5t-3.5 21t5.5 21t8.5 17.5q7 38 19 61
t20 38q-29 -26 -51 -57t-37 -57q-18 -31 -30 -62q-6 -6 -13 -4q-4 1 -7 4q-11 18 -8.5 41t10.5 47t19 47t18 41q-29 -30 -51 -61t-36 -57q-17 -30 -29 -58q-6 -6 -14 -4q-4 1 -6 4q-11 26 -2 60.5t25 66.5q18 37 46 77q14 0 22 -1.5t12 -3.5t5 -4q-26 -33 -41.5 -61.5
t-23.5 -49.5q-10 -25 -13 -45q14 37 37.5 67t45.5 52q26 26 53 46q11 0 17 -1.5t9 -3.5q4 -2 4 -4q-26 -33 -41.5 -61.5t-23.5 -49.5q-10 -25 -14 -45q15 37 37 67t43 52t37 34t20 12h19l20 -9q-6 -6 -12 -16q-5 -8 -12.5 -21t-14.5 -31q-11 -19 -21.5 -39.5t-16.5 -38
t-7 -28.5t6 -11q8 0 19 10t22 23q12 15 27 34zM747 296q-7 0 -9 -5q-1 -2 -1 -4v-10q-22 -33 -47.5 -49t-46.5 -15t-33.5 19.5t-8.5 54.5q7 36 25.5 64.5t32.5 43.5q8 0 15 -5t15 -5q0 8 5.5 19.5t13.5 18.5q7 7 18 0q5 -4 11 -9q4 0 7.5 -1.5t6.5 -3.5q4 -3 6 -5
q0 -7 5 -21.5t5 -36.5q-8 -8 -10 -20t-10 -19q11 3 19.5 9.5t15.5 13.5q8 8 14 16h10q-6 -14 -15 -25q-8 -10 -19 -17.5t-25 -7.5zM728 307q-23 7 -31 25.5t-8 32.5q-18 -18 -31 -40.5t-19.5 -42.5t-6.5 -35t8 -18q11 -4 23.5 1t24.5 16t22 27t18 34zM737 316q8 23 13 43.5
t-3 35.5l-10 9q-18 -18 -23 -32.5t-2 -25.5t10.5 -18.5t14.5 -11.5z" />
    <glyph glyph-name="underscore" unicode="_" 
d="M230 296l10 -9q-17 -25 -33 -42q-14 -15 -28.5 -24.5t-25.5 -1.5q-16 8 -18.5 26t-2.5 32q-15 -29 -27 -41.5t-21 -16.5q-11 -4 -19 0q-17 7 -21 23t1 36t16.5 42t25 41.5t26 33.5t19.5 19q11 11 22 11t19 -5q10 -5 19 -16h9q7 18 15.5 34t16.5 28q9 14 17 26l9 -10
q8 0 11.5 -1.5t5.5 -3.5t3 -4q-14 -22 -28 -45q-12 -20 -25.5 -42t-24.5 -40q-8 -19 -16 -39.5t-13 -38t-6 -28.5t6 -11q8 0 17.5 10t18.5 23q11 15 22 34zM192 395q-8 7 -16.5 7t-22.5 -7q-15 -8 -30.5 -34.5t-27.5 -56t-18 -52.5t-3 -23q7 -4 20.5 9.5t26.5 30.5
q15 20 32 47q7 23 19 43.5t20 35.5zM357 307v-11q-22 -36 -47.5 -57.5t-46.5 -25t-33.5 12t-9.5 51.5q4 41 19.5 68.5t32.5 44.5q20 20 45 33q23 0 32.5 -5.5t17.5 -13.5v-9q4 -8 0.5 -22.5t-11.5 -29t-20.5 -25.5t-27.5 -11q-8 0 -18.5 5.5t-10.5 13.5q-11 -15 -18 -32
t-10 -31.5t-1 -24t9 -9.5q11 -4 27.5 7.5t32.5 27.5q18 18 38 43zM279 335q8 0 10 -4.5t9 -4.5q4 0 9 6.5t11 15.5t11 19l9 18q-23 -8 -34 -21t-25 -29zM630 296v-9q-14 -25 -28 -42q-12 -15 -25.5 -24.5t-24.5 -1.5q-15 7 -19.5 17.5t-3.5 21t5.5 21t8.5 17.5q7 38 19 61
t20 38q-29 -26 -51 -57t-37 -57q-18 -31 -30 -62q-6 -6 -13 -4q-4 1 -7 4q-11 18 -8.5 41t10.5 47t19 47t18 41q-29 -30 -51 -61t-36 -57q-17 -30 -29 -58q-6 -6 -14 -4q-4 1 -6 4q-11 26 -2 60.5t25 66.5q18 37 46 77q14 0 22 -1.5t12 -3.5t5 -4q-26 -33 -41.5 -61.5
t-23.5 -49.5q-10 -25 -13 -45q14 37 37.5 67t45.5 52q26 26 53 46q11 0 17 -1.5t9 -3.5q4 -2 4 -4q-26 -33 -41.5 -61.5t-23.5 -49.5q-10 -25 -14 -45q15 37 37 67t43 52t37 34t20 12h19l20 -9q-6 -6 -12 -16q-5 -8 -12.5 -21t-14.5 -31q-11 -19 -21.5 -39.5t-16.5 -38
t-7 -28.5t6 -11q8 0 19 10t22 23q12 15 27 34zM747 296q-7 0 -9 -5q-1 -2 -1 -4v-10q-22 -33 -47.5 -49t-46.5 -15t-33.5 19.5t-8.5 54.5q7 36 25.5 64.5t32.5 43.5q8 0 15 -5t15 -5q0 8 5.5 19.5t13.5 18.5q7 7 18 0q5 -4 11 -9q4 0 7.5 -1.5t6.5 -3.5q4 -3 6 -5
q0 -7 5 -21.5t5 -36.5q-8 -8 -10 -20t-10 -19q11 3 19.5 9.5t15.5 13.5q8 8 14 16h10q-6 -14 -15 -25q-8 -10 -19 -17.5t-25 -7.5zM728 307q-23 7 -31 25.5t-8 32.5q-18 -18 -31 -40.5t-19.5 -42.5t-6.5 -35t8 -18q11 -4 23.5 1t24.5 16t22 27t18 34zM737 316q8 23 13 43.5
t-3 35.5l-10 9q-18 -18 -23 -32.5t-2 -25.5t10.5 -18.5t14.5 -11.5z" />
    <glyph glyph-name="grave" unicode="`" 
d="M230 296l10 -9q-17 -25 -33 -42q-14 -15 -28.5 -24.5t-25.5 -1.5q-16 8 -18.5 26t-2.5 32q-15 -29 -27 -41.5t-21 -16.5q-11 -4 -19 0q-17 7 -21 23t1 36t16.5 42t25 41.5t26 33.5t19.5 19q11 11 22 11t19 -5q10 -5 19 -16h9q7 18 15.5 34t16.5 28q9 14 17 26l9 -10
q8 0 11.5 -1.5t5.5 -3.5t3 -4q-14 -22 -28 -45q-12 -20 -25.5 -42t-24.5 -40q-8 -19 -16 -39.5t-13 -38t-6 -28.5t6 -11q8 0 17.5 10t18.5 23q11 15 22 34zM192 395q-8 7 -16.5 7t-22.5 -7q-15 -8 -30.5 -34.5t-27.5 -56t-18 -52.5t-3 -23q7 -4 20.5 9.5t26.5 30.5
q15 20 32 47q7 23 19 43.5t20 35.5zM357 307v-11q-22 -36 -47.5 -57.5t-46.5 -25t-33.5 12t-9.5 51.5q4 41 19.5 68.5t32.5 44.5q20 20 45 33q23 0 32.5 -5.5t17.5 -13.5v-9q4 -8 0.5 -22.5t-11.5 -29t-20.5 -25.5t-27.5 -11q-8 0 -18.5 5.5t-10.5 13.5q-11 -15 -18 -32
t-10 -31.5t-1 -24t9 -9.5q11 -4 27.5 7.5t32.5 27.5q18 18 38 43zM279 335q8 0 10 -4.5t9 -4.5q4 0 9 6.5t11 15.5t11 19l9 18q-23 -8 -34 -21t-25 -29zM630 296v-9q-14 -25 -28 -42q-12 -15 -25.5 -24.5t-24.5 -1.5q-15 7 -19.5 17.5t-3.5 21t5.5 21t8.5 17.5q7 38 19 61
t20 38q-29 -26 -51 -57t-37 -57q-18 -31 -30 -62q-6 -6 -13 -4q-4 1 -7 4q-11 18 -8.5 41t10.5 47t19 47t18 41q-29 -30 -51 -61t-36 -57q-17 -30 -29 -58q-6 -6 -14 -4q-4 1 -6 4q-11 26 -2 60.5t25 66.5q18 37 46 77q14 0 22 -1.5t12 -3.5t5 -4q-26 -33 -41.5 -61.5
t-23.5 -49.5q-10 -25 -13 -45q14 37 37.5 67t45.5 52q26 26 53 46q11 0 17 -1.5t9 -3.5q4 -2 4 -4q-26 -33 -41.5 -61.5t-23.5 -49.5q-10 -25 -14 -45q15 37 37 67t43 52t37 34t20 12h19l20 -9q-6 -6 -12 -16q-5 -8 -12.5 -21t-14.5 -31q-11 -19 -21.5 -39.5t-16.5 -38
t-7 -28.5t6 -11q8 0 19 10t22 23q12 15 27 34zM747 296q-7 0 -9 -5q-1 -2 -1 -4v-10q-22 -33 -47.5 -49t-46.5 -15t-33.5 19.5t-8.5 54.5q7 36 25.5 64.5t32.5 43.5q8 0 15 -5t15 -5q0 8 5.5 19.5t13.5 18.5q7 7 18 0q5 -4 11 -9q4 0 7.5 -1.5t6.5 -3.5q4 -3 6 -5
q0 -7 5 -21.5t5 -36.5q-8 -8 -10 -20t-10 -19q11 3 19.5 9.5t15.5 13.5q8 8 14 16h10q-6 -14 -15 -25q-8 -10 -19 -17.5t-25 -7.5zM728 307q-23 7 -31 25.5t-8 32.5q-18 -18 -31 -40.5t-19.5 -42.5t-6.5 -35t8 -18q11 -4 23.5 1t24.5 16t22 27t18 34zM737 316q8 23 13 43.5
t-3 35.5l-10 9q-18 -18 -23 -32.5t-2 -25.5t10.5 -18.5t14.5 -11.5z" />
    <glyph glyph-name="hyphen" unicode="-" 
d="M230 296l10 -9q-17 -25 -33 -42q-14 -15 -28.5 -24.5t-25.5 -1.5q-16 8 -18.5 26t-2.5 32q-15 -29 -27 -41.5t-21 -16.5q-11 -4 -19 0q-17 7 -21 23t1 36t16.5 42t25 41.5t26 33.5t19.5 19q11 11 22 11t19 -5q10 -5 19 -16h9q7 18 15.5 34t16.5 28q9 14 17 26l9 -10
q8 0 11.5 -1.5t5.5 -3.5t3 -4q-14 -22 -28 -45q-12 -20 -25.5 -42t-24.5 -40q-8 -19 -16 -39.5t-13 -38t-6 -28.5t6 -11q8 0 17.5 10t18.5 23q11 15 22 34zM192 395q-8 7 -16.5 7t-22.5 -7q-15 -8 -30.5 -34.5t-27.5 -56t-18 -52.5t-3 -23q7 -4 20.5 9.5t26.5 30.5
q15 20 32 47q7 23 19 43.5t20 35.5zM357 307v-11q-22 -36 -47.5 -57.5t-46.5 -25t-33.5 12t-9.5 51.5q4 41 19.5 68.5t32.5 44.5q20 20 45 33q23 0 32.5 -5.5t17.5 -13.5v-9q4 -8 0.5 -22.5t-11.5 -29t-20.5 -25.5t-27.5 -11q-8 0 -18.5 5.5t-10.5 13.5q-11 -15 -18 -32
t-10 -31.5t-1 -24t9 -9.5q11 -4 27.5 7.5t32.5 27.5q18 18 38 43zM279 335q8 0 10 -4.5t9 -4.5q4 0 9 6.5t11 15.5t11 19l9 18q-23 -8 -34 -21t-25 -29zM630 296v-9q-14 -25 -28 -42q-12 -15 -25.5 -24.5t-24.5 -1.5q-15 7 -19.5 17.5t-3.5 21t5.5 21t8.5 17.5q7 38 19 61
t20 38q-29 -26 -51 -57t-37 -57q-18 -31 -30 -62q-6 -6 -13 -4q-4 1 -7 4q-11 18 -8.5 41t10.5 47t19 47t18 41q-29 -30 -51 -61t-36 -57q-17 -30 -29 -58q-6 -6 -14 -4q-4 1 -6 4q-11 26 -2 60.5t25 66.5q18 37 46 77q14 0 22 -1.5t12 -3.5t5 -4q-26 -33 -41.5 -61.5
t-23.5 -49.5q-10 -25 -13 -45q14 37 37.5 67t45.5 52q26 26 53 46q11 0 17 -1.5t9 -3.5q4 -2 4 -4q-26 -33 -41.5 -61.5t-23.5 -49.5q-10 -25 -14 -45q15 37 37 67t43 52t37 34t20 12h19l20 -9q-6 -6 -12 -16q-5 -8 -12.5 -21t-14.5 -31q-11 -19 -21.5 -39.5t-16.5 -38
t-7 -28.5t6 -11q8 0 19 10t22 23q12 15 27 34zM747 296q-7 0 -9 -5q-1 -2 -1 -4v-10q-22 -33 -47.5 -49t-46.5 -15t-33.5 19.5t-8.5 54.5q7 36 25.5 64.5t32.5 43.5q8 0 15 -5t15 -5q0 8 5.5 19.5t13.5 18.5q7 7 18 0q5 -4 11 -9q4 0 7.5 -1.5t6.5 -3.5q4 -3 6 -5
q0 -7 5 -21.5t5 -36.5q-8 -8 -10 -20t-10 -19q11 3 19.5 9.5t15.5 13.5q8 8 14 16h10q-6 -14 -15 -25q-8 -10 -19 -17.5t-25 -7.5zM728 307q-23 7 -31 25.5t-8 32.5q-18 -18 -31 -40.5t-19.5 -42.5t-6.5 -35t8 -18q11 -4 23.5 1t24.5 16t22 27t18 34zM737 316q8 23 13 43.5
t-3 35.5l-10 9q-18 -18 -23 -32.5t-2 -25.5t10.5 -18.5t14.5 -11.5z" />
    <glyph glyph-name="quotesingle" unicode="'" 
d="M230 296l10 -9q-17 -25 -33 -42q-14 -15 -28.5 -24.5t-25.5 -1.5q-16 8 -18.5 26t-2.5 32q-15 -29 -27 -41.5t-21 -16.5q-11 -4 -19 0q-17 7 -21 23t1 36t16.5 42t25 41.5t26 33.5t19.5 19q11 11 22 11t19 -5q10 -5 19 -16h9q7 18 15.5 34t16.5 28q9 14 17 26l9 -10
q8 0 11.5 -1.5t5.5 -3.5t3 -4q-14 -22 -28 -45q-12 -20 -25.5 -42t-24.5 -40q-8 -19 -16 -39.5t-13 -38t-6 -28.5t6 -11q8 0 17.5 10t18.5 23q11 15 22 34zM192 395q-8 7 -16.5 7t-22.5 -7q-15 -8 -30.5 -34.5t-27.5 -56t-18 -52.5t-3 -23q7 -4 20.5 9.5t26.5 30.5
q15 20 32 47q7 23 19 43.5t20 35.5zM357 307v-11q-22 -36 -47.5 -57.5t-46.5 -25t-33.5 12t-9.5 51.5q4 41 19.5 68.5t32.5 44.5q20 20 45 33q23 0 32.5 -5.5t17.5 -13.5v-9q4 -8 0.5 -22.5t-11.5 -29t-20.5 -25.5t-27.5 -11q-8 0 -18.5 5.5t-10.5 13.5q-11 -15 -18 -32
t-10 -31.5t-1 -24t9 -9.5q11 -4 27.5 7.5t32.5 27.5q18 18 38 43zM279 335q8 0 10 -4.5t9 -4.5q4 0 9 6.5t11 15.5t11 19l9 18q-23 -8 -34 -21t-25 -29zM630 296v-9q-14 -25 -28 -42q-12 -15 -25.5 -24.5t-24.5 -1.5q-15 7 -19.5 17.5t-3.5 21t5.5 21t8.5 17.5q7 38 19 61
t20 38q-29 -26 -51 -57t-37 -57q-18 -31 -30 -62q-6 -6 -13 -4q-4 1 -7 4q-11 18 -8.5 41t10.5 47t19 47t18 41q-29 -30 -51 -61t-36 -57q-17 -30 -29 -58q-6 -6 -14 -4q-4 1 -6 4q-11 26 -2 60.5t25 66.5q18 37 46 77q14 0 22 -1.5t12 -3.5t5 -4q-26 -33 -41.5 -61.5
t-23.5 -49.5q-10 -25 -13 -45q14 37 37.5 67t45.5 52q26 26 53 46q11 0 17 -1.5t9 -3.5q4 -2 4 -4q-26 -33 -41.5 -61.5t-23.5 -49.5q-10 -25 -14 -45q15 37 37 67t43 52t37 34t20 12h19l20 -9q-6 -6 -12 -16q-5 -8 -12.5 -21t-14.5 -31q-11 -19 -21.5 -39.5t-16.5 -38
t-7 -28.5t6 -11q8 0 19 10t22 23q12 15 27 34zM747 296q-7 0 -9 -5q-1 -2 -1 -4v-10q-22 -33 -47.5 -49t-46.5 -15t-33.5 19.5t-8.5 54.5q7 36 25.5 64.5t32.5 43.5q8 0 15 -5t15 -5q0 8 5.5 19.5t13.5 18.5q7 7 18 0q5 -4 11 -9q4 0 7.5 -1.5t6.5 -3.5q4 -3 6 -5
q0 -7 5 -21.5t5 -36.5q-8 -8 -10 -20t-10 -19q11 3 19.5 9.5t15.5 13.5q8 8 14 16h10q-6 -14 -15 -25q-8 -10 -19 -17.5t-25 -7.5zM728 307q-23 7 -31 25.5t-8 32.5q-18 -18 -31 -40.5t-19.5 -42.5t-6.5 -35t8 -18q11 -4 23.5 1t24.5 16t22 27t18 34zM737 316q8 23 13 43.5
t-3 35.5l-10 9q-18 -18 -23 -32.5t-2 -25.5t10.5 -18.5t14.5 -11.5z" />
    <glyph glyph-name="parenleft" unicode="(" 
d="M230 296l10 -9q-17 -25 -33 -42q-14 -15 -28.5 -24.5t-25.5 -1.5q-16 8 -18.5 26t-2.5 32q-15 -29 -27 -41.5t-21 -16.5q-11 -4 -19 0q-17 7 -21 23t1 36t16.5 42t25 41.5t26 33.5t19.5 19q11 11 22 11t19 -5q10 -5 19 -16h9q7 18 15.5 34t16.5 28q9 14 17 26l9 -10
q8 0 11.5 -1.5t5.5 -3.5t3 -4q-14 -22 -28 -45q-12 -20 -25.5 -42t-24.5 -40q-8 -19 -16 -39.5t-13 -38t-6 -28.5t6 -11q8 0 17.5 10t18.5 23q11 15 22 34zM192 395q-8 7 -16.5 7t-22.5 -7q-15 -8 -30.5 -34.5t-27.5 -56t-18 -52.5t-3 -23q7 -4 20.5 9.5t26.5 30.5
q15 20 32 47q7 23 19 43.5t20 35.5zM357 307v-11q-22 -36 -47.5 -57.5t-46.5 -25t-33.5 12t-9.5 51.5q4 41 19.5 68.5t32.5 44.5q20 20 45 33q23 0 32.5 -5.5t17.5 -13.5v-9q4 -8 0.5 -22.5t-11.5 -29t-20.5 -25.5t-27.5 -11q-8 0 -18.5 5.5t-10.5 13.5q-11 -15 -18 -32
t-10 -31.5t-1 -24t9 -9.5q11 -4 27.5 7.5t32.5 27.5q18 18 38 43zM279 335q8 0 10 -4.5t9 -4.5q4 0 9 6.5t11 15.5t11 19l9 18q-23 -8 -34 -21t-25 -29zM630 296v-9q-14 -25 -28 -42q-12 -15 -25.5 -24.5t-24.5 -1.5q-15 7 -19.5 17.5t-3.5 21t5.5 21t8.5 17.5q7 38 19 61
t20 38q-29 -26 -51 -57t-37 -57q-18 -31 -30 -62q-6 -6 -13 -4q-4 1 -7 4q-11 18 -8.5 41t10.5 47t19 47t18 41q-29 -30 -51 -61t-36 -57q-17 -30 -29 -58q-6 -6 -14 -4q-4 1 -6 4q-11 26 -2 60.5t25 66.5q18 37 46 77q14 0 22 -1.5t12 -3.5t5 -4q-26 -33 -41.5 -61.5
t-23.5 -49.5q-10 -25 -13 -45q14 37 37.5 67t45.5 52q26 26 53 46q11 0 17 -1.5t9 -3.5q4 -2 4 -4q-26 -33 -41.5 -61.5t-23.5 -49.5q-10 -25 -14 -45q15 37 37 67t43 52t37 34t20 12h19l20 -9q-6 -6 -12 -16q-5 -8 -12.5 -21t-14.5 -31q-11 -19 -21.5 -39.5t-16.5 -38
t-7 -28.5t6 -11q8 0 19 10t22 23q12 15 27 34zM747 296q-7 0 -9 -5q-1 -2 -1 -4v-10q-22 -33 -47.5 -49t-46.5 -15t-33.5 19.5t-8.5 54.5q7 36 25.5 64.5t32.5 43.5q8 0 15 -5t15 -5q0 8 5.5 19.5t13.5 18.5q7 7 18 0q5 -4 11 -9q4 0 7.5 -1.5t6.5 -3.5q4 -3 6 -5
q0 -7 5 -21.5t5 -36.5q-8 -8 -10 -20t-10 -19q11 3 19.5 9.5t15.5 13.5q8 8 14 16h10q-6 -14 -15 -25q-8 -10 -19 -17.5t-25 -7.5zM728 307q-23 7 -31 25.5t-8 32.5q-18 -18 -31 -40.5t-19.5 -42.5t-6.5 -35t8 -18q11 -4 23.5 1t24.5 16t22 27t18 34zM737 316q8 23 13 43.5
t-3 35.5l-10 9q-18 -18 -23 -32.5t-2 -25.5t10.5 -18.5t14.5 -11.5z" />
    <glyph glyph-name="parenright" unicode=")" 
d="M230 296l10 -9q-17 -25 -33 -42q-14 -15 -28.5 -24.5t-25.5 -1.5q-16 8 -18.5 26t-2.5 32q-15 -29 -27 -41.5t-21 -16.5q-11 -4 -19 0q-17 7 -21 23t1 36t16.5 42t25 41.5t26 33.5t19.5 19q11 11 22 11t19 -5q10 -5 19 -16h9q7 18 15.5 34t16.5 28q9 14 17 26l9 -10
q8 0 11.5 -1.5t5.5 -3.5t3 -4q-14 -22 -28 -45q-12 -20 -25.5 -42t-24.5 -40q-8 -19 -16 -39.5t-13 -38t-6 -28.5t6 -11q8 0 17.5 10t18.5 23q11 15 22 34zM192 395q-8 7 -16.5 7t-22.5 -7q-15 -8 -30.5 -34.5t-27.5 -56t-18 -52.5t-3 -23q7 -4 20.5 9.5t26.5 30.5
q15 20 32 47q7 23 19 43.5t20 35.5zM357 307v-11q-22 -36 -47.5 -57.5t-46.5 -25t-33.5 12t-9.5 51.5q4 41 19.5 68.5t32.5 44.5q20 20 45 33q23 0 32.5 -5.5t17.5 -13.5v-9q4 -8 0.5 -22.5t-11.5 -29t-20.5 -25.5t-27.5 -11q-8 0 -18.5 5.5t-10.5 13.5q-11 -15 -18 -32
t-10 -31.5t-1 -24t9 -9.5q11 -4 27.5 7.5t32.5 27.5q18 18 38 43zM279 335q8 0 10 -4.5t9 -4.5q4 0 9 6.5t11 15.5t11 19l9 18q-23 -8 -34 -21t-25 -29zM630 296v-9q-14 -25 -28 -42q-12 -15 -25.5 -24.5t-24.5 -1.5q-15 7 -19.5 17.5t-3.5 21t5.5 21t8.5 17.5q7 38 19 61
t20 38q-29 -26 -51 -57t-37 -57q-18 -31 -30 -62q-6 -6 -13 -4q-4 1 -7 4q-11 18 -8.5 41t10.5 47t19 47t18 41q-29 -30 -51 -61t-36 -57q-17 -30 -29 -58q-6 -6 -14 -4q-4 1 -6 4q-11 26 -2 60.5t25 66.5q18 37 46 77q14 0 22 -1.5t12 -3.5t5 -4q-26 -33 -41.5 -61.5
t-23.5 -49.5q-10 -25 -13 -45q14 37 37.5 67t45.5 52q26 26 53 46q11 0 17 -1.5t9 -3.5q4 -2 4 -4q-26 -33 -41.5 -61.5t-23.5 -49.5q-10 -25 -14 -45q15 37 37 67t43 52t37 34t20 12h19l20 -9q-6 -6 -12 -16q-5 -8 -12.5 -21t-14.5 -31q-11 -19 -21.5 -39.5t-16.5 -38
t-7 -28.5t6 -11q8 0 19 10t22 23q12 15 27 34zM747 296q-7 0 -9 -5q-1 -2 -1 -4v-10q-22 -33 -47.5 -49t-46.5 -15t-33.5 19.5t-8.5 54.5q7 36 25.5 64.5t32.5 43.5q8 0 15 -5t15 -5q0 8 5.5 19.5t13.5 18.5q7 7 18 0q5 -4 11 -9q4 0 7.5 -1.5t6.5 -3.5q4 -3 6 -5
q0 -7 5 -21.5t5 -36.5q-8 -8 -10 -20t-10 -19q11 3 19.5 9.5t15.5 13.5q8 8 14 16h10q-6 -14 -15 -25q-8 -10 -19 -17.5t-25 -7.5zM728 307q-23 7 -31 25.5t-8 32.5q-18 -18 -31 -40.5t-19.5 -42.5t-6.5 -35t8 -18q11 -4 23.5 1t24.5 16t22 27t18 34zM737 316q8 23 13 43.5
t-3 35.5l-10 9q-18 -18 -23 -32.5t-2 -25.5t10.5 -18.5t14.5 -11.5z" />
    <glyph glyph-name="asterisk" unicode="*" 
d="M230 296l10 -9q-17 -25 -33 -42q-14 -15 -28.5 -24.5t-25.5 -1.5q-16 8 -18.5 26t-2.5 32q-15 -29 -27 -41.5t-21 -16.5q-11 -4 -19 0q-17 7 -21 23t1 36t16.5 42t25 41.5t26 33.5t19.5 19q11 11 22 11t19 -5q10 -5 19 -16h9q7 18 15.5 34t16.5 28q9 14 17 26l9 -10
q8 0 11.5 -1.5t5.5 -3.5t3 -4q-14 -22 -28 -45q-12 -20 -25.5 -42t-24.5 -40q-8 -19 -16 -39.5t-13 -38t-6 -28.5t6 -11q8 0 17.5 10t18.5 23q11 15 22 34zM192 395q-8 7 -16.5 7t-22.5 -7q-15 -8 -30.5 -34.5t-27.5 -56t-18 -52.5t-3 -23q7 -4 20.5 9.5t26.5 30.5
q15 20 32 47q7 23 19 43.5t20 35.5zM357 307v-11q-22 -36 -47.5 -57.5t-46.5 -25t-33.5 12t-9.5 51.5q4 41 19.5 68.5t32.5 44.5q20 20 45 33q23 0 32.5 -5.5t17.5 -13.5v-9q4 -8 0.5 -22.5t-11.5 -29t-20.5 -25.5t-27.5 -11q-8 0 -18.5 5.5t-10.5 13.5q-11 -15 -18 -32
t-10 -31.5t-1 -24t9 -9.5q11 -4 27.5 7.5t32.5 27.5q18 18 38 43zM279 335q8 0 10 -4.5t9 -4.5q4 0 9 6.5t11 15.5t11 19l9 18q-23 -8 -34 -21t-25 -29zM630 296v-9q-14 -25 -28 -42q-12 -15 -25.5 -24.5t-24.5 -1.5q-15 7 -19.5 17.5t-3.5 21t5.5 21t8.5 17.5q7 38 19 61
t20 38q-29 -26 -51 -57t-37 -57q-18 -31 -30 -62q-6 -6 -13 -4q-4 1 -7 4q-11 18 -8.5 41t10.5 47t19 47t18 41q-29 -30 -51 -61t-36 -57q-17 -30 -29 -58q-6 -6 -14 -4q-4 1 -6 4q-11 26 -2 60.5t25 66.5q18 37 46 77q14 0 22 -1.5t12 -3.5t5 -4q-26 -33 -41.5 -61.5
t-23.5 -49.5q-10 -25 -13 -45q14 37 37.5 67t45.5 52q26 26 53 46q11 0 17 -1.5t9 -3.5q4 -2 4 -4q-26 -33 -41.5 -61.5t-23.5 -49.5q-10 -25 -14 -45q15 37 37 67t43 52t37 34t20 12h19l20 -9q-6 -6 -12 -16q-5 -8 -12.5 -21t-14.5 -31q-11 -19 -21.5 -39.5t-16.5 -38
t-7 -28.5t6 -11q8 0 19 10t22 23q12 15 27 34zM747 296q-7 0 -9 -5q-1 -2 -1 -4v-10q-22 -33 -47.5 -49t-46.5 -15t-33.5 19.5t-8.5 54.5q7 36 25.5 64.5t32.5 43.5q8 0 15 -5t15 -5q0 8 5.5 19.5t13.5 18.5q7 7 18 0q5 -4 11 -9q4 0 7.5 -1.5t6.5 -3.5q4 -3 6 -5
q0 -7 5 -21.5t5 -36.5q-8 -8 -10 -20t-10 -19q11 3 19.5 9.5t15.5 13.5q8 8 14 16h10q-6 -14 -15 -25q-8 -10 -19 -17.5t-25 -7.5zM728 307q-23 7 -31 25.5t-8 32.5q-18 -18 -31 -40.5t-19.5 -42.5t-6.5 -35t8 -18q11 -4 23.5 1t24.5 16t22 27t18 34zM737 316q8 23 13 43.5
t-3 35.5l-10 9q-18 -18 -23 -32.5t-2 -25.5t10.5 -18.5t14.5 -11.5z" />
    <glyph glyph-name="plus" unicode="+" 
d="M230 296l10 -9q-17 -25 -33 -42q-14 -15 -28.5 -24.5t-25.5 -1.5q-16 8 -18.5 26t-2.5 32q-15 -29 -27 -41.5t-21 -16.5q-11 -4 -19 0q-17 7 -21 23t1 36t16.5 42t25 41.5t26 33.5t19.5 19q11 11 22 11t19 -5q10 -5 19 -16h9q7 18 15.5 34t16.5 28q9 14 17 26l9 -10
q8 0 11.5 -1.5t5.5 -3.5t3 -4q-14 -22 -28 -45q-12 -20 -25.5 -42t-24.5 -40q-8 -19 -16 -39.5t-13 -38t-6 -28.5t6 -11q8 0 17.5 10t18.5 23q11 15 22 34zM192 395q-8 7 -16.5 7t-22.5 -7q-15 -8 -30.5 -34.5t-27.5 -56t-18 -52.5t-3 -23q7 -4 20.5 9.5t26.5 30.5
q15 20 32 47q7 23 19 43.5t20 35.5zM357 307v-11q-22 -36 -47.5 -57.5t-46.5 -25t-33.5 12t-9.5 51.5q4 41 19.5 68.5t32.5 44.5q20 20 45 33q23 0 32.5 -5.5t17.5 -13.5v-9q4 -8 0.5 -22.5t-11.5 -29t-20.5 -25.5t-27.5 -11q-8 0 -18.5 5.5t-10.5 13.5q-11 -15 -18 -32
t-10 -31.5t-1 -24t9 -9.5q11 -4 27.5 7.5t32.5 27.5q18 18 38 43zM279 335q8 0 10 -4.5t9 -4.5q4 0 9 6.5t11 15.5t11 19l9 18q-23 -8 -34 -21t-25 -29zM630 296v-9q-14 -25 -28 -42q-12 -15 -25.5 -24.5t-24.5 -1.5q-15 7 -19.5 17.5t-3.5 21t5.5 21t8.5 17.5q7 38 19 61
t20 38q-29 -26 -51 -57t-37 -57q-18 -31 -30 -62q-6 -6 -13 -4q-4 1 -7 4q-11 18 -8.5 41t10.5 47t19 47t18 41q-29 -30 -51 -61t-36 -57q-17 -30 -29 -58q-6 -6 -14 -4q-4 1 -6 4q-11 26 -2 60.5t25 66.5q18 37 46 77q14 0 22 -1.5t12 -3.5t5 -4q-26 -33 -41.5 -61.5
t-23.5 -49.5q-10 -25 -13 -45q14 37 37.5 67t45.5 52q26 26 53 46q11 0 17 -1.5t9 -3.5q4 -2 4 -4q-26 -33 -41.5 -61.5t-23.5 -49.5q-10 -25 -14 -45q15 37 37 67t43 52t37 34t20 12h19l20 -9q-6 -6 -12 -16q-5 -8 -12.5 -21t-14.5 -31q-11 -19 -21.5 -39.5t-16.5 -38
t-7 -28.5t6 -11q8 0 19 10t22 23q12 15 27 34zM747 296q-7 0 -9 -5q-1 -2 -1 -4v-10q-22 -33 -47.5 -49t-46.5 -15t-33.5 19.5t-8.5 54.5q7 36 25.5 64.5t32.5 43.5q8 0 15 -5t15 -5q0 8 5.5 19.5t13.5 18.5q7 7 18 0q5 -4 11 -9q4 0 7.5 -1.5t6.5 -3.5q4 -3 6 -5
q0 -7 5 -21.5t5 -36.5q-8 -8 -10 -20t-10 -19q11 3 19.5 9.5t15.5 13.5q8 8 14 16h10q-6 -14 -15 -25q-8 -10 -19 -17.5t-25 -7.5zM728 307q-23 7 -31 25.5t-8 32.5q-18 -18 -31 -40.5t-19.5 -42.5t-6.5 -35t8 -18q11 -4 23.5 1t24.5 16t22 27t18 34zM737 316q8 23 13 43.5
t-3 35.5l-10 9q-18 -18 -23 -32.5t-2 -25.5t10.5 -18.5t14.5 -11.5z" />
    <glyph glyph-name="comma" unicode="," 
d="M230 296l10 -9q-17 -25 -33 -42q-14 -15 -28.5 -24.5t-25.5 -1.5q-16 8 -18.5 26t-2.5 32q-15 -29 -27 -41.5t-21 -16.5q-11 -4 -19 0q-17 7 -21 23t1 36t16.5 42t25 41.5t26 33.5t19.5 19q11 11 22 11t19 -5q10 -5 19 -16h9q7 18 15.5 34t16.5 28q9 14 17 26l9 -10
q8 0 11.5 -1.5t5.5 -3.5t3 -4q-14 -22 -28 -45q-12 -20 -25.5 -42t-24.5 -40q-8 -19 -16 -39.5t-13 -38t-6 -28.5t6 -11q8 0 17.5 10t18.5 23q11 15 22 34zM192 395q-8 7 -16.5 7t-22.5 -7q-15 -8 -30.5 -34.5t-27.5 -56t-18 -52.5t-3 -23q7 -4 20.5 9.5t26.5 30.5
q15 20 32 47q7 23 19 43.5t20 35.5zM357 307v-11q-22 -36 -47.5 -57.5t-46.5 -25t-33.5 12t-9.5 51.5q4 41 19.5 68.5t32.5 44.5q20 20 45 33q23 0 32.5 -5.5t17.5 -13.5v-9q4 -8 0.5 -22.5t-11.5 -29t-20.5 -25.5t-27.5 -11q-8 0 -18.5 5.5t-10.5 13.5q-11 -15 -18 -32
t-10 -31.5t-1 -24t9 -9.5q11 -4 27.5 7.5t32.5 27.5q18 18 38 43zM279 335q8 0 10 -4.5t9 -4.5q4 0 9 6.5t11 15.5t11 19l9 18q-23 -8 -34 -21t-25 -29zM630 296v-9q-14 -25 -28 -42q-12 -15 -25.5 -24.5t-24.5 -1.5q-15 7 -19.5 17.5t-3.5 21t5.5 21t8.5 17.5q7 38 19 61
t20 38q-29 -26 -51 -57t-37 -57q-18 -31 -30 -62q-6 -6 -13 -4q-4 1 -7 4q-11 18 -8.5 41t10.5 47t19 47t18 41q-29 -30 -51 -61t-36 -57q-17 -30 -29 -58q-6 -6 -14 -4q-4 1 -6 4q-11 26 -2 60.5t25 66.5q18 37 46 77q14 0 22 -1.5t12 -3.5t5 -4q-26 -33 -41.5 -61.5
t-23.5 -49.5q-10 -25 -13 -45q14 37 37.5 67t45.5 52q26 26 53 46q11 0 17 -1.5t9 -3.5q4 -2 4 -4q-26 -33 -41.5 -61.5t-23.5 -49.5q-10 -25 -14 -45q15 37 37 67t43 52t37 34t20 12h19l20 -9q-6 -6 -12 -16q-5 -8 -12.5 -21t-14.5 -31q-11 -19 -21.5 -39.5t-16.5 -38
t-7 -28.5t6 -11q8 0 19 10t22 23q12 15 27 34zM747 296q-7 0 -9 -5q-1 -2 -1 -4v-10q-22 -33 -47.5 -49t-46.5 -15t-33.5 19.5t-8.5 54.5q7 36 25.5 64.5t32.5 43.5q8 0 15 -5t15 -5q0 8 5.5 19.5t13.5 18.5q7 7 18 0q5 -4 11 -9q4 0 7.5 -1.5t6.5 -3.5q4 -3 6 -5
q0 -7 5 -21.5t5 -36.5q-8 -8 -10 -20t-10 -19q11 3 19.5 9.5t15.5 13.5q8 8 14 16h10q-6 -14 -15 -25q-8 -10 -19 -17.5t-25 -7.5zM728 307q-23 7 -31 25.5t-8 32.5q-18 -18 -31 -40.5t-19.5 -42.5t-6.5 -35t8 -18q11 -4 23.5 1t24.5 16t22 27t18 34zM737 316q8 23 13 43.5
t-3 35.5l-10 9q-18 -18 -23 -32.5t-2 -25.5t10.5 -18.5t14.5 -11.5z" />
    <glyph glyph-name="period" unicode="." 
d="M230 296l10 -9q-17 -25 -33 -42q-14 -15 -28.5 -24.5t-25.5 -1.5q-16 8 -18.5 26t-2.5 32q-15 -29 -27 -41.5t-21 -16.5q-11 -4 -19 0q-17 7 -21 23t1 36t16.5 42t25 41.5t26 33.5t19.5 19q11 11 22 11t19 -5q10 -5 19 -16h9q7 18 15.5 34t16.5 28q9 14 17 26l9 -10
q8 0 11.5 -1.5t5.5 -3.5t3 -4q-14 -22 -28 -45q-12 -20 -25.5 -42t-24.5 -40q-8 -19 -16 -39.5t-13 -38t-6 -28.5t6 -11q8 0 17.5 10t18.5 23q11 15 22 34zM192 395q-8 7 -16.5 7t-22.5 -7q-15 -8 -30.5 -34.5t-27.5 -56t-18 -52.5t-3 -23q7 -4 20.5 9.5t26.5 30.5
q15 20 32 47q7 23 19 43.5t20 35.5zM357 307v-11q-22 -36 -47.5 -57.5t-46.5 -25t-33.5 12t-9.5 51.5q4 41 19.5 68.5t32.5 44.5q20 20 45 33q23 0 32.5 -5.5t17.5 -13.5v-9q4 -8 0.5 -22.5t-11.5 -29t-20.5 -25.5t-27.5 -11q-8 0 -18.5 5.5t-10.5 13.5q-11 -15 -18 -32
t-10 -31.5t-1 -24t9 -9.5q11 -4 27.5 7.5t32.5 27.5q18 18 38 43zM279 335q8 0 10 -4.5t9 -4.5q4 0 9 6.5t11 15.5t11 19l9 18q-23 -8 -34 -21t-25 -29zM630 296v-9q-14 -25 -28 -42q-12 -15 -25.5 -24.5t-24.5 -1.5q-15 7 -19.5 17.5t-3.5 21t5.5 21t8.5 17.5q7 38 19 61
t20 38q-29 -26 -51 -57t-37 -57q-18 -31 -30 -62q-6 -6 -13 -4q-4 1 -7 4q-11 18 -8.5 41t10.5 47t19 47t18 41q-29 -30 -51 -61t-36 -57q-17 -30 -29 -58q-6 -6 -14 -4q-4 1 -6 4q-11 26 -2 60.5t25 66.5q18 37 46 77q14 0 22 -1.5t12 -3.5t5 -4q-26 -33 -41.5 -61.5
t-23.5 -49.5q-10 -25 -13 -45q14 37 37.5 67t45.5 52q26 26 53 46q11 0 17 -1.5t9 -3.5q4 -2 4 -4q-26 -33 -41.5 -61.5t-23.5 -49.5q-10 -25 -14 -45q15 37 37 67t43 52t37 34t20 12h19l20 -9q-6 -6 -12 -16q-5 -8 -12.5 -21t-14.5 -31q-11 -19 -21.5 -39.5t-16.5 -38
t-7 -28.5t6 -11q8 0 19 10t22 23q12 15 27 34zM747 296q-7 0 -9 -5q-1 -2 -1 -4v-10q-22 -33 -47.5 -49t-46.5 -15t-33.5 19.5t-8.5 54.5q7 36 25.5 64.5t32.5 43.5q8 0 15 -5t15 -5q0 8 5.5 19.5t13.5 18.5q7 7 18 0q5 -4 11 -9q4 0 7.5 -1.5t6.5 -3.5q4 -3 6 -5
q0 -7 5 -21.5t5 -36.5q-8 -8 -10 -20t-10 -19q11 3 19.5 9.5t15.5 13.5q8 8 14 16h10q-6 -14 -15 -25q-8 -10 -19 -17.5t-25 -7.5zM728 307q-23 7 -31 25.5t-8 32.5q-18 -18 -31 -40.5t-19.5 -42.5t-6.5 -35t8 -18q11 -4 23.5 1t24.5 16t22 27t18 34zM737 316q8 23 13 43.5
t-3 35.5l-10 9q-18 -18 -23 -32.5t-2 -25.5t10.5 -18.5t14.5 -11.5z" />
  </font>
</defs>
</svg>
